AcariSans-Bold.ufo
<glyph name="numbersign" format="2">
  <advance width="1382"/>
  <unicode hex="0023"/>
  <outline>
    <contour>
      <point x="850" y="0" type="line"/>
      <point x="659" y="0" type="line"/>
      <point x="752" y="436" type="line"/>
      <point x="502" y="436" type="line"/>
      <point x="412" y="0" type="line"/>
      <point x="221" y="0" type="line"/>
      <point x="311" y="414" type="line"/>
      <point x="78" y="414" type="line"/>
      <point x="78" y="586" type="line"/>
      <point x="348" y="586" type="line"/>
      <point x="401" y="848" type="line"/>
      <point x="160" y="848" type="line"/>
      <point x="160" y="1028" type="line"/>
      <point x="438" y="1028" type="line"/>
      <point x="532" y="1434" type="line"/>
      <point x="725" y="1434" type="line"/>
      <point x="629" y="997" type="line"/>
      <point x="879" y="997" type="line"/>
      <point x="971" y="1434" type="line"/>
      <point x="1163" y="1434" type="line"/>
      <point x="1069" y="1020" type="line"/>
      <point x="1303" y="1020" type="line"/>
      <point x="1303" y="848" type="line"/>
      <point x="1032" y="848" type="line"/>
      <point x="979" y="586" type="line"/>
      <point x="1221" y="586" type="line"/>
      <point x="1221" y="406" type="line"/>
      <point x="942" y="406" type="line"/>
    </contour>
    <contour>
      <point x="788" y="586" type="line"/>
      <point x="842" y="848" type="line"/>
      <point x="592" y="848" type="line"/>
      <point x="539" y="586" type="line"/>
    </contour>
  </outline>
</glyph>
<glyph name="dollar" format="2">
  <advance width="1130"/>
  <unicode hex="0024"/>
  <outline>
    <contour>
      <point x="666" y="-246" type="line"/>
      <point x="465" y="-246" type="line"/>
      <point x="465" y="-12" type="line"/>
      <point x="309" y="15"/>
      <point x="77" y="212"/>
      <point x="45" y="385" type="qcurve"/>
      <point x="291" y="438" type="line"/>
      <point x="307" y="322"/>
      <point x="470" y="211"/>
      <point x="584" y="211" type="qcurve" smooth="yes"/>
      <point x="819" y="211"/>
      <point x="819" y="403" type="qcurve" smooth="yes"/>
      <point x="819" y="459"/>
      <point x="747" y="539"/>
      <point x="640" y="594"/>
      <point x="545" y="633" type="qcurve" smooth="yes"/>
      <point x="416" y="685"/>
      <point x="254" y="777"/>
      <point x="139" y="936"/>
      <point x="139" y="1055" type="qcurve" smooth="yes"/>
      <point x="139" y="1154"/>
      <point x="227" y="1308"/>
      <point x="374" y="1408"/>
      <point x="465" y="1427" type="qcurve"/>
      <point x="465" y="1659" type="line"/>
      <point x="666" y="1659" type="line"/>
      <point x="666" y="1432" type="line"/>
      <point x="896" y="1395"/>
      <point x="1004" y="1200" type="qcurve"/>
      <point x="799" y="1079" type="line"/>
      <point x="760" y="1149"/>
      <point x="640" y="1214"/>
      <point x="571" y="1214" type="qcurve" smooth="yes"/>
      <point x="491" y="1214"/>
      <point x="391" y="1128"/>
      <point x="391" y="1065" type="qcurve" smooth="yes"/>
      <point x="391" y="1014"/>
      <point x="459" y="941"/>
      <point x="561" y="890"/>
      <point x="652" y="854" type="qcurve" smooth="yes"/>
      <point x="783" y="801"/>
      <point x="951" y="706"/>
      <point x="1071" y="538"/>
      <point x="1071" y="410" type="qcurve" smooth="yes"/>
      <point x="1071" y="289"/>
      <point x="962" y="107"/>
      <point x="780" y="-3"/>
      <point x="666" y="-16" type="qcurve"/>
    </contour>
  </outline>
</glyph>
<glyph name="percent" format="2">
  <advance width="1540"/>
  <unicode hex="0025"/>
  <outline>
    <contour>
      <point x="473" y="-20" type="line"/>
      <point x="262" y="-20" type="line"/>
      <point x="1053" y="1454" type="line"/>
      <point x="1264" y="1454" type="line"/>
    </contour>
    <contour>
      <point x="360" y="768" type="qcurve" smooth="yes"/>
      <point x="257" y="768"/>
      <point x="130" y="874"/>
      <point x="76" y="1027"/>
      <point x="76" y="1102" type="qcurve" smooth="yes"/>
      <point x="76" y="1177"/>
      <point x="129" y="1330"/>
      <point x="253" y="1436"/>
      <point x="354" y="1436" type="qcurve" smooth="yes"/>
      <point x="450" y="1436"/>
      <point x="575" y="1335"/>
      <point x="637" y="1181"/>
      <point x="637" y="1100" type="qcurve" smooth="yes"/>
      <point x="637" y="1042"/>
      <point x="604" y="924"/>
      <point x="537" y="827"/>
      <point x="432" y="768"/>
    </contour>
    <contour>
      <point x="356" y="940" type="qcurve" smooth="yes"/>
      <point x="403" y="940"/>
      <point x="457" y="1037"/>
      <point x="457" y="1102" type="qcurve" smooth="yes"/>
      <point x="457" y="1168"/>
      <point x="403" y="1262"/>
      <point x="354" y="1262" type="qcurve" smooth="yes"/>
      <point x="305" y="1262"/>
      <point x="252" y="1168"/>
      <point x="252" y="1102" type="qcurve" smooth="yes"/>
      <point x="252" y="1035"/>
      <point x="306" y="940"/>
    </contour>
    <contour>
      <point x="1188" y="-10" type="qcurve" smooth="yes"/>
      <point x="1086" y="-10"/>
      <point x="958" y="98"/>
      <point x="903" y="253"/>
      <point x="903" y="328" type="qcurve" smooth="yes"/>
      <point x="903" y="404"/>
      <point x="956" y="560"/>
      <point x="1081" y="668"/>
      <point x="1182" y="668" type="qcurve" smooth="yes"/>
      <point x="1278" y="668"/>
      <point x="1403" y="566"/>
      <point x="1464" y="410"/>
      <point x="1464" y="328" type="qcurve" smooth="yes"/>
      <point x="1464" y="269"/>
      <point x="1431" y="149"/>
      <point x="1364" y="50"/>
      <point x="1259" y="-10"/>
    </contour>
    <contour>
      <point x="1186" y="162" type="qcurve" smooth="yes"/>
      <point x="1231" y="162"/>
      <point x="1284" y="263"/>
      <point x="1284" y="330" type="qcurve" smooth="yes"/>
      <point x="1284" y="398"/>
      <point x="1230" y="494"/>
      <point x="1182" y="494" type="qcurve" smooth="yes"/>
      <point x="1133" y="494"/>
      <point x="1079" y="397"/>
      <point x="1079" y="328" type="qcurve" smooth="yes"/>
      <point x="1079" y="259"/>
      <point x="1134" y="162"/>
    </contour>
  </outline>
</glyph>
<glyph name="ampersand" format="2">
  <advance width="1382"/>
  <unicode hex="0026"/>
  <outline>
    <contour>
      <point x="1155" y="-76" type="line"/>
      <point x="969" y="137" type="line"/>
      <point x="885" y="63"/>
      <point x="670" y="-23"/>
      <point x="543" y="-23" type="qcurve" smooth="yes"/>
      <point x="420" y="-23"/>
      <point x="209" y="55"/>
      <point x="80" y="212"/>
      <point x="80" y="330" type="qcurve" smooth="yes"/>
      <point x="80" y="431"/>
      <point x="167" y="586"/>
      <point x="307" y="706"/>
      <point x="407" y="765" type="qcurve"/>
      <point x="240" y="932"/>
      <point x="240" y="1098" type="qcurve" smooth="yes"/>
      <point x="240" y="1202"/>
      <point x="356" y="1351"/>
      <point x="535" y="1430"/>
      <point x="631" y="1430" type="qcurve" smooth="yes"/>
      <point x="735" y="1430"/>
      <point x="905" y="1341"/>
      <point x="1006" y="1191"/>
      <point x="1006" y="1100" type="qcurve" smooth="yes"/>
      <point x="1006" y="982"/>
      <point x="871" y="805"/>
      <point x="751" y="724" type="qcurve"/>
      <point x="951" y="500" type="line"/>
      <point x="985" y="596"/>
      <point x="985" y="696" type="qcurve"/>
      <point x="1223" y="672" type="line"/>
      <point x="1213" y="479"/>
      <point x="1117" y="314" type="qcurve"/>
      <point x="1327" y="78" type="line"/>
    </contour>
    <contour>
      <point x="594" y="873" type="qcurve"/>
      <point x="686" y="928"/>
      <point x="780" y="1034"/>
      <point x="780" y="1096" type="qcurve" smooth="yes"/>
      <point x="780" y="1153"/>
      <point x="705" y="1239"/>
      <point x="633" y="1239" type="qcurve" smooth="yes"/>
      <point x="570" y="1239"/>
      <point x="475" y="1165"/>
      <point x="475" y="1094" type="qcurve" smooth="yes"/>
      <point x="475" y="1011"/>
    </contour>
    <contour>
      <point x="537" y="184" type="qcurve" smooth="yes"/>
      <point x="706" y="184"/>
      <point x="826" y="301" type="qcurve"/>
      <point x="559" y="606" type="line"/>
      <point x="438" y="533"/>
      <point x="315" y="405"/>
      <point x="315" y="326" type="qcurve" smooth="yes"/>
      <point x="315" y="254"/>
      <point x="440" y="184"/>
    </contour>
  </outline>
</glyph>
<glyph name="parenleft" format="2">
  <advance width="573"/>
  <unicode hex="0028"/>
  <outline>
    <contour>
      <point x="559" y="-125" type="qcurve"/>
      <point x="346" y="-125" type="line"/>
      <point x="229" y="4"/>
      <point x="100" y="479"/>
      <point x="100" y="707" type="qcurve" smooth="yes"/>
      <point x="100" y="998"/>
      <point x="232" y="1412"/>
      <point x="342" y="1534" type="qcurve"/>
      <point x="561" y="1534" type="line"/>
      <point x="428" y="1373"/>
      <point x="293" y="963"/>
      <point x="293" y="702" type="qcurve" smooth="yes"/>
      <point x="293" y="438"/>
      <point x="416" y="59"/>
    </contour>
  </outline>
</glyph>
<glyph name="parenright" format="2">
  <advance width="573"/>
  <unicode hex="0029"/>
  <outline>
    <contour>
      <point x="227" y="-125" type="qcurve"/>
      <point x="14" y="-125" type="line"/>
      <point x="159" y="62"/>
      <point x="281" y="441"/>
      <point x="281" y="702" type="qcurve" smooth="yes"/>
      <point x="281" y="961"/>
      <point x="146" y="1371"/>
      <point x="12" y="1534" type="qcurve"/>
      <point x="231" y="1534" type="line"/>
      <point x="341" y="1414"/>
      <point x="473" y="1001"/>
      <point x="473" y="707" type="qcurve" smooth="yes"/>
      <point x="473" y="479"/>
      <point x="344" y="4"/>
    </contour>
  </outline>
</glyph>
<glyph name="asterisk" format="2">
  <advance width="901"/>
  <unicode hex="002A"/>
  <outline>
    <contour>
      <point x="561" y="834" type="line"/>
      <point x="451" y="1042" type="line"/>
      <point x="340" y="834" type="line"/>
      <point x="182" y="936" type="line"/>
      <point x="340" y="1096" type="line"/>
      <point x="113" y="1126" type="line"/>
      <point x="174" y="1294" type="line"/>
      <point x="383" y="1212" type="line"/>
      <point x="354" y="1413" type="line"/>
      <point x="549" y="1413" type="line"/>
      <point x="520" y="1212" type="line"/>
      <point x="729" y="1294" type="line"/>
      <point x="788" y="1126" type="line"/>
      <point x="561" y="1096" type="line"/>
      <point x="719" y="936" type="line"/>
    </contour>
  </outline>
</glyph>
<glyph name="comma" format="2">
  <advance width="633"/>
  <unicode hex="002C"/>
  <outline>
    <contour>
      <point x="280" y="-304" type="line"/>
      <point x="118" y="-304" type="line"/>
      <point x="254" y="264" type="line"/>
      <point x="535" y="264" type="line"/>
    </contour>
  </outline>
</glyph>
<glyph name="hyphen" format="2">
  <advance width="866"/>
  <unicode hex="002D"/>
  <outline>
    <contour>
      <point x="725" y="508" type="line"/>
      <point x="141" y="508" type="line"/>
      <point x="141" y="692" type="line"/>
      <point x="725" y="692" type="line"/>
    </contour>
  </outline>
</glyph>
<glyph name="slash" format="2">
  <advance width="934"/>
  <unicode hex="002F"/>
  <outline>
    <contour>
      <point x="190" y="-430" type="line"/>
      <point x="-37" y="-430" type="line"/>
      <point x="743" y="1516" type="line"/>
      <point x="971" y="1516" type="line"/>
    </contour>
  </outline>
</glyph>
<glyph name="three" format="2">
  <advance width="1200"/>
  <unicode hex="0033"/>
  <outline>
    <contour>
      <point x="584" y="-20" type="qcurve" smooth="yes"/>
      <point x="445" y="-20"/>
      <point x="204" y="80"/>
      <point x="128" y="190" type="qcurve" smooth="yes"/>
      <point x="57" y="295"/>
      <point x="57" y="446" type="qcurve"/>
      <point x="299" y="461" type="line"/>
      <point x="299" y="382"/>
      <point x="374" y="271"/>
      <point x="504" y="213"/>
      <point x="586" y="213" type="qcurve" smooth="yes"/>
      <point x="659" y="213"/>
      <point x="786" y="261"/>
      <point x="864" y="360"/>
      <point x="864" y="436" type="qcurve" smooth="yes"/>
      <point x="864" y="532"/>
      <point x="735" y="643"/>
      <point x="620" y="643" type="qcurve" smooth="yes"/>
      <point x="457" y="643" type="line"/>
      <point x="457" y="856" type="line"/>
      <point x="620" y="856" type="line" smooth="yes"/>
      <point x="707" y="856"/>
      <point x="786" y="949"/>
      <point x="786" y="1018" type="qcurve" smooth="yes"/>
      <point x="786" y="1079"/>
      <point x="732" y="1159"/>
      <point x="640" y="1198"/>
      <point x="582" y="1198" type="qcurve" smooth="yes"/>
      <point x="488" y="1198"/>
      <point x="368" y="1094"/>
      <point x="364" y="997" type="qcurve"/>
      <point x="125" y="1014" type="line"/>
      <point x="125" y="1148"/>
      <point x="250" y="1336"/>
      <point x="456" y="1434"/>
      <point x="577" y="1434" type="qcurve" smooth="yes"/>
      <point x="692" y="1434"/>
      <point x="899" y="1344"/>
      <point x="1030" y="1171"/>
      <point x="1030" y="1049" type="qcurve" smooth="yes"/>
      <point x="1030" y="963"/>
      <point x="964" y="819"/>
      <point x="907" y="768" type="qcurve"/>
      <point x="1009" y="710"/>
      <point x="1104" y="531"/>
      <point x="1106" y="422" type="qcurve"/>
      <point x="1106" y="312"/>
      <point x="1022" y="146"/>
      <point x="877" y="35"/>
      <point x="688" y="-20"/>
    </contour>
  </outline>
</glyph>
<glyph name="five" format="2">
  <advance width="1200"/>
  <unicode hex="0035"/>
  <outline>
    <contour>
      <point x="592" y="-20" type="qcurve" smooth="yes"/>
      <point x="460" y="-20"/>
      <point x="248" y="99"/>
      <point x="108" y="293"/>
      <point x="82" y="410" type="qcurve"/>
      <point x="317" y="475" type="line"/>
      <point x="341" y="362"/>
      <point x="474" y="209"/>
      <point x="592" y="209" type="qcurve" smooth="yes"/>
      <point x="671" y="209"/>
      <point x="787" y="290"/>
      <point x="852" y="416"/>
      <point x="852" y="483" type="qcurve" smooth="yes"/>
      <point x="852" y="553"/>
      <point x="791" y="671"/>
      <point x="675" y="743"/>
      <point x="592" y="743" type="qcurve" smooth="yes"/>
      <point x="525" y="743"/>
      <point x="393" y="675"/>
      <point x="352" y="612" type="qcurve"/>
      <point x="123" y="670" type="line"/>
      <point x="260" y="1413" type="line"/>
      <point x="1047" y="1413" type="line"/>
      <point x="1047" y="1180" type="line"/>
      <point x="461" y="1180" type="line"/>
      <point x="410" y="915" type="line"/>
      <point x="515" y="971"/>
      <point x="629" y="971" type="qcurve" smooth="yes"/>
      <point x="765" y="971"/>
      <point x="982" y="835"/>
      <point x="1110" y="613"/>
      <point x="1110" y="481" type="qcurve" smooth="yes"/>
      <point x="1110" y="343"/>
      <point x="966" y="116"/>
      <point x="731" y="-20"/>
    </contour>
  </outline>
</glyph>
<glyph name="colon" format="2">
  <advance width="676"/>
  <unicode hex="003A"/>
  <outline>
    <contour>
      <point x="471" y="690" type="line"/>
      <point x="205" y="690" type="line"/>
      <point x="205" y="954" type="line"/>
      <point x="471" y="954" type="line"/>
    </contour>
    <contour>
      <point x="471" y="0" type="line"/>
      <point x="205" y="0" type="line"/>
      <point x="205" y="264" type="line"/>
      <point x="471" y="264" type="line"/>
    </contour>
  </outline>
</glyph>
<glyph name="at" format="2">
  <advance width="2015"/>
  <unicode hex="0040"/>
  <outline>
    <contour>
      <point x="999" y="-348" type="qcurve" smooth="yes"/>
      <point x="762" y="-348"/>
      <point x="350" y="-143"/>
      <point x="221" y="63" type="qcurve"/>
      <point x="100" y="260"/>
      <point x="100" y="520" type="qcurve" smooth="yes"/>
      <point x="100" y="765"/>
      <point x="322" y="1182"/>
      <point x="539" y="1311" type="qcurve"/>
      <point x="748" y="1432"/>
      <point x="1016" y="1432" type="qcurve" smooth="yes"/>
      <point x="1287" y="1432"/>
      <point x="1492" y="1311" type="qcurve"/>
      <point x="1707" y="1180"/>
      <point x="1919" y="772"/>
      <point x="1919" y="545" type="qcurve" smooth="yes"/>
      <point x="1919" y="391"/>
      <point x="1818" y="107"/>
      <point x="1709" y="12" type="qcurve"/>
      <point x="1604" y="-76"/>
      <point x="1454" y="-76" type="qcurve" smooth="yes"/>
      <point x="1322" y="-76"/>
      <point x="1184" y="53"/>
      <point x="1174" y="160" type="qcurve"/>
      <point x="1109" y="101"/>
      <point x="956" y="43"/>
      <point x="881" y="43" type="qcurve" smooth="yes"/>
      <point x="768" y="43"/>
      <point x="619" y="154"/>
      <point x="545" y="337"/>
      <point x="545" y="444" type="qcurve" smooth="yes"/>
      <point x="545" y="578"/>
      <point x="658" y="864"/>
      <point x="774" y="967" type="qcurve"/>
      <point x="884" y="1061"/>
      <point x="1030" y="1061" type="qcurve" smooth="yes"/>
      <point x="1124" y="1061"/>
      <point x="1255" y="986"/>
      <point x="1290" y="926" type="qcurve"/>
      <point x="1309" y="1012" type="line"/>
      <point x="1505" y="1012" type="line"/>
      <point x="1483" y="902"/>
      <point x="1445" y="744" type="qcurve" smooth="yes"/>
      <point x="1404" y="574"/>
      <point x="1378" y="444" type="qcurve" smooth="yes"/>
      <point x="1354" y="323"/>
      <point x="1354" y="236" type="qcurve" smooth="yes"/>
      <point x="1354" y="171"/>
      <point x="1395" y="123"/>
      <point x="1448" y="123" type="qcurve" smooth="yes"/>
      <point x="1545" y="123"/>
      <point x="1608" y="186" type="qcurve" smooth="yes"/>
      <point x="1673" y="253"/>
      <point x="1729" y="447"/>
      <point x="1729" y="549" type="qcurve" smooth="yes"/>
      <point x="1729" y="726"/>
      <point x="1564" y="1046"/>
      <point x="1395" y="1149" type="qcurve"/>
      <point x="1233" y="1245"/>
      <point x="1018" y="1245" type="qcurve" smooth="yes"/>
      <point x="847" y="1245"/>
      <point x="578" y="1130"/>
      <point x="390" y="931"/>
      <point x="291" y="670"/>
      <point x="291" y="524" type="qcurve" smooth="yes"/>
      <point x="291" y="362"/>
      <point x="404" y="111"/>
      <point x="601" y="-62"/>
      <point x="858" y="-152"/>
      <point x="1001" y="-152" type="qcurve" smooth="yes"/>
      <point x="1128" y="-152"/>
      <point x="1243" y="-113" type="qcurve"/>
      <point x="1311" y="-295" type="line"/>
      <point x="1171" y="-348"/>
    </contour>
    <contour>
      <point x="897" y="238" type="qcurve" smooth="yes"/>
      <point x="976" y="238"/>
      <point x="1098" y="317"/>
      <point x="1182" y="446"/>
      <point x="1225" y="598"/>
      <point x="1225" y="672" type="qcurve" smooth="yes"/>
      <point x="1225" y="866"/>
      <point x="1059" y="866" type="qcurve" smooth="yes"/>
      <point x="979" y="866"/>
      <point x="856" y="787"/>
      <point x="772" y="660"/>
      <point x="729" y="509"/>
      <point x="729" y="436" type="qcurve" smooth="yes"/>
      <point x="729" y="238"/>
    </contour>
  </outline>
</glyph>
<glyph name="E" format="2">
  <advance width="1245"/>
  <unicode hex="0045"/>
  <outline>
    <contour>
      <point x="1122" y="0" type="line"/>
      <point x="182" y="0" type="line"/>
      <point x="182" y="1413" type="line"/>
      <point x="1122" y="1413" type="line"/>
      <point x="1122" y="1180" type="line"/>
      <point x="436" y="1180" type="line"/>
      <point x="436" y="823" type="line"/>
      <point x="1075" y="823" type="line"/>
      <point x="1075" y="590" type="line"/>
      <point x="436" y="590" type="line"/>
      <point x="436" y="240" type="line"/>
      <point x="1122" y="240" type="line"/>
    </contour>
  </outline>
</glyph>
<glyph name="J" format="2">
  <advance width="1139"/>
  <unicode hex="004A"/>
  <outline>
    <contour>
      <point x="508" y="-20" type="qcurve" smooth="yes"/>
      <point x="363" y="-20"/>
      <point x="156" y="106"/>
      <point x="40" y="314"/>
      <point x="31" y="440" type="qcurve"/>
      <point x="281" y="469" type="line"/>
      <point x="289" y="356"/>
      <point x="401" y="215"/>
      <point x="508" y="215" type="qcurve" smooth="yes"/>
      <point x="635" y="215"/>
      <point x="731" y="354"/>
      <point x="731" y="506" type="qcurve" smooth="yes"/>
      <point x="731" y="1180" type="line"/>
      <point x="199" y="1180" type="line"/>
      <point x="199" y="1413" type="line"/>
      <point x="985" y="1413" type="line"/>
      <point x="985" y="510" type="line" smooth="yes"/>
      <point x="985" y="268"/>
      <point x="754" y="-20"/>
    </contour>
  </outline>
</glyph>
<glyph name="K" format="2">
  <advance width="1491"/>
  <unicode hex="004B"/>
  <outline>
    <contour>
      <point x="1475" y="0" type="line"/>
      <point x="1159" y="0" type="line"/>
      <point x="723" y="664" type="line"/>
      <point x="436" y="367" type="line"/>
      <point x="436" y="0" type="line"/>
      <point x="182" y="0" type="line"/>
      <point x="182" y="1413" type="line"/>
      <point x="436" y="1413" type="line"/>
      <point x="436" y="676" type="line"/>
      <point x="1124" y="1413" type="line"/>
      <point x="1464" y="1413" type="line"/>
      <point x="899" y="834" type="line"/>
    </contour>
  </outline>
</glyph>
<glyph name="N" format="2">
  <advance width="1454"/>
  <unicode hex="004E"/>
  <outline>
    <contour>
      <point x="1272" y="0" type="line"/>
      <point x="1018" y="0" type="line"/>
      <point x="426" y="991" type="line"/>
      <point x="426" y="0" type="line"/>
      <point x="182" y="0" type="line"/>
      <point x="182" y="1413" type="line"/>
      <point x="434" y="1413" type="line"/>
      <point x="1028" y="424" type="line"/>
      <point x="1028" y="1413" type="line"/>
      <point x="1272" y="1413" type="line"/>
    </contour>
  </outline>
</glyph>
<glyph name="O" format="2">
  <advance width="1528"/>
  <unicode hex="004F"/>
  <outline>
    <contour>
      <point x="764" y="-20" type="qcurve" smooth="yes"/>
      <point x="540" y="-20"/>
      <point x="387" y="79" type="qcurve" smooth="yes"/>
      <point x="279" y="148"/>
      <point x="145" y="344"/>
      <point x="82" y="580"/>
      <point x="82" y="707" type="qcurve" smooth="yes"/>
      <point x="82" y="834"/>
      <point x="145" y="1070"/>
      <point x="279" y="1266"/>
      <point x="387" y="1336" type="qcurve" smooth="yes"/>
      <point x="540" y="1434"/>
      <point x="764" y="1434" type="qcurve" smooth="yes"/>
      <point x="988" y="1434"/>
      <point x="1142" y="1336" type="qcurve"/>
      <point x="1249" y="1266"/>
      <point x="1383" y="1070"/>
      <point x="1446" y="834"/>
      <point x="1446" y="707" type="qcurve" smooth="yes"/>
      <point x="1446" y="580"/>
      <point x="1383" y="344"/>
      <point x="1249" y="148"/>
      <point x="1142" y="79" type="qcurve" smooth="yes"/>
      <point x="988" y="-20"/>
    </contour>
    <contour>
      <point x="764" y="205" type="qcurve" smooth="yes"/>
      <point x="909" y="205"/>
      <point x="1002" y="273" type="qcurve"/>
      <point x="1178" y="405"/>
      <point x="1178" y="707" type="qcurve" smooth="yes"/>
      <point x="1178" y="928"/>
      <point x="1083" y="1060" type="qcurve" smooth="yes"/>
      <point x="977" y="1208"/>
      <point x="764" y="1208" type="qcurve" smooth="yes"/>
      <point x="619" y="1208"/>
      <point x="527" y="1141" type="qcurve"/>
      <point x="350" y="1008"/>
      <point x="350" y="707" type="qcurve" smooth="yes"/>
      <point x="350" y="568"/>
      <point x="434" y="340"/>
      <point x="616" y="205"/>
    </contour>
  </outline>
</glyph>
<glyph name="P" format="2">
  <advance width="1167"/>
  <unicode hex="0050"/>
  <outline>
    <contour>
      <point x="434" y="0" type="line"/>
      <point x="182" y="0" type="line"/>
      <point x="182" y="1413" type="line"/>
      <point x="625" y="1413" type="line" smooth="yes"/>
      <point x="764" y="1413"/>
      <point x="990" y="1318"/>
      <point x="1124" y="1132"/>
      <point x="1124" y="995" type="qcurve" smooth="yes"/>
      <point x="1124" y="863"/>
      <point x="994" y="680"/>
      <point x="768" y="586"/>
      <point x="625" y="586" type="qcurve" smooth="yes"/>
      <point x="434" y="586" type="line"/>
    </contour>
    <contour>
      <point x="625" y="823" type="line" smooth="yes"/>
      <point x="747" y="823"/>
      <point x="872" y="905"/>
      <point x="872" y="995" type="qcurve" smooth="yes"/>
      <point x="872" y="1176"/>
      <point x="625" y="1176" type="qcurve" smooth="yes"/>
      <point x="434" y="1176" type="line"/>
      <point x="434" y="823" type="line"/>
    </contour>
  </outline>
</glyph>
<glyph name="R" format="2">
  <advance width="1268"/>
  <unicode hex="0052"/>
  <outline>
    <contour>
      <point x="1245" y="-2" type="line"/>
      <point x="954" y="-2" type="line"/>
      <point x="606" y="604" type="line"/>
      <point x="436" y="604" type="line"/>
      <point x="436" y="-2" type="line"/>
      <point x="182" y="-2" type="line"/>
      <point x="182" y="1413" type="line"/>
      <point x="639" y="1413" type="line" smooth="yes"/>
      <point x="767" y="1413"/>
      <point x="991" y="1318"/>
      <point x="1062" y="1220" type="qcurve"/>
      <point x="1128" y="1125"/>
      <point x="1128" y="997" type="qcurve" smooth="yes"/>
      <point x="1128" y="907"/>
      <point x="1056" y="761"/>
      <point x="932" y="657"/>
      <point x="852" y="629" type="qcurve"/>
    </contour>
    <contour>
      <point x="662" y="811" type="line"/>
      <point x="767" y="816"/>
      <point x="877" y="915"/>
      <point x="877" y="993" type="qcurve" smooth="yes"/>
      <point x="877" y="1082"/>
      <point x="749" y="1186"/>
      <point x="641" y="1186" type="qcurve" smooth="yes"/>
      <point x="438" y="1186" type="line"/>
      <point x="438" y="811" type="line"/>
    </contour>
  </outline>
</glyph>
<glyph name="S" format="2">
  <advance width="1137"/>
  <unicode hex="0053"/>
  <outline>
    <contour>
      <point x="586" y="-16" type="qcurve" smooth="yes"/>
      <point x="464" y="-16"/>
      <point x="233" y="73"/>
      <point x="70" y="257"/>
      <point x="45" y="399" type="qcurve"/>
      <point x="297" y="463" type="line"/>
      <point x="313" y="332"/>
      <point x="476" y="209"/>
      <point x="590" y="209" type="qcurve" smooth="yes"/>
      <point x="704" y="209"/>
      <point x="823" y="314"/>
      <point x="823" y="389" type="qcurve" smooth="yes"/>
      <point x="823" y="450"/>
      <point x="786" y="493" type="qcurve" smooth="yes"/>
      <point x="751" y="532"/>
      <point x="638" y="592"/>
      <point x="538" y="631" type="qcurve" smooth="yes"/>
      <point x="410" y="682"/>
      <point x="252" y="769"/>
      <point x="139" y="925"/>
      <point x="139" y="1044" type="qcurve" smooth="yes"/>
      <point x="139" y="1170"/>
      <point x="261" y="1344"/>
      <point x="461" y="1434"/>
      <point x="580" y="1434" type="qcurve" smooth="yes"/>
      <point x="709" y="1434"/>
      <point x="935" y="1316"/>
      <point x="1010" y="1186" type="qcurve"/>
      <point x="799" y="1057" type="line"/>
      <point x="760" y="1131"/>
      <point x="640" y="1208"/>
      <point x="571" y="1208" type="qcurve" smooth="yes"/>
      <point x="498" y="1208"/>
      <point x="393" y="1126"/>
      <point x="393" y="1057" type="qcurve" smooth="yes"/>
      <point x="393" y="1002"/>
      <point x="463" y="926"/>
      <point x="570" y="875"/>
      <point x="663" y="839" type="qcurve" smooth="yes"/>
      <point x="795" y="788"/>
      <point x="959" y="698"/>
      <point x="1077" y="536"/>
      <point x="1077" y="412" type="qcurve" smooth="yes"/>
      <point x="1077" y="277"/>
      <point x="943" y="86"/>
      <point x="720" y="-16"/>
    </contour>
  </outline>
</glyph>
<glyph name="T" format="2">
  <advance width="1180"/>
  <unicode hex="0054"/>
  <outline>
    <contour>
      <point x="717" y="0" type="line"/>
      <point x="463" y="0" type="line"/>
      <point x="463" y="1186" type="line"/>
      <point x="20" y="1186" type="line"/>
      <point x="20" y="1413" type="line"/>
      <point x="1159" y="1413" type="line"/>
      <point x="1159" y="1186" type="line"/>
      <point x="717" y="1186" type="line"/>
    </contour>
  </outline>
</glyph>
<glyph name="U" format="2">
  <advance width="1380"/>
  <unicode hex="0055"/>
  <outline>
    <contour>
      <point x="690" y="-20" type="qcurve" smooth="yes"/>
      <point x="415" y="-20"/>
      <point x="150" y="281"/>
      <point x="150" y="551" type="qcurve" smooth="yes"/>
      <point x="150" y="1413" type="line"/>
      <point x="403" y="1413" type="line"/>
      <point x="403" y="580" type="line" smooth="yes"/>
      <point x="403" y="454"/>
      <point x="457" y="303"/>
      <point x="517" y="266" type="qcurve"/>
      <point x="579" y="225"/>
      <point x="690" y="225" type="qcurve" smooth="yes"/>
      <point x="798" y="225"/>
      <point x="923" y="300"/>
      <point x="977" y="457"/>
      <point x="977" y="580" type="qcurve" smooth="yes"/>
      <point x="977" y="1413" type="line"/>
      <point x="1231" y="1413" type="line"/>
      <point x="1231" y="561" type="line" smooth="yes"/>
      <point x="1231" y="284"/>
      <point x="966" y="-20"/>
    </contour>
  </outline>
</glyph>
<glyph name="W" format="2">
  <advance width="2003"/>
  <unicode hex="0057"/>
  <outline>
    <contour>
      <point x="1554" y="0" type="line"/>
      <point x="1309" y="0" type="line"/>
      <point x="1001" y="1012" type="line"/>
      <point x="694" y="0" type="line"/>
      <point x="449" y="0" type="line"/>
      <point x="25" y="1413" type="line"/>
      <point x="289" y="1413" type="line"/>
      <point x="590" y="373" type="line"/>
      <point x="903" y="1413" type="line"/>
      <point x="1100" y="1413" type="line"/>
      <point x="1413" y="373" type="line"/>
      <point x="1714" y="1413" type="line"/>
      <point x="1978" y="1413" type="line"/>
    </contour>
  </outline>
</glyph>
<glyph name="Z" format="2">
  <advance width="1272"/>
  <unicode hex="005A"/>
  <outline>
    <contour>
      <point x="1198" y="0" type="line"/>
      <point x="59" y="0" type="line"/>
      <point x="59" y="176" type="line"/>
      <point x="848" y="1180" type="line"/>
      <point x="104" y="1180" type="line"/>
      <point x="104" y="1413" type="line"/>
      <point x="1198" y="1413" type="line"/>
      <point x="1198" y="1229" type="line"/>
      <point x="414" y="229" type="line"/>
      <point x="1198" y="229" type="line"/>
    </contour>
  </outline>
</glyph>
<glyph name="backslash" format="2">
  <advance width="934"/>
  <unicode hex="005C"/>
  <outline>
    <contour>
      <point x="971" y="-430" type="line"/>
      <point x="743" y="-430" type="line"/>
      <point x="-37" y="1516" type="line"/>
      <point x="190" y="1516" type="line"/>
    </contour>
  </outline>
</glyph>
<glyph name="asciicircum" format="2">
  <advance width="981"/>
  <unicode hex="005E"/>
  <outline>
    <contour>
      <point x="918" y="805" type="line"/>
      <point x="676" y="805" type="line"/>
      <point x="489" y="1106" type="line"/>
      <point x="305" y="805" type="line"/>
      <point x="63" y="805" type="line"/>
      <point x="489" y="1497" type="line"/>
    </contour>
  </outline>
</glyph>
<glyph name="c" format="2">
  <advance width="1004"/>
  <unicode hex="0063"/>
  <outline>
    <contour>
      <point x="541" y="-20" type="qcurve" smooth="yes"/>
      <point x="420" y="-20"/>
      <point x="238" y="65"/>
      <point x="117" y="211"/>
      <point x="57" y="397"/>
      <point x="57" y="498" type="qcurve" smooth="yes"/>
      <point x="57" y="628"/>
      <point x="161" y="865"/>
      <point x="274" y="944" type="qcurve"/>
      <point x="383" y="1016"/>
      <point x="539" y="1016" type="qcurve" smooth="yes"/>
      <point x="693" y="1016"/>
      <point x="915" y="856"/>
      <point x="971" y="725" type="qcurve"/>
      <point x="739" y="635" type="line"/>
      <point x="718" y="710"/>
      <point x="611" y="786"/>
      <point x="539" y="786" type="qcurve" smooth="yes"/>
      <point x="458" y="786"/>
      <point x="354" y="707"/>
      <point x="305" y="576"/>
      <point x="305" y="498" type="qcurve" smooth="yes"/>
      <point x="305" y="373"/>
      <point x="419" y="209"/>
      <point x="539" y="209" type="qcurve" smooth="yes"/>
      <point x="614" y="209"/>
      <point x="719" y="290"/>
      <point x="739" y="360" type="qcurve"/>
      <point x="961" y="276" type="line"/>
      <point x="909" y="133"/>
      <point x="687" y="-20"/>
    </contour>
  </outline>
</glyph>
<glyph name="d" format="2">
  <advance width="1171"/>
  <unicode hex="0064"/>
  <outline>
    <contour>
      <point x="496" y="-20" type="qcurve" smooth="yes"/>
      <point x="355" y="-20"/>
      <point x="162" y="124"/>
      <point x="63" y="360"/>
      <point x="63" y="500" type="qcurve" smooth="yes"/>
      <point x="63" y="635"/>
      <point x="160" y="873"/>
      <point x="261" y="949" type="qcurve"/>
      <point x="358" y="1020"/>
      <point x="492" y="1020" type="qcurve" smooth="yes"/>
      <point x="572" y="1020"/>
      <point x="723" y="962"/>
      <point x="776" y="899" type="qcurve"/>
      <point x="776" y="1413" type="line"/>
      <point x="1024" y="1413" type="line"/>
      <point x="1024" y="0" type="line"/>
      <point x="797" y="0" type="line"/>
      <point x="786" y="112" type="line"/>
      <point x="733" y="42"/>
      <point x="580" y="-20"/>
    </contour>
    <contour>
      <point x="555" y="205" type="qcurve" smooth="yes"/>
      <point x="640" y="205"/>
      <point x="746" y="281"/>
      <point x="797" y="415"/>
      <point x="797" y="500" type="qcurve" smooth="yes"/>
      <point x="797" y="634"/>
      <point x="675" y="799"/>
      <point x="555" y="799" type="qcurve" smooth="yes"/>
      <point x="435" y="799"/>
      <point x="311" y="632"/>
      <point x="311" y="500" type="qcurve" smooth="yes"/>
      <point x="311" y="415"/>
      <point x="363" y="282"/>
      <point x="470" y="205"/>
    </contour>
  </outline>
</glyph>
<glyph name="e" format="2">
  <advance width="1067"/>
  <unicode hex="0065"/>
  <outline>
    <contour>
      <point x="555" y="-12" type="qcurve" smooth="yes"/>
      <point x="431" y="-12"/>
      <point x="243" y="69"/>
      <point x="118" y="210"/>
      <point x="55" y="393"/>
      <point x="55" y="494" type="qcurve" smooth="yes"/>
      <point x="55" y="624"/>
      <point x="159" y="861"/>
      <point x="272" y="940" type="qcurve"/>
      <point x="381" y="1012"/>
      <point x="537" y="1012" type="qcurve" smooth="yes"/>
      <point x="709" y="1012"/>
      <point x="919" y="868"/>
      <point x="1008" y="637"/>
      <point x="1008" y="496" type="qcurve" smooth="yes"/>
      <point x="1008" y="445"/>
      <point x="999" y="420" type="qcurve"/>
      <point x="313" y="420" type="line"/>
      <point x="325" y="327"/>
      <point x="442" y="215"/>
      <point x="553" y="215" type="qcurve" smooth="yes"/>
      <point x="642" y="215"/>
      <point x="755" y="257"/>
      <point x="803" y="307" type="qcurve"/>
      <point x="971" y="160" type="line"/>
      <point x="890" y="73"/>
      <point x="687" y="-12"/>
    </contour>
    <contour>
      <point x="768" y="596" type="line"/>
      <point x="742" y="807"/>
      <point x="537" y="807" type="qcurve" smooth="yes"/>
      <point x="436" y="807"/>
      <point x="329" y="691"/>
      <point x="313" y="596" type="qcurve"/>
    </contour>
  </outline>
</glyph>
<glyph name="f" format="2">
  <advance width="688"/>
  <unicode hex="0066"/>
  <outline>
    <contour>
      <point x="455" y="0" type="line"/>
      <point x="203" y="0" type="line"/>
      <point x="203" y="795" type="line"/>
      <point x="20" y="795" type="line"/>
      <point x="20" y="997" type="line"/>
      <point x="205" y="997" type="line"/>
      <point x="205" y="1133" type="line" smooth="yes"/>
      <point x="205" y="1230"/>
      <point x="294" y="1365"/>
      <point x="440" y="1434"/>
      <point x="524" y="1434" type="qcurve" smooth="yes"/>
      <point x="613" y="1434"/>
      <point x="705" y="1393" type="qcurve"/>
      <point x="625" y="1192" type="line"/>
      <point x="584" y="1217"/>
      <point x="547" y="1217" type="qcurve" smooth="yes"/>
      <point x="509" y="1217"/>
      <point x="455" y="1166"/>
      <point x="455" y="1108" type="qcurve" smooth="yes"/>
      <point x="455" y="999" type="line"/>
      <point x="688" y="999" type="line"/>
      <point x="688" y="795" type="line"/>
      <point x="455" y="795" type="line"/>
    </contour>
  </outline>
</glyph>
<glyph name="l" format="2">
  <advance width="573"/>
  <unicode hex="006C"/>
  <outline>
    <contour>
      <point x="354" y="-20" type="qcurve" smooth="yes"/>
      <point x="252" y="-20"/>
      <point x="139" y="74"/>
      <point x="139" y="199" type="qcurve" smooth="yes"/>
      <point x="139" y="1413" type="line"/>
      <point x="383" y="1413" type="line"/>
      <point x="383" y="266" type="line" smooth="yes"/>
      <point x="383" y="199"/>
      <point x="467" y="199" type="qcurve" smooth="yes"/>
      <point x="491" y="199"/>
      <point x="530" y="205" type="qcurve"/>
      <point x="530" y="0" type="line"/>
      <point x="428" y="-20"/>
    </contour>
  </outline>
</glyph>
<glyph name="n" format="2">
  <advance width="1167"/>
  <unicode hex="006E"/>
  <outline>
    <contour>
      <point x="1051" y="0" type="line"/>
      <point x="803" y="0" type="line"/>
      <point x="803" y="569" type="line" smooth="yes"/>
      <point x="803" y="672"/>
      <point x="732" y="788"/>
      <point x="643" y="788" type="qcurve" smooth="yes"/>
      <point x="572" y="788"/>
      <point x="459" y="718"/>
      <point x="393" y="607"/>
      <point x="393" y="547" type="qcurve" smooth="yes"/>
      <point x="393" y="0" type="line"/>
      <point x="145" y="0" type="line"/>
      <point x="145" y="999" type="line"/>
      <point x="393" y="999" type="line"/>
      <point x="393" y="883" type="line"/>
      <point x="452" y="954"/>
      <point x="605" y="1016"/>
      <point x="682" y="1016" type="qcurve" smooth="yes"/>
      <point x="810" y="1016"/>
      <point x="973" y="899"/>
      <point x="1051" y="709"/>
      <point x="1051" y="600" type="qcurve" smooth="yes"/>
    </contour>
  </outline>
</glyph>
<glyph name="r" format="2">
  <advance width="815"/>
  <unicode hex="0072"/>
  <outline>
    <contour>
      <point x="381" y="0" type="line"/>
      <point x="145" y="0" type="line"/>
      <point x="145" y="999" type="line"/>
      <point x="383" y="999" type="line"/>
      <point x="383" y="831" type="line"/>
      <point x="415" y="925"/>
      <point x="551" y="1014"/>
      <point x="623" y="1014" type="qcurve" smooth="yes"/>
      <point x="675" y="1014"/>
      <point x="789" y="982"/>
      <point x="834" y="948" type="qcurve"/>
      <point x="723" y="748" type="line"/>
      <point x="689" y="782"/>
      <point x="612" y="782" type="qcurve" smooth="yes"/>
      <point x="542" y="782"/>
      <point x="438" y="695"/>
      <point x="381" y="550"/>
      <point x="381" y="463" type="qcurve" smooth="yes"/>
    </contour>
  </outline>
</glyph>
<glyph name="s" format="2">
  <advance width="915"/>
  <unicode hex="0073"/>
  <outline>
    <contour>
      <point x="438" y="-21" type="qcurve"/>
      <point x="369" y="-19"/>
      <point x="241" y="23"/>
      <point x="135" y="95"/>
      <point x="55" y="193"/>
      <point x="36" y="252" type="qcurve"/>
      <point x="85" y="275"/>
      <point x="180" y="320"/>
      <point x="228" y="343" type="qcurve"/>
      <point x="260" y="263"/>
      <point x="363" y="181"/>
      <point x="449" y="181" type="qcurve"/>
      <point x="480" y="182"/>
      <point x="537" y="200"/>
      <point x="580" y="232"/>
      <point x="605" y="277"/>
      <point x="605" y="305" type="qcurve" smooth="yes"/>
      <point x="605" y="328"/>
      <point x="566" y="364"/>
      <point x="504" y="393"/>
      <point x="427" y="416"/>
      <point x="350" y="436"/>
      <point x="281" y="456"/>
      <point x="258" y="466" type="qcurve"/>
      <point x="101" y="529"/>
      <point x="98" y="702" type="qcurve"/>
      <point x="98" y="763"/>
      <point x="139" y="873"/>
      <point x="226" y="959"/>
      <point x="362" y="1011"/>
      <point x="457" y="1014" type="qcurve"/>
      <point x="463" y="1015"/>
      <point x="476" y="1015"/>
      <point x="482" y="1015" type="qcurve" smooth="yes"/>
      <point x="607" y="1015"/>
      <point x="790" y="906"/>
      <point x="847" y="810" type="qcurve"/>
      <point x="661" y="702" type="line"/>
      <point x="626" y="762"/>
      <point x="529" y="820"/>
      <point x="456" y="820" type="qcurve"/>
      <point x="395" y="818"/>
      <point x="332" y="776"/>
      <point x="332" y="738" type="qcurve" smooth="yes"/>
      <point x="332" y="704"/>
      <point x="379" y="674"/>
      <point x="471" y="648"/>
      <point x="606" y="609"/>
      <point x="695" y="566" type="qcurve" smooth="yes"/>
      <point x="762" y="533"/>
      <point x="845" y="409"/>
      <point x="845" y="310" type="qcurve" smooth="yes"/>
      <point x="845" y="238"/>
      <point x="786" y="118"/>
      <point x="686" y="32"/>
      <point x="553" y="-17"/>
      <point x="478" y="-20" type="qcurve"/>
      <point x="468" y="-20" type="line"/>
      <point x="449" y="-21" type="line"/>
      <point x="444" y="-21"/>
    </contour>
  </outline>
</glyph>
<glyph name="w" format="2">
  <advance width="1466"/>
  <unicode hex="0077"/>
  <outline>
    <contour>
      <point x="537" y="-4" type="line"/>
      <point x="317" y="-4" type="line"/>
      <point x="10" y="999" type="line"/>
      <point x="270" y="999" type="line"/>
      <point x="440" y="373" type="line"/>
      <point x="629" y="999" type="line"/>
      <point x="838" y="999" type="line"/>
      <point x="1026" y="375" type="line"/>
      <point x="1198" y="999" type="line"/>
      <point x="1458" y="999" type="line"/>
      <point x="1149" y="0" type="line"/>
      <point x="930" y="0" type="line"/>
      <point x="733" y="655" type="line"/>
    </contour>
  </outline>
</glyph>
<glyph name="braceleft" format="2">
  <advance width="618"/>
  <unicode hex="007B"/>
  <outline>
    <contour>
      <point x="479" y="-156" type="line"/>
      <point x="408" y="-156" type="line" smooth="yes"/>
      <point x="345" y="-156"/>
      <point x="254" y="-102"/>
      <point x="221" y="-51" type="qcurve" smooth="yes"/>
      <point x="184" y="5"/>
      <point x="184" y="127" type="qcurve" smooth="yes"/>
      <point x="184" y="487" type="line" smooth="yes"/>
      <point x="184" y="540"/>
      <point x="125" y="565" type="qcurve" smooth="yes"/>
      <point x="53" y="594" type="line"/>
      <point x="53" y="754" type="line"/>
      <point x="124" y="778"/>
      <point x="184" y="837"/>
      <point x="184" y="895" type="qcurve" smooth="yes"/>
      <point x="184" y="1321" type="line" smooth="yes"/>
      <point x="184" y="1454"/>
      <point x="309" y="1579"/>
      <point x="430" y="1579" type="qcurve" smooth="yes"/>
      <point x="481" y="1579" type="line" smooth="yes"/>
      <point x="513" y="1579"/>
      <point x="565" y="1575" type="qcurve"/>
      <point x="565" y="1411" type="line"/>
      <point x="539" y="1417"/>
      <point x="475" y="1425"/>
      <point x="463" y="1425" type="qcurve" smooth="yes"/>
      <point x="421" y="1425"/>
      <point x="391" y="1410"/>
      <point x="391" y="1391" type="qcurve" smooth="yes"/>
      <point x="391" y="881" type="line" smooth="yes"/>
      <point x="391" y="806"/>
      <point x="318" y="705"/>
      <point x="250" y="668" type="qcurve"/>
      <point x="313" y="639"/>
      <point x="391" y="549"/>
      <point x="391" y="492" type="qcurve" smooth="yes"/>
      <point x="391" y="131" type="line" smooth="yes"/>
      <point x="391" y="2"/>
      <point x="492" y="2" type="qcurve" smooth="yes"/>
      <point x="522" y="2"/>
      <point x="565" y="12" type="qcurve"/>
      <point x="565" y="-152" type="line"/>
      <point x="555" y="-152"/>
      <point x="528" y="-154" type="qcurve"/>
    </contour>
  </outline>
</glyph>
<glyph name="braceright" format="2">
  <advance width="618"/>
  <unicode hex="007D"/>
  <outline>
    <contour>
      <point x="211" y="-156" type="qcurve" smooth="yes"/>
      <point x="139" y="-156" type="line" smooth="yes"/>
      <point x="126" y="-156"/>
      <point x="97" y="-154" type="qcurve" smooth="yes"/>
      <point x="67" y="-152"/>
      <point x="53" y="-152" type="qcurve"/>
      <point x="53" y="12" type="line"/>
      <point x="98" y="2"/>
      <point x="127" y="2" type="qcurve" smooth="yes"/>
      <point x="182" y="2"/>
      <point x="227" y="71"/>
      <point x="227" y="131" type="qcurve" smooth="yes"/>
      <point x="227" y="492" type="line" smooth="yes"/>
      <point x="227" y="547"/>
      <point x="305" y="637"/>
      <point x="369" y="668" type="qcurve"/>
      <point x="300" y="703"/>
      <point x="227" y="805"/>
      <point x="227" y="881" type="qcurve" smooth="yes"/>
      <point x="227" y="1391" type="line" smooth="yes"/>
      <point x="227" y="1410"/>
      <point x="198" y="1425"/>
      <point x="156" y="1425" type="qcurve" smooth="yes"/>
      <point x="143" y="1425"/>
      <point x="79" y="1417"/>
      <point x="53" y="1411" type="qcurve"/>
      <point x="53" y="1575" type="line"/>
      <point x="107" y="1579"/>
      <point x="137" y="1579" type="qcurve" smooth="yes"/>
      <point x="188" y="1579" type="line" smooth="yes"/>
      <point x="309" y="1579"/>
      <point x="434" y="1454"/>
      <point x="434" y="1321" type="qcurve" smooth="yes"/>
      <point x="434" y="895" type="line" smooth="yes"/>
      <point x="434" y="836"/>
      <point x="495" y="778"/>
      <point x="565" y="754" type="qcurve"/>
      <point x="565" y="594" type="line"/>
      <point x="518" y="576" type="line" smooth="yes"/>
      <point x="434" y="544"/>
      <point x="434" y="487" type="qcurve" smooth="yes"/>
      <point x="434" y="127" type="line" smooth="yes"/>
      <point x="434" y="0"/>
      <point x="397" y="-51" type="qcurve"/>
      <point x="330" y="-156"/>
    </contour>
  </outline>
</glyph>
<glyph name="exclamdown" format="2">
  <advance width="635"/>
  <unicode hex="00A1"/>
  <outline>
    <contour>
      <point x="451" y="735" type="line"/>
      <point x="184" y="735" type="line"/>
      <point x="184" y="999" type="line"/>
      <point x="451" y="999" type="line"/>
    </contour>
    <contour>
      <point x="438" y="-434" type="line"/>
      <point x="197" y="-434" type="line"/>
      <point x="225" y="571" type="line"/>
      <point x="410" y="571" type="line"/>
    </contour>
  </outline>
</glyph>
<glyph name="sterling" format="2">
  <advance width="1200"/>
  <unicode hex="00A3"/>
  <outline>
    <contour>
      <point x="1178" y="0" type="line"/>
      <point x="137" y="0" type="line"/>
      <point x="137" y="207" type="line"/>
      <point x="138" y="207" type="line"/>
      <point x="144" y="207"/>
      <point x="206" y="243" type="qcurve"/>
      <point x="383" y="349"/>
      <point x="383" y="475" type="qcurve" smooth="yes"/>
      <point x="383" y="523"/>
      <point x="370" y="573" type="qcurve" smooth="yes"/>
      <point x="362" y="604" type="line"/>
      <point x="141" y="604" type="line"/>
      <point x="141" y="809" type="line"/>
      <point x="313" y="809" type="line"/>
      <point x="312" y="809"/>
      <point x="303" y="841" type="qcurve"/>
      <point x="276" y="926"/>
      <point x="276" y="1036" type="qcurve" smooth="yes"/>
      <point x="276" y="1152"/>
      <point x="377" y="1337"/>
      <point x="572" y="1446"/>
      <point x="707" y="1446" type="qcurve" smooth="yes"/>
      <point x="805" y="1446"/>
      <point x="967" y="1363"/>
      <point x="1082" y="1222"/>
      <point x="1112" y="1135" type="qcurve"/>
      <point x="922" y="1065" type="line"/>
      <point x="891" y="1148"/>
      <point x="779" y="1241"/>
      <point x="707" y="1241" type="qcurve" smooth="yes"/>
      <point x="598" y="1241"/>
      <point x="481" y="1137"/>
      <point x="481" y="1032" type="qcurve" smooth="yes"/>
      <point x="481" y="977"/>
      <point x="500" y="878"/>
      <point x="523" y="809"/>
      <point x="524" y="809" type="qcurve"/>
      <point x="1001" y="809" type="line"/>
      <point x="1001" y="604" type="line"/>
      <point x="571" y="604" type="line"/>
      <point x="577" y="570"/>
      <point x="581" y="536" type="qcurve" smooth="yes"/>
      <point x="584" y="508"/>
      <point x="584" y="479" type="qcurve" smooth="yes"/>
      <point x="584" y="313"/>
      <point x="493" y="231" type="qcurve" smooth="yes"/>
      <point x="468" y="209"/>
      <point x="461" y="205" type="qcurve"/>
      <point x="1178" y="205" type="line"/>
    </contour>
  </outline>
</glyph>
<glyph name="ordfeminine" format="2">
  <advance width="954"/>
  <unicode hex="00AA"/>
  <outline>
    <contour>
      <point x="393" y="709" type="qcurve" smooth="yes"/>
      <point x="326" y="709"/>
      <point x="214" y="763"/>
      <point x="145" y="861"/>
      <point x="145" y="928" type="qcurve" smooth="yes"/>
      <point x="145" y="1039"/>
      <point x="299" y="1147"/>
      <point x="424" y="1147" type="qcurve" smooth="yes"/>
      <point x="618" y="1147" type="line"/>
      <point x="615" y="1226"/>
      <point x="538" y="1298"/>
      <point x="463" y="1298" type="qcurve" smooth="yes"/>
      <point x="359" y="1298"/>
      <point x="285" y="1192" type="qcurve"/>
      <point x="166" y="1272" type="line"/>
      <point x="229" y="1359"/>
      <point x="371" y="1434"/>
      <point x="467" y="1434" type="qcurve" smooth="yes"/>
      <point x="609" y="1434"/>
      <point x="762" y="1275"/>
      <point x="762" y="1149" type="qcurve" smooth="yes"/>
      <point x="762" y="723" type="line"/>
      <point x="629" y="723" type="line"/>
      <point x="625" y="807" type="line"/>
      <point x="543" y="709"/>
    </contour>
    <contour>
      <point x="420" y="846" type="qcurve" smooth="yes"/>
      <point x="474" y="846"/>
      <point x="559" y="896"/>
      <point x="612" y="972"/>
      <point x="618" y="1014" type="qcurve"/>
      <point x="434" y="1014" type="line" smooth="yes"/>
      <point x="376" y="1014"/>
      <point x="305" y="969"/>
      <point x="305" y="928" type="qcurve" smooth="yes"/>
      <point x="305" y="894"/>
      <point x="378" y="846"/>
    </contour>
  </outline>
</glyph>
<glyph name="guillemotleft" format="2">
  <advance width="954"/>
  <unicode hex="00AB"/>
  <outline>
    <contour>
      <point x="444" y="156" type="line"/>
      <point x="16" y="510" type="line"/>
      <point x="444" y="866" type="line"/>
      <point x="444" y="655" type="line"/>
      <point x="264" y="510" type="line"/>
      <point x="444" y="367" type="line"/>
    </contour>
    <contour>
      <point x="807" y="156" type="line"/>
      <point x="379" y="510" type="line"/>
      <point x="807" y="866" type="line"/>
      <point x="807" y="655" type="line"/>
      <point x="627" y="510" type="line"/>
      <point x="807" y="367" type="line"/>
    </contour>
  </outline>
</glyph>
<glyph name="logicalnot" format="2">
  <advance width="1300"/>
  <unicode hex="00AC"/>
  <outline>
    <contour>
      <point x="1083" y="291" type="line"/>
      <point x="850" y="291" type="line"/>
      <point x="850" y="580" type="line"/>
      <point x="135" y="580" type="line"/>
      <point x="135" y="797" type="line"/>
      <point x="1083" y="797" type="line"/>
    </contour>
  </outline>
</glyph>
<glyph name="registered" format="2">
  <advance width="1739"/>
  <unicode hex="00AE"/>
  <outline>
    <contour>
      <point x="870" y="-47" type="qcurve" smooth="yes"/>
      <point x="721" y="-47"/>
      <point x="461" y="49"/>
      <point x="256" y="218"/>
      <point x="188" y="330" type="qcurve" smooth="yes"/>
      <point x="82" y="503"/>
      <point x="82" y="709" type="qcurve" smooth="yes"/>
      <point x="82" y="852"/>
      <point x="183" y="1101"/>
      <point x="359" y="1297"/>
      <point x="475" y="1363" type="qcurve" smooth="yes"/>
      <point x="656" y="1464"/>
      <point x="870" y="1464" type="qcurve" smooth="yes"/>
      <point x="1019" y="1464"/>
      <point x="1279" y="1368"/>
      <point x="1483" y="1199"/>
      <point x="1551" y="1088" type="qcurve" smooth="yes"/>
      <point x="1657" y="914"/>
      <point x="1657" y="709" type="qcurve" smooth="yes"/>
      <point x="1657" y="565"/>
      <point x="1557" y="316"/>
      <point x="1380" y="120"/>
      <point x="1265" y="55" type="qcurve" smooth="yes"/>
      <point x="1084" y="-47"/>
    </contour>
    <contour>
      <point x="870" y="133" type="qcurve" smooth="yes"/>
      <point x="1040" y="133"/>
      <point x="1314" y="294"/>
      <point x="1395" y="423" type="qcurve" smooth="yes"/>
      <point x="1477" y="555"/>
      <point x="1477" y="709" type="qcurve" smooth="yes"/>
      <point x="1477" y="870"/>
      <point x="1308" y="1129"/>
      <point x="1172" y="1206" type="qcurve" smooth="yes"/>
      <point x="1032" y="1284"/>
      <point x="870" y="1284" type="qcurve" smooth="yes"/>
      <point x="699" y="1284"/>
      <point x="426" y="1123"/>
      <point x="345" y="995" type="qcurve" smooth="yes"/>
      <point x="262" y="863"/>
      <point x="262" y="709" type="qcurve" smooth="yes"/>
      <point x="262" y="601"/>
      <point x="341" y="412"/>
      <point x="478" y="262"/>
      <point x="568" y="212" type="qcurve" smooth="yes"/>
      <point x="707" y="133"/>
    </contour>
    <contour>
      <point x="1266" y="289" type="line"/>
      <point x="1055" y="289" type="line"/>
      <point x="883" y="604" type="line"/>
      <point x="786" y="604" type="line"/>
      <point x="786" y="289" type="line"/>
      <point x="602" y="289" type="line"/>
      <point x="602" y="1114" type="line"/>
      <point x="924" y="1114" type="line" smooth="yes"/>
      <point x="1067" y="1114"/>
      <point x="1208" y="975"/>
      <point x="1208" y="860" type="qcurve" smooth="yes"/>
      <point x="1208" y="770"/>
      <point x="1128" y="657"/>
      <point x="1067" y="631" type="qcurve"/>
    </contour>
    <contour>
      <point x="924" y="778" type="line" smooth="yes"/>
      <point x="984" y="778"/>
      <point x="1034" y="815"/>
      <point x="1034" y="860" type="qcurve" smooth="yes"/>
      <point x="1034" y="907"/>
      <point x="986" y="940"/>
      <point x="924" y="940" type="qcurve" smooth="yes"/>
      <point x="776" y="940" type="line"/>
      <point x="776" y="778" type="line"/>
    </contour>
  </outline>
</glyph>
<glyph name="degree" format="2">
  <advance width="877"/>
  <unicode hex="00B0"/>
  <outline>
    <contour>
      <point x="438" y="848" type="qcurve" smooth="yes"/>
      <point x="353" y="848"/>
      <point x="221" y="931"/>
      <point x="145" y="1065"/>
      <point x="145" y="1141" type="qcurve" smooth="yes"/>
      <point x="145" y="1226"/>
      <point x="229" y="1359"/>
      <point x="363" y="1434"/>
      <point x="438" y="1434" type="qcurve" smooth="yes"/>
      <point x="523" y="1434"/>
      <point x="655" y="1352"/>
      <point x="731" y="1219"/>
      <point x="731" y="1141" type="qcurve" smooth="yes"/>
      <point x="731" y="1056"/>
      <point x="649" y="924"/>
      <point x="516" y="848"/>
    </contour>
    <contour>
      <point x="438" y="1012" type="qcurve" smooth="yes"/>
      <point x="493" y="1012"/>
      <point x="569" y="1087"/>
      <point x="569" y="1141" type="qcurve" smooth="yes"/>
      <point x="569" y="1197"/>
      <point x="490" y="1270"/>
      <point x="438" y="1270" type="qcurve" smooth="yes"/>
      <point x="383" y="1270"/>
      <point x="309" y="1192"/>
      <point x="309" y="1141" type="qcurve" smooth="yes"/>
      <point x="309" y="1084"/>
      <point x="388" y="1012"/>
    </contour>
  </outline>
</glyph>
<glyph name="plusminus" format="2">
  <advance width="1331"/>
  <unicode hex="00B1"/>
  <outline>
    <contour>
      <point x="758" y="106" type="line"/>
      <point x="573" y="106" type="line"/>
      <point x="573" y="532" type="line"/>
      <point x="117" y="532" type="line"/>
      <point x="117" y="717" type="line"/>
      <point x="573" y="717" type="line"/>
      <point x="573" y="1143" type="line"/>
      <point x="758" y="1143" type="line"/>
      <point x="758" y="717" type="line"/>
      <point x="1214" y="717" type="line"/>
      <point x="1214" y="532" type="line"/>
      <point x="758" y="532" type="line"/>
    </contour>
    <contour>
      <point x="1212" y="-184" type="line"/>
      <point x="119" y="-184" type="line"/>
      <point x="119" y="0" type="line"/>
      <point x="1212" y="0" type="line"/>
    </contour>
  </outline>
</glyph>
<glyph name="twosuperior" format="2">
  <advance width="835"/>
  <unicode hex="00B2"/>
  <outline>
    <contour>
      <point x="788" y="486" type="line"/>
      <point x="31" y="486" type="line"/>
      <point x="31" y="617" type="line"/>
      <point x="34" y="618"/>
      <point x="141" y="682"/>
      <point x="235" y="747" type="qcurve"/>
      <point x="322" y="809"/>
      <point x="465" y="937"/>
      <point x="551" y="1069"/>
      <point x="551" y="1137" type="qcurve" smooth="yes"/>
      <point x="551" y="1193"/>
      <point x="487" y="1270"/>
      <point x="418" y="1270" type="qcurve" smooth="yes"/>
      <point x="334" y="1270"/>
      <point x="257" y="1159"/>
      <point x="254" y="1079" type="qcurve"/>
      <point x="68" y="1089" type="line"/>
      <point x="68" y="1176"/>
      <point x="148" y="1338"/>
      <point x="232" y="1392" type="qcurve"/>
      <point x="312" y="1441"/>
      <point x="418" y="1441" type="qcurve" smooth="yes"/>
      <point x="516" y="1441"/>
      <point x="661" y="1367"/>
      <point x="742" y="1243"/>
      <point x="742" y="1169" type="qcurve" smooth="yes"/>
      <point x="742" y="995"/>
      <point x="514" y="791" type="qcurve"/>
      <point x="411" y="703"/>
      <point x="330" y="658" type="qcurve"/>
      <point x="788" y="658" type="line"/>
    </contour>
  </outline>
</glyph>
<glyph name="mu" format="2">
  <advance width="1294"/>
  <unicode hex="00B5"/>
  <outline>
    <contour>
      <point x="424" y="-266" type="line"/>
      <point x="219" y="-266" type="line"/>
      <point x="219" y="999" type="line"/>
      <point x="446" y="999" type="line"/>
      <point x="446" y="418" type="line" smooth="yes"/>
      <point x="446" y="312"/>
      <point x="522" y="188"/>
      <point x="616" y="188" type="qcurve" smooth="yes"/>
      <point x="692" y="188"/>
      <point x="811" y="262"/>
      <point x="879" y="379"/>
      <point x="879" y="442" type="qcurve" smooth="yes"/>
      <point x="879" y="999" type="line"/>
      <point x="1106" y="999" type="line"/>
      <point x="1106" y="0" type="line"/>
      <point x="879" y="0" type="line"/>
      <point x="879" y="98" type="line"/>
      <point x="828" y="46"/>
      <point x="685" y="-23"/>
      <point x="600" y="-23" type="qcurve" smooth="yes"/>
      <point x="512" y="-23"/>
      <point x="442" y="8" type="qcurve"/>
    </contour>
  </outline>
</glyph>
<glyph name="paragraph" format="2">
  <advance width="1262"/>
  <unicode hex="00B6"/>
  <outline>
    <contour>
      <point x="688" y="-246" type="line"/>
      <point x="518" y="-246" type="line"/>
      <point x="518" y="623" type="line"/>
      <point x="404" y="623"/>
      <point x="197" y="714"/>
      <point x="129" y="808" type="qcurve"/>
      <point x="66" y="898"/>
      <point x="66" y="1018" type="qcurve" smooth="yes"/>
      <point x="66" y="1143"/>
      <point x="195" y="1320"/>
      <point x="401" y="1413"/>
      <point x="518" y="1413" type="qcurve" smooth="yes"/>
      <point x="688" y="1413" type="line"/>
    </contour>
    <contour>
      <point x="1040" y="-246" type="line"/>
      <point x="868" y="-246" type="line"/>
      <point x="868" y="1413" type="line"/>
      <point x="1040" y="1413" type="line"/>
    </contour>
  </outline>
</glyph>
<glyph name="ordmasculine" format="2">
  <advance width="991"/>
  <unicode hex="00BA"/>
  <outline>
    <contour>
      <point x="496" y="711" type="qcurve" smooth="yes"/>
      <point x="386" y="711"/>
      <point x="225" y="812"/>
      <point x="137" y="977"/>
      <point x="137" y="1073" type="qcurve" smooth="yes"/>
      <point x="137" y="1167"/>
      <point x="224" y="1334"/>
      <point x="310" y="1386" type="qcurve"/>
      <point x="392" y="1434"/>
      <point x="496" y="1434" type="qcurve" smooth="yes"/>
      <point x="605" y="1434"/>
      <point x="765" y="1333"/>
      <point x="852" y="1168"/>
      <point x="852" y="1073" type="qcurve" smooth="yes"/>
      <point x="852" y="973"/>
      <point x="762" y="808"/>
      <point x="601" y="711"/>
    </contour>
    <contour>
      <point x="496" y="856" type="qcurve" smooth="yes"/>
      <point x="563" y="856"/>
      <point x="646" y="913"/>
      <point x="684" y="1011"/>
      <point x="684" y="1073" type="qcurve" smooth="yes"/>
      <point x="684" y="1135"/>
      <point x="646" y="1233"/>
      <point x="563" y="1290"/>
      <point x="496" y="1290" type="qcurve" smooth="yes"/>
      <point x="428" y="1290"/>
      <point x="343" y="1233"/>
      <point x="305" y="1135"/>
      <point x="305" y="1073" type="qcurve" smooth="yes"/>
      <point x="305" y="1011"/>
      <point x="343" y="913"/>
      <point x="428" y="856"/>
    </contour>
  </outline>
</glyph>
<glyph name="questiondown" format="2">
  <advance width="993"/>
  <unicode hex="00BF"/>
  <outline>
    <contour>
      <point x="637" y="735" type="line"/>
      <point x="371" y="735" type="line"/>
      <point x="371" y="999" type="line"/>
      <point x="637" y="999" type="line"/>
    </contour>
    <contour>
      <point x="516" y="-434" type="qcurve" smooth="yes"/>
      <point x="398" y="-434"/>
      <point x="191" y="-346"/>
      <point x="125" y="-251" type="qcurve" smooth="yes"/>
      <point x="63" y="-161"/>
      <point x="63" y="-35" type="qcurve" smooth="yes"/>
      <point x="63" y="146"/>
      <point x="175" y="242" type="qcurve" smooth="yes"/>
      <point x="222" y="281"/>
      <point x="293" y="318" type="qcurve" smooth="yes"/>
      <point x="334" y="340"/>
      <point x="355" y="355" type="qcurve" smooth="yes"/>
      <point x="403" y="390"/>
      <point x="403" y="432" type="qcurve" smooth="yes"/>
      <point x="403" y="575" type="line"/>
      <point x="610" y="575" type="line"/>
      <point x="610" y="430" type="line" smooth="yes"/>
      <point x="610" y="279"/>
      <point x="521" y="212" type="qcurve" smooth="yes"/>
      <point x="484" y="183"/>
      <point x="423" y="150" type="qcurve"/>
      <point x="351" y="115"/>
      <point x="276" y="34"/>
      <point x="276" y="-39" type="qcurve" smooth="yes"/>
      <point x="276" y="-106"/>
      <point x="335" y="-191"/>
      <point x="439" y="-231"/>
      <point x="506" y="-231" type="qcurve" smooth="yes"/>
      <point x="604" y="-231"/>
      <point x="734" y="-128"/>
      <point x="737" y="-23" type="qcurve"/>
      <point x="952" y="-23" type="line"/>
      <point x="945" y="-220"/>
      <point x="692" y="-434"/>
    </contour>
  </outline>
</glyph>
<glyph name="Aring" format="2">
  <advance width="1343"/>
  <unicode hex="00C5"/>
  <outline>
    <contour>
      <point x="1331" y="0" type="line"/>
      <point x="1057" y="0" type="line"/>
      <point x="948" y="307" type="line"/>
      <point x="399" y="307" type="line"/>
      <point x="289" y="0" type="line"/>
      <point x="12" y="0" type="line"/>
      <point x="543" y="1325" type="line"/>
      <point x="495" y="1357"/>
      <point x="442" y="1458"/>
      <point x="442" y="1516" type="qcurve" smooth="yes"/>
      <point x="442" y="1583"/>
      <point x="507" y="1686"/>
      <point x="612" y="1745"/>
      <point x="672" y="1745" type="qcurve" smooth="yes"/>
      <point x="771" y="1745"/>
      <point x="903" y="1608"/>
      <point x="903" y="1516" type="qcurve" smooth="yes"/>
      <point x="903" y="1455"/>
      <point x="848" y="1355"/>
      <point x="803" y="1325" type="qcurve"/>
    </contour>
    <contour>
      <point x="672" y="1415" type="qcurve" smooth="yes"/>
      <point x="717" y="1415"/>
      <point x="772" y="1473"/>
      <point x="772" y="1518" type="qcurve" smooth="yes"/>
      <point x="772" y="1558"/>
      <point x="720" y="1614"/>
      <point x="672" y="1614" type="qcurve" smooth="yes"/>
      <point x="627" y="1614"/>
      <point x="573" y="1559"/>
      <point x="573" y="1518" type="qcurve" smooth="yes"/>
      <point x="573" y="1472"/>
      <point x="631" y="1415"/>
    </contour>
    <contour>
      <point x="862" y="524" type="line"/>
      <point x="674" y="1040" type="line"/>
      <point x="485" y="524" type="line"/>
    </contour>
  </outline>
</glyph>
<glyph name="Ccedilla" format="2">
  <advance width="1432"/>
  <unicode hex="00C7"/>
  <outline>
    <contour>
      <point x="741" y="-522" type="qcurve" smooth="yes"/>
      <point x="676" y="-522"/>
      <point x="569" y="-449"/>
      <point x="544" y="-393" type="qcurve"/>
      <point x="680" y="-336" type="line"/>
      <point x="688" y="-356"/>
      <point x="723" y="-383"/>
      <point x="747" y="-383" type="qcurve" smooth="yes"/>
      <point x="782" y="-383"/>
      <point x="827" y="-339"/>
      <point x="827" y="-305" type="qcurve" smooth="yes"/>
      <point x="827" y="-256"/>
      <point x="732" y="-195"/>
      <point x="659" y="-195" type="qcurve" smooth="yes"/>
      <point x="589" y="-195" type="line"/>
      <point x="702" y="-18" type="line"/>
      <point x="499" y="-4"/>
      <point x="360" y="97" type="qcurve"/>
      <point x="214" y="205"/>
      <point x="82" y="525"/>
      <point x="82" y="707" type="qcurve" smooth="yes"/>
      <point x="82" y="834"/>
      <point x="145" y="1070"/>
      <point x="280" y="1267"/>
      <point x="387" y="1337" type="qcurve" smooth="yes"/>
      <point x="541" y="1436"/>
      <point x="764" y="1436" type="qcurve" smooth="yes"/>
      <point x="965" y="1436"/>
      <point x="1290" y="1236"/>
      <point x="1382" y="1030" type="qcurve"/>
      <point x="1145" y="936" type="line"/>
      <point x="1069" y="1194"/>
      <point x="762" y="1194" type="qcurve" smooth="yes"/>
      <point x="616" y="1194"/>
      <point x="426" y="1068"/>
      <point x="334" y="852"/>
      <point x="334" y="717" type="qcurve" smooth="yes"/>
      <point x="334" y="576"/>
      <point x="424" y="351"/>
      <point x="615" y="221"/>
      <point x="766" y="221" type="qcurve" smooth="yes"/>
      <point x="911" y="221"/>
      <point x="1096" y="350"/>
      <point x="1149" y="483" type="qcurve"/>
      <point x="1384" y="387" type="line"/>
      <point x="1303" y="201"/>
      <point x="1022" y="1"/>
      <point x="845" y="-16" type="qcurve"/>
      <point x="780" y="-100" type="line"/>
      <point x="876" y="-114"/>
      <point x="970" y="-219"/>
      <point x="970" y="-297" type="qcurve" smooth="yes"/>
      <point x="970" y="-398"/>
      <point x="834" y="-522"/>
    </contour>
  </outline>
</glyph>
<glyph name="Eth" format="2">
  <advance width="1430"/>
  <unicode hex="00D0"/>
  <outline>
    <contour>
      <point x="602" y="0" type="qcurve" smooth="yes"/>
      <point x="205" y="0" type="line"/>
      <point x="205" y="621" type="line"/>
      <point x="92" y="621" type="line"/>
      <point x="92" y="805" type="line"/>
      <point x="205" y="805" type="line"/>
      <point x="205" y="1413" type="line"/>
      <point x="604" y="1413" type="line" smooth="yes"/>
      <point x="967" y="1413"/>
      <point x="1350" y="1036"/>
      <point x="1350" y="696" type="qcurve" smooth="yes"/>
      <point x="1350" y="466"/>
      <point x="1167" y="160"/>
      <point x="1005" y="82" type="qcurve" smooth="yes"/>
      <point x="837" y="0"/>
    </contour>
    <contour>
      <point x="578" y="219" type="line" smooth="yes"/>
      <point x="827" y="219"/>
      <point x="1114" y="457"/>
      <point x="1114" y="707" type="qcurve" smooth="yes"/>
      <point x="1114" y="962"/>
      <point x="853" y="1196"/>
      <point x="600" y="1196" type="qcurve" smooth="yes"/>
      <point x="438" y="1196" type="line"/>
      <point x="438" y="805" type="line"/>
      <point x="819" y="805" type="line"/>
      <point x="819" y="621" type="line"/>
      <point x="438" y="621" type="line"/>
      <point x="438" y="219" type="line"/>
    </contour>
  </outline>
</glyph>
<glyph name="Oslash" format="2">
  <advance width="1528"/>
  <unicode hex="00D8"/>
  <outline>
    <contour>
      <point x="764" y="-20" type="qcurve" smooth="yes"/>
      <point x="591" y="-20"/>
      <point x="452" y="43" type="qcurve"/>
      <point x="426" y="0" type="line"/>
      <point x="244" y="0" type="line"/>
      <point x="321" y="126" type="line"/>
      <point x="198" y="232"/>
      <point x="82" y="537"/>
      <point x="82" y="707" type="qcurve" smooth="yes"/>
      <point x="82" y="834"/>
      <point x="145" y="1070"/>
      <point x="279" y="1266"/>
      <point x="387" y="1336" type="qcurve" smooth="yes"/>
      <point x="540" y="1434"/>
      <point x="764" y="1434" type="qcurve" smooth="yes"/>
      <point x="936" y="1434"/>
      <point x="1075" y="1371" type="qcurve"/>
      <point x="1100" y="1413" type="line"/>
      <point x="1282" y="1413" type="line"/>
      <point x="1207" y="1288" type="line"/>
      <point x="1330" y="1182"/>
      <point x="1446" y="878"/>
      <point x="1446" y="707" type="qcurve" smooth="yes"/>
      <point x="1446" y="580"/>
      <point x="1383" y="344"/>
      <point x="1249" y="148"/>
      <point x="1142" y="79" type="qcurve" smooth="yes"/>
      <point x="988" y="-20"/>
    </contour>
    <contour>
      <point x="452" y="344" type="qcurve"/>
      <point x="952" y="1169" type="line"/>
      <point x="871" y="1208"/>
      <point x="764" y="1208" type="qcurve" smooth="yes"/>
      <point x="619" y="1208"/>
      <point x="527" y="1141" type="qcurve"/>
      <point x="350" y="1008"/>
      <point x="350" y="707" type="qcurve" smooth="yes"/>
      <point x="350" y="478"/>
    </contour>
    <contour>
      <point x="764" y="205" type="qcurve" smooth="yes"/>
      <point x="909" y="205"/>
      <point x="1002" y="273" type="qcurve"/>
      <point x="1178" y="405"/>
      <point x="1178" y="707" type="qcurve" smooth="yes"/>
      <point x="1178" y="934"/>
      <point x="1075" y="1071" type="qcurve"/>
      <point x="574" y="245" type="line"/>
      <point x="656" y="205"/>
    </contour>
  </outline>
</glyph>
<glyph name="ae" format="2">
  <advance width="1677"/>
  <unicode hex="00E6"/>
  <outline>
    <contour>
      <point x="399" y="-20" type="qcurve" smooth="yes"/>
      <point x="305" y="-20"/>
      <point x="144" y="56"/>
      <point x="45" y="196"/>
      <point x="45" y="293" type="qcurve" smooth="yes"/>
      <point x="45" y="452"/>
      <point x="262" y="596"/>
      <point x="444" y="596" type="qcurve" smooth="yes"/>
      <point x="715" y="596" type="line"/>
      <point x="715" y="710"/>
      <point x="608" y="809"/>
      <point x="498" y="809" type="qcurve" smooth="yes"/>
      <point x="421" y="809"/>
      <point x="298" y="735"/>
      <point x="262" y="682" type="qcurve"/>
      <point x="90" y="807" type="line"/>
      <point x="170" y="916"/>
      <point x="375" y="1016"/>
      <point x="506" y="1016" type="qcurve" smooth="yes"/>
      <point x="621" y="1016"/>
      <point x="790" y="928"/>
      <point x="840" y="852" type="qcurve"/>
      <point x="897" y="925"/>
      <point x="1061" y="1012"/>
      <point x="1167" y="1012" type="qcurve" smooth="yes"/>
      <point x="1329" y="1012"/>
      <point x="1531" y="868"/>
      <point x="1618" y="636"/>
      <point x="1618" y="496" type="qcurve" smooth="yes"/>
      <point x="1618" y="467"/>
      <point x="1610" y="424"/>
      <point x="1608" y="420" type="qcurve"/>
      <point x="922" y="420" type="line"/>
      <point x="935" y="327"/>
      <point x="1053" y="215"/>
      <point x="1163" y="215" type="qcurve" smooth="yes"/>
      <point x="1251" y="215"/>
      <point x="1365" y="257"/>
      <point x="1411" y="307" type="qcurve"/>
      <point x="1581" y="160" type="line"/>
      <point x="1499" y="72"/>
      <point x="1298" y="-12"/>
      <point x="1165" y="-12" type="qcurve" smooth="yes"/>
      <point x="926" y="-12"/>
      <point x="815" y="150" type="qcurve"/>
      <point x="655" y="-20"/>
    </contour>
    <contour>
      <point x="1378" y="596" type="line"/>
      <point x="1363" y="704"/>
      <point x="1247" y="807"/>
      <point x="1147" y="807" type="qcurve" smooth="yes"/>
      <point x="1078" y="807"/>
      <point x="986" y="753"/>
      <point x="933" y="658"/>
      <point x="924" y="596" type="qcurve"/>
    </contour>
    <contour>
      <point x="438" y="180" type="qcurve" smooth="yes"/>
      <point x="512" y="180"/>
      <point x="631" y="251"/>
      <point x="706" y="360"/>
      <point x="715" y="420" type="qcurve"/>
      <point x="459" y="420" type="line" smooth="yes"/>
      <point x="370" y="420"/>
      <point x="274" y="347"/>
      <point x="274" y="295" type="qcurve" smooth="yes"/>
      <point x="274" y="235"/>
      <point x="366" y="180"/>
    </contour>
  </outline>
</glyph>
<glyph name="eth" format="2">
  <advance width="1178"/>
  <unicode hex="00F0"/>
  <outline>
    <contour>
      <point x="586" y="-16" type="qcurve" smooth="yes"/>
      <point x="454" y="-16"/>
      <point x="255" y="70"/>
      <point x="122" y="219"/>
      <point x="55" y="411"/>
      <point x="55" y="516" type="qcurve" smooth="yes"/>
      <point x="55" y="651"/>
      <point x="167" y="881"/>
      <point x="283" y="953" type="qcurve" smooth="yes"/>
      <point x="393" y="1020"/>
      <point x="541" y="1020" type="qcurve" smooth="yes"/>
      <point x="698" y="1020"/>
      <point x="797" y="942" type="qcurve"/>
      <point x="732" y="1125"/>
      <point x="524" y="1230" type="qcurve"/>
      <point x="444" y="1114" type="line"/>
      <point x="342" y="1180" type="line"/>
      <point x="411" y="1280" type="line"/>
      <point x="352" y="1301"/>
      <point x="276" y="1325" type="qcurve"/>
      <point x="387" y="1516" type="line"/>
      <point x="463" y="1488"/>
      <point x="532" y="1454" type="qcurve"/>
      <point x="600" y="1552" type="line"/>
      <point x="705" y="1491" type="line"/>
      <point x="640" y="1397" type="line"/>
      <point x="879" y="1256"/>
      <point x="1092" y="845"/>
      <point x="1092" y="567" type="qcurve" smooth="yes"/>
      <point x="1092" y="284"/>
      <point x="823" y="-16"/>
    </contour>
    <contour>
      <point x="573" y="209" type="qcurve" smooth="yes"/>
      <point x="664" y="209"/>
      <point x="785" y="295"/>
      <point x="846" y="435"/>
      <point x="846" y="518" type="qcurve" smooth="yes"/>
      <point x="846" y="599"/>
      <point x="785" y="738"/>
      <point x="664" y="823"/>
      <point x="573" y="823" type="qcurve" smooth="yes"/>
      <point x="483" y="823"/>
      <point x="362" y="738"/>
      <point x="301" y="598"/>
      <point x="301" y="516" type="qcurve" smooth="yes"/>
      <point x="301" y="437"/>
      <point x="360" y="296"/>
      <point x="481" y="209"/>
    </contour>
  </outline>
</glyph>
<glyph name="thorn" format="2">
  <advance width="1155"/>
  <unicode hex="00FE"/>
  <outline>
    <contour>
      <point x="379" y="-438" type="line"/>
      <point x="147" y="-438" type="line"/>
      <point x="147" y="1413" type="line"/>
      <point x="379" y="1413" type="line"/>
      <point x="379" y="918" type="line"/>
      <point x="489" y="1020"/>
      <point x="655" y="1020" type="qcurve" smooth="yes"/>
      <point x="797" y="1020"/>
      <point x="992" y="877"/>
      <point x="1092" y="640"/>
      <point x="1092" y="500" type="qcurve" smooth="yes"/>
      <point x="1092" y="365"/>
      <point x="994" y="126"/>
      <point x="892" y="51" type="qcurve"/>
      <point x="793" y="-20"/>
      <point x="655" y="-20" type="qcurve" smooth="yes"/>
      <point x="569" y="-20"/>
      <point x="429" y="34"/>
      <point x="379" y="82" type="qcurve"/>
    </contour>
    <contour>
      <point x="614" y="190" type="qcurve" smooth="yes"/>
      <point x="699" y="190"/>
      <point x="811" y="271"/>
      <point x="866" y="411"/>
      <point x="866" y="500" type="qcurve" smooth="yes"/>
      <point x="866" y="586"/>
      <point x="812" y="726"/>
      <point x="700" y="807"/>
      <point x="614" y="807" type="qcurve" smooth="yes"/>
      <point x="529" y="807"/>
      <point x="417" y="726"/>
      <point x="362" y="587"/>
      <point x="362" y="500" type="qcurve" smooth="yes"/>
      <point x="362" y="413"/>
      <point x="416" y="273"/>
      <point x="528" y="190"/>
    </contour>
  </outline>
</glyph>
<glyph name="gcedilla" format="2">
  <advance width="1049"/>
  <unicode hex="0123"/>
  <outline>
    <contour>
      <point x="616" y="1119" type="line"/>
      <point x="362" y="1119" type="line"/>
      <point x="610" y="1434" type="line"/>
      <point x="751" y="1434" type="line"/>
    </contour>
    <contour>
      <point x="549" y="-473" type="qcurve" smooth="yes"/>
      <point x="400" y="-473"/>
      <point x="191" y="-379"/>
      <point x="82" y="-218"/>
      <point x="82" y="-117" type="qcurve" smooth="yes"/>
      <point x="82" y="-94"/>
      <point x="86" y="-74" type="qcurve"/>
      <point x="190" y="20" type="line"/>
      <point x="92" y="86"/>
      <point x="92" y="217" type="qcurve" smooth="yes"/>
      <point x="92" y="343"/>
      <point x="185" y="423" type="qcurve"/>
      <point x="102" y="526"/>
      <point x="102" y="653" type="qcurve" smooth="yes"/>
      <point x="102" y="764"/>
      <point x="217" y="925"/>
      <point x="404" y="1012"/>
      <point x="512" y="1012" type="qcurve" smooth="yes"/>
      <point x="641" y="1012"/>
      <point x="745" y="953" type="qcurve"/>
      <point x="901" y="1087" type="line"/>
      <point x="1028" y="932" type="line"/>
      <point x="883" y="815" type="line"/>
      <point x="926" y="735"/>
      <point x="926" y="641" type="qcurve" smooth="yes"/>
      <point x="926" y="528"/>
      <point x="813" y="364"/>
      <point x="628" y="276"/>
      <point x="520" y="276" type="qcurve" smooth="yes"/>
      <point x="419" y="276"/>
      <point x="330" y="315" type="qcurve"/>
      <point x="301" y="296"/>
      <point x="301" y="262" type="qcurve" smooth="yes"/>
      <point x="301" y="227"/>
      <point x="356" y="190"/>
      <point x="447" y="174"/>
      <point x="537" y="164" type="qcurve" smooth="yes"/>
      <point x="602" y="156" type="line" smooth="yes"/>
      <point x="720" y="140"/>
      <point x="883" y="89"/>
      <point x="991" y="-32"/>
      <point x="991" y="-139" type="qcurve" smooth="yes"/>
      <point x="991" y="-252"/>
      <point x="874" y="-400"/>
      <point x="674" y="-473"/>
    </contour>
    <contour>
      <point x="520" y="477" type="qcurve" smooth="yes"/>
      <point x="603" y="477"/>
      <point x="684" y="575"/>
      <point x="684" y="647" type="qcurve" smooth="yes"/>
      <point x="684" y="719"/>
      <point x="600" y="823"/>
      <point x="520" y="823" type="qcurve" smooth="yes"/>
      <point x="439" y="823"/>
      <point x="354" y="719"/>
      <point x="354" y="647" type="qcurve" smooth="yes"/>
      <point x="354" y="575"/>
      <point x="437" y="477"/>
    </contour>
    <contour>
      <point x="551" y="-281" type="qcurve" smooth="yes"/>
      <point x="643" y="-281"/>
      <point x="760" y="-224"/>
      <point x="760" y="-168" type="qcurve" smooth="yes"/>
      <point x="760" y="-133"/>
      <point x="708" y="-95"/>
      <point x="613" y="-77"/>
      <point x="503" y="-65" type="qcurve" smooth="yes"/>
      <point x="392" y="-52"/>
      <point x="338" y="-39" type="qcurve"/>
      <point x="287" y="-123" type="line"/>
      <point x="299" y="-204"/>
      <point x="445" y="-281"/>
    </contour>
  </outline>
</glyph>
<glyph name="hbar" format="2">
  <advance width="1169"/>
  <unicode hex="0127"/>
  <outline>
    <contour>
      <point x="1053" y="0" type="line"/>
      <point x="805" y="0" type="line"/>
      <point x="805" y="569" type="line" smooth="yes"/>
      <point x="805" y="672"/>
      <point x="734" y="788"/>
      <point x="645" y="788" type="qcurve" smooth="yes"/>
      <point x="574" y="788"/>
      <point x="461" y="718"/>
      <point x="395" y="607"/>
      <point x="395" y="547" type="qcurve" smooth="yes"/>
      <point x="395" y="0" type="line"/>
      <point x="147" y="0" type="line"/>
      <point x="147" y="1108" type="line"/>
      <point x="1" y="1108" type="line"/>
      <point x="1" y="1272" type="line"/>
      <point x="147" y="1272" type="line"/>
      <point x="147" y="1413" type="line"/>
      <point x="395" y="1413" type="line"/>
      <point x="395" y="1272" type="line"/>
      <point x="636" y="1272" type="line"/>
      <point x="636" y="1108" type="line"/>
      <point x="395" y="1108" type="line"/>
      <point x="395" y="883" type="line"/>
      <point x="454" y="954"/>
      <point x="607" y="1016"/>
      <point x="684" y="1016" type="qcurve" smooth="yes"/>
      <point x="812" y="1016"/>
      <point x="975" y="899"/>
      <point x="1053" y="709"/>
      <point x="1053" y="600" type="qcurve" smooth="yes"/>
    </contour>
  </outline>
</glyph>
<glyph name="dotlessi" format="2">
  <advance width="516"/>
  <unicode hex="0131"/>
  <outline>
    <contour>
      <point x="371" y="0" type="line"/>
      <point x="145" y="0" type="line"/>
      <point x="145" y="999" type="line"/>
      <point x="371" y="999" type="line"/>
    </contour>
  </outline>
</glyph>
<glyph name="lcaron" format="2">
  <advance width="666"/>
  <unicode hex="013E"/>
  <outline>
    <contour>
      <point x="354" y="-20" type="qcurve" smooth="yes"/>
      <point x="252" y="-20"/>
      <point x="139" y="74"/>
      <point x="139" y="199" type="qcurve" smooth="yes"/>
      <point x="139" y="1413" type="line"/>
      <point x="383" y="1413" type="line"/>
      <point x="383" y="266" type="line" smooth="yes"/>
      <point x="383" y="199"/>
      <point x="467" y="199" type="qcurve" smooth="yes"/>
      <point x="491" y="199"/>
      <point x="530" y="205" type="qcurve"/>
      <point x="530" y="0" type="line"/>
      <point x="428" y="-20"/>
    </contour>
    <contour>
      <point x="664" y="958" type="line"/>
      <point x="520" y="958" type="line"/>
      <point x="635" y="1413" type="line"/>
      <point x="891" y="1413" type="line"/>
    </contour>
  </outline>
</glyph>
<glyph name="Lslash" format="2">
  <advance width="1090"/>
  <unicode hex="0141"/>
  <outline>
    <contour>
      <point x="1067" y="0" type="line"/>
      <point x="209" y="0" type="line"/>
      <point x="209" y="316" type="line"/>
      <point x="104" y="197" type="line"/>
      <point x="104" y="467" type="line"/>
      <point x="209" y="585" type="line"/>
      <point x="209" y="1413" type="line"/>
      <point x="463" y="1413" type="line"/>
      <point x="463" y="872" type="line"/>
      <point x="702" y="1141" type="line"/>
      <point x="702" y="872" type="line"/>
      <point x="463" y="602" type="line"/>
      <point x="463" y="240" type="line"/>
      <point x="1067" y="240" type="line"/>
    </contour>
  </outline>
</glyph>
<glyph name="lslash" format="2">
  <advance width="573"/>
  <unicode hex="0142"/>
  <outline>
    <contour>
      <point x="354" y="-20" type="qcurve" smooth="yes"/>
      <point x="252" y="-20"/>
      <point x="139" y="74"/>
      <point x="139" y="199" type="qcurve" smooth="yes"/>
      <point x="139" y="389" type="line"/>
      <point x="72" y="314" type="line"/>
      <point x="72" y="542" type="line"/>
      <point x="139" y="618" type="line"/>
      <point x="139" y="1413" type="line"/>
      <point x="383" y="1413" type="line"/>
      <point x="383" y="893" type="line"/>
      <point x="488" y="1011" type="line"/>
      <point x="488" y="782" type="line"/>
      <point x="383" y="664" type="line"/>
      <point x="383" y="266" type="line" smooth="yes"/>
      <point x="383" y="199"/>
      <point x="467" y="199" type="qcurve" smooth="yes"/>
      <point x="491" y="199"/>
      <point x="530" y="205" type="qcurve"/>
      <point x="530" y="0" type="line"/>
      <point x="428" y="-20"/>
    </contour>
  </outline>
</glyph>
<glyph name="Eng" format="2">
  <advance width="1454"/>
  <unicode hex="014A"/>
  <outline>
    <contour>
      <point x="944" y="-369" type="qcurve" smooth="yes"/>
      <point x="823" y="-369" type="line"/>
      <point x="823" y="-209" type="line"/>
      <point x="852" y="-210" type="line"/>
      <point x="947" y="-210"/>
      <point x="1050" y="-142"/>
      <point x="1050" y="-92" type="qcurve" smooth="yes"/>
      <point x="1050" y="-70"/>
      <point x="1040" y="-47" type="qcurve"/>
      <point x="426" y="997" type="line"/>
      <point x="426" y="0" type="line"/>
      <point x="182" y="0" type="line"/>
      <point x="182" y="1411" type="line"/>
      <point x="434" y="1411" type="line"/>
      <point x="1028" y="416" type="line"/>
      <point x="1028" y="1411" type="line"/>
      <point x="1270" y="1411" type="line"/>
      <point x="1270" y="0" type="line" smooth="yes"/>
      <point x="1270" y="-163"/>
      <point x="1122" y="-369"/>
    </contour>
  </outline>
</glyph>
<glyph name="OE" format="2">
  <advance width="2255"/>
  <unicode hex="0152"/>
  <outline>
    <contour>
      <point x="764" y="-20" type="qcurve" smooth="yes"/>
      <point x="540" y="-20"/>
      <point x="387" y="79" type="qcurve" smooth="yes"/>
      <point x="279" y="148"/>
      <point x="145" y="344"/>
      <point x="82" y="580"/>
      <point x="82" y="707" type="qcurve" smooth="yes"/>
      <point x="82" y="834"/>
      <point x="145" y="1070"/>
      <point x="279" y="1266"/>
      <point x="387" y="1336" type="qcurve" smooth="yes"/>
      <point x="540" y="1434"/>
      <point x="764" y="1434" type="qcurve" smooth="yes"/>
      <point x="909" y="1434"/>
      <point x="1122" y="1344"/>
      <point x="1192" y="1266" type="qcurve"/>
      <point x="1192" y="1413" type="line"/>
      <point x="2132" y="1413" type="line"/>
      <point x="2132" y="1180" type="line"/>
      <point x="1446" y="1180" type="line"/>
      <point x="1446" y="823" type="line"/>
      <point x="2085" y="823" type="line"/>
      <point x="2085" y="590" type="line"/>
      <point x="1446" y="590" type="line"/>
      <point x="1446" y="240" type="line"/>
      <point x="2132" y="240" type="line"/>
      <point x="2132" y="0" type="line"/>
      <point x="1192" y="0" type="line"/>
      <point x="1192" y="147" type="line"/>
      <point x="1038" y="-20"/>
    </contour>
    <contour>
      <point x="764" y="219" type="qcurve" smooth="yes"/>
      <point x="912" y="219"/>
      <point x="1102" y="348"/>
      <point x="1192" y="569"/>
      <point x="1192" y="707" type="qcurve" smooth="yes"/>
      <point x="1192" y="844"/>
      <point x="1103" y="1064"/>
      <point x="914" y="1194"/>
      <point x="764" y="1194" type="qcurve" smooth="yes"/>
      <point x="616" y="1194"/>
      <point x="427" y="1066"/>
      <point x="336" y="845"/>
      <point x="336" y="707" type="qcurve" smooth="yes"/>
      <point x="336" y="573"/>
      <point x="424" y="351"/>
      <point x="612" y="219"/>
    </contour>
  </outline>
</glyph>
<glyph name="scedilla" format="2">
  <advance width="915"/>
  <unicode hex="015F"/>
  <outline>
    <contour>
      <point x="455" y="-522" type="qcurve" smooth="yes"/>
      <point x="390" y="-522"/>
      <point x="283" y="-449"/>
      <point x="258" y="-393" type="qcurve"/>
      <point x="394" y="-336" type="line"/>
      <point x="402" y="-356"/>
      <point x="437" y="-383"/>
      <point x="461" y="-383" type="qcurve" smooth="yes"/>
      <point x="496" y="-383"/>
      <point x="541" y="-339"/>
      <point x="541" y="-305" type="qcurve" smooth="yes"/>
      <point x="541" y="-256"/>
      <point x="446" y="-195"/>
      <point x="373" y="-195" type="qcurve" smooth="yes"/>
      <point x="303" y="-195" type="line"/>
      <point x="415" y="-19" type="line"/>
      <point x="267" y="-5"/>
      <point x="68" y="151"/>
      <point x="33" y="260" type="qcurve"/>
      <point x="227" y="346" type="line"/>
      <point x="253" y="276"/>
      <point x="351" y="182"/>
      <point x="440" y="182" type="qcurve" smooth="yes"/>
      <point x="494" y="182"/>
      <point x="566" y="218"/>
      <point x="602" y="273"/>
      <point x="602" y="301" type="qcurve" smooth="yes"/>
      <point x="602" y="334"/>
      <point x="555" y="376"/>
      <point x="485" y="400"/>
      <point x="419" y="417" type="qcurve" smooth="yes"/>
      <point x="317" y="442"/>
      <point x="189" y="501"/>
      <point x="147" y="555" type="qcurve"/>
      <point x="100" y="612"/>
      <point x="100" y="709" type="qcurve" smooth="yes"/>
      <point x="100" y="813"/>
      <point x="203" y="948"/>
      <point x="372" y="1014"/>
      <point x="471" y="1014" type="qcurve" smooth="yes"/>
      <point x="603" y="1014"/>
      <point x="794" y="903"/>
      <point x="850" y="803" type="qcurve"/>
      <point x="662" y="700" type="line"/>
      <point x="631" y="756"/>
      <point x="536" y="821"/>
      <point x="463" y="821" type="qcurve" smooth="yes"/>
      <point x="403" y="821"/>
      <point x="334" y="777"/>
      <point x="334" y="741" type="qcurve" smooth="yes"/>
      <point x="334" y="712"/>
      <point x="378" y="674"/>
      <point x="445" y="651"/>
      <point x="506" y="633" type="qcurve" smooth="yes"/>
      <point x="609" y="604"/>
      <point x="743" y="543"/>
      <point x="842" y="417"/>
      <point x="842" y="313" type="qcurve" smooth="yes"/>
      <point x="842" y="182"/>
      <point x="686" y="20"/>
      <point x="566" y="-8" type="qcurve"/>
      <point x="494" y="-100" type="line"/>
      <point x="590" y="-114"/>
      <point x="684" y="-219"/>
      <point x="684" y="-297" type="qcurve" smooth="yes"/>
      <point x="684" y="-398"/>
      <point x="548" y="-522"/>
    </contour>
  </outline>
</glyph>
<glyph name="Tbar" format="2">
  <advance width="1180"/>
  <unicode hex="0166"/>
  <outline>
    <contour>
      <point x="717" y="0" type="line"/>
      <point x="463" y="0" type="line"/>
      <point x="463" y="625" type="line"/>
      <point x="272" y="625" type="line"/>
      <point x="272" y="789" type="line"/>
      <point x="463" y="789" type="line"/>
      <point x="463" y="1186" type="line"/>
      <point x="20" y="1186" type="line"/>
      <point x="20" y="1413" type="line"/>
      <point x="1159" y="1413" type="line"/>
      <point x="1159" y="1186" type="line"/>
      <point x="717" y="1186" type="line"/>
      <point x="717" y="789" type="line"/>
      <point x="907" y="789" type="line"/>
      <point x="907" y="625" type="line"/>
      <point x="717" y="625" type="line"/>
    </contour>
  </outline>
</glyph>
<glyph name="uogonek" format="2">
  <advance width="1167"/>
  <unicode hex="0173"/>
  <outline>
    <contour>
      <point x="893" y="-451" type="qcurve" smooth="yes"/>
      <point x="829" y="-451"/>
      <point x="726" y="-399"/>
      <point x="668" y="-306"/>
      <point x="668" y="-246" type="qcurve" smooth="yes"/>
      <point x="668" y="-174"/>
      <point x="741" y="-65"/>
      <point x="787" y="-30" type="qcurve" smooth="yes"/>
      <point x="820" y="-4"/>
      <point x="828" y="0" type="qcurve"/>
      <point x="774" y="0" type="line"/>
      <point x="774" y="117" type="line"/>
      <point x="722" y="48"/>
      <point x="569" y="-23"/>
      <point x="485" y="-23" type="qcurve" smooth="yes"/>
      <point x="361" y="-23"/>
      <point x="194" y="99"/>
      <point x="115" y="297"/>
      <point x="115" y="412" type="qcurve" smooth="yes"/>
      <point x="115" y="999" type="line"/>
      <point x="362" y="999" type="line"/>
      <point x="362" y="424" type="line" smooth="yes"/>
      <point x="362" y="321"/>
      <point x="440" y="209"/>
      <point x="543" y="209" type="qcurve" smooth="yes"/>
      <point x="645" y="209"/>
      <point x="774" y="339"/>
      <point x="774" y="508" type="qcurve" smooth="yes"/>
      <point x="774" y="999" type="line"/>
      <point x="1022" y="999" type="line"/>
      <point x="1022" y="0" type="line"/>
      <point x="999" y="-7"/>
      <point x="900" y="-62"/>
      <point x="813" y="-154"/>
      <point x="813" y="-213" type="qcurve" smooth="yes"/>
      <point x="813" y="-262"/>
      <point x="853" y="-301"/>
      <point x="887" y="-301" type="qcurve" smooth="yes"/>
      <point x="949" y="-301"/>
      <point x="990" y="-244" type="qcurve"/>
      <point x="1112" y="-328" type="line"/>
      <point x="1031" y="-451"/>
    </contour>
  </outline>
</glyph>
<glyph name="florin" format="2">
  <advance width="1028"/>
  <unicode hex="0192"/>
  <outline>
    <contour>
      <point x="63" y="-457" type="qcurve"/>
      <point x="63" y="-252" type="line"/>
      <point x="199" y="-252"/>
      <point x="341" y="-199"/>
      <point x="370" y="-141" type="qcurve" smooth="yes"/>
      <point x="401" y="-81"/>
      <point x="401" y="31" type="qcurve" smooth="yes"/>
      <point x="401" y="797" type="line"/>
      <point x="223" y="797" type="line"/>
      <point x="223" y="999" type="line"/>
      <point x="401" y="999" type="line"/>
      <point x="401" y="1124" type="line" smooth="yes"/>
      <point x="401" y="1221"/>
      <point x="485" y="1367"/>
      <point x="622" y="1448"/>
      <point x="702" y="1448" type="qcurve" smooth="yes"/>
      <point x="768" y="1448"/>
      <point x="884" y="1398"/>
      <point x="950" y="1341" type="qcurve"/>
      <point x="817" y="1186" type="line"/>
      <point x="780" y="1219"/>
      <point x="734" y="1243"/>
      <point x="702" y="1243" type="qcurve" smooth="yes"/>
      <point x="664" y="1243"/>
      <point x="606" y="1188"/>
      <point x="606" y="1124" type="qcurve" smooth="yes"/>
      <point x="606" y="999" type="line"/>
      <point x="911" y="999" type="line"/>
      <point x="911" y="797" type="line"/>
      <point x="606" y="797" type="line"/>
      <point x="606" y="31" type="line" smooth="yes"/>
      <point x="606" y="-120"/>
      <point x="489" y="-339"/>
      <point x="249" y="-457"/>
    </contour>
  </outline>
</glyph>
<glyph name="aemacron" format="2">
  <advance width="1675"/>
  <unicode hex="01E3"/>
  <outline>
    <contour>
      <point x="1110" y="1147" type="line"/>
      <point x="551" y="1147" type="line"/>
      <point x="551" y="1290" type="line"/>
      <point x="1110" y="1290" type="line"/>
    </contour>
    <contour>
      <point x="397" y="-20" type="qcurve" smooth="yes"/>
      <point x="303" y="-20"/>
      <point x="142" y="56"/>
      <point x="43" y="196"/>
      <point x="43" y="293" type="qcurve" smooth="yes"/>
      <point x="43" y="452"/>
      <point x="260" y="596"/>
      <point x="442" y="596" type="qcurve" smooth="yes"/>
      <point x="713" y="596" type="line"/>
      <point x="713" y="710"/>
      <point x="606" y="809"/>
      <point x="496" y="809" type="qcurve" smooth="yes"/>
      <point x="419" y="809"/>
      <point x="296" y="735"/>
      <point x="260" y="682" type="qcurve"/>
      <point x="88" y="807" type="line"/>
      <point x="168" y="916"/>
      <point x="373" y="1016"/>
      <point x="504" y="1016" type="qcurve" smooth="yes"/>
      <point x="619" y="1016"/>
      <point x="788" y="928"/>
      <point x="838" y="852" type="qcurve"/>
      <point x="895" y="925"/>
      <point x="1059" y="1012"/>
      <point x="1165" y="1012" type="qcurve" smooth="yes"/>
      <point x="1327" y="1012"/>
      <point x="1529" y="868"/>
      <point x="1616" y="636"/>
      <point x="1616" y="496" type="qcurve" smooth="yes"/>
      <point x="1616" y="450"/>
      <point x="1606" y="420" type="qcurve"/>
      <point x="920" y="420" type="line"/>
      <point x="933" y="327"/>
      <point x="1051" y="215"/>
      <point x="1161" y="215" type="qcurve" smooth="yes"/>
      <point x="1249" y="215"/>
      <point x="1363" y="257"/>
      <point x="1409" y="307" type="qcurve"/>
      <point x="1579" y="160" type="line"/>
      <point x="1497" y="72"/>
      <point x="1296" y="-12"/>
      <point x="1163" y="-12" type="qcurve" smooth="yes"/>
      <point x="924" y="-12"/>
      <point x="813" y="150" type="qcurve"/>
      <point x="653" y="-20"/>
    </contour>
    <contour>
      <point x="1376" y="596" type="line"/>
      <point x="1361" y="704"/>
      <point x="1245" y="807"/>
      <point x="1145" y="807" type="qcurve" smooth="yes"/>
      <point x="1076" y="807"/>
      <point x="984" y="753"/>
      <point x="931" y="658"/>
      <point x="922" y="596" type="qcurve"/>
    </contour>
    <contour>
      <point x="436" y="180" type="qcurve" smooth="yes"/>
      <point x="510" y="180"/>
      <point x="629" y="251"/>
      <point x="704" y="360"/>
      <point x="713" y="420" type="qcurve"/>
      <point x="457" y="420" type="line" smooth="yes"/>
      <point x="368" y="420"/>
      <point x="272" y="347"/>
      <point x="272" y="295" type="qcurve" smooth="yes"/>
      <point x="272" y="235"/>
      <point x="364" y="180"/>
    </contour>
  </outline>
</glyph>
<glyph name="oopen" format="2">
  <advance width="999"/>
  <unicode hex="0254"/>
  <outline>
    <contour>
      <point x="465" y="-20" type="qcurve" smooth="yes"/>
      <point x="311" y="-20"/>
      <point x="89" y="139"/>
      <point x="33" y="270" type="qcurve"/>
      <point x="264" y="360" type="line"/>
      <point x="286" y="285"/>
      <point x="393" y="209"/>
      <point x="465" y="209" type="qcurve" smooth="yes"/>
      <point x="583" y="209"/>
      <point x="698" y="374"/>
      <point x="698" y="498" type="qcurve" smooth="yes"/>
      <point x="698" y="623"/>
      <point x="584" y="786"/>
      <point x="465" y="786" type="qcurve" smooth="yes"/>
      <point x="389" y="786"/>
      <point x="284" y="704"/>
      <point x="264" y="635" type="qcurve"/>
      <point x="43" y="719" type="line"/>
      <point x="93" y="858"/>
      <point x="311" y="1016"/>
      <point x="463" y="1016" type="qcurve" smooth="yes"/>
      <point x="619" y="1016"/>
      <point x="728" y="944" type="qcurve"/>
      <point x="842" y="866"/>
      <point x="946" y="629"/>
      <point x="946" y="498" type="qcurve" smooth="yes"/>
      <point x="946" y="368"/>
      <point x="842" y="131"/>
      <point x="730" y="53" type="qcurve"/>
      <point x="621" y="-20"/>
    </contour>
  </outline>
</glyph>
<glyph name="ereversed" format="2">
  <advance width="1057"/>
  <unicode hex="0258"/>
  <outline>
    <contour>
      <point x="504" y="-12" type="qcurve" smooth="yes"/>
      <point x="372" y="-12"/>
      <point x="169" y="73"/>
      <point x="88" y="160" type="qcurve"/>
      <point x="256" y="307" type="line"/>
      <point x="304" y="257"/>
      <point x="417" y="215"/>
      <point x="506" y="215" type="qcurve" smooth="yes"/>
      <point x="617" y="215"/>
      <point x="734" y="328"/>
      <point x="745" y="420" type="qcurve"/>
      <point x="59" y="420" type="line"/>
      <point x="51" y="450"/>
      <point x="51" y="496" type="qcurve" smooth="yes"/>
      <point x="51" y="637"/>
      <point x="140" y="868"/>
      <point x="350" y="1012"/>
      <point x="522" y="1012" type="qcurve" smooth="yes"/>
      <point x="643" y="1012"/>
      <point x="824" y="926"/>
      <point x="944" y="780"/>
      <point x="1004" y="594"/>
      <point x="1004" y="494" type="qcurve" smooth="yes"/>
      <point x="1004" y="363"/>
      <point x="895" y="131"/>
      <point x="778" y="57" type="qcurve"/>
      <point x="665" y="-12"/>
    </contour>
    <contour>
      <point x="745" y="596" type="line"/>
      <point x="735" y="658"/>
      <point x="681" y="753"/>
      <point x="589" y="807"/>
      <point x="522" y="807" type="qcurve" smooth="yes"/>
      <point x="317" y="807"/>
      <point x="291" y="596" type="qcurve"/>
    </contour>
  </outline>
</glyph>
<glyph name="schwa" format="2">
  <advance width="1057"/>
  <unicode hex="0259"/>
  <outline>
    <contour>
      <point x="522" y="-12" type="qcurve" smooth="yes"/>
      <point x="350" y="-12"/>
      <point x="140" y="132"/>
      <point x="51" y="363"/>
      <point x="51" y="504" type="qcurve" smooth="yes"/>
      <point x="51" y="554"/>
      <point x="58" y="576" type="qcurve"/>
      <point x="59" y="580" type="line"/>
      <point x="745" y="580" type="line"/>
      <point x="734" y="672"/>
      <point x="617" y="784"/>
      <point x="506" y="784" type="qcurve" smooth="yes"/>
      <point x="417" y="784"/>
      <point x="304" y="742"/>
      <point x="256" y="692" type="qcurve"/>
      <point x="88" y="840" type="line"/>
      <point x="169" y="927"/>
      <point x="372" y="1012"/>
      <point x="504" y="1012" type="qcurve" smooth="yes"/>
      <point x="628" y="1012"/>
      <point x="816" y="930"/>
      <point x="941" y="789"/>
      <point x="1004" y="607"/>
      <point x="1004" y="506" type="qcurve" smooth="yes"/>
      <point x="1004" y="376"/>
      <point x="900" y="139"/>
      <point x="787" y="61" type="qcurve"/>
      <point x="678" y="-12"/>
    </contour>
    <contour>
      <point x="522" y="193" type="qcurve" smooth="yes"/>
      <point x="589" y="193"/>
      <point x="681" y="247"/>
      <point x="735" y="342"/>
      <point x="745" y="403" type="qcurve"/>
      <point x="291" y="403" type="line"/>
      <point x="316" y="193"/>
    </contour>
  </outline>
</glyph>
<glyph name="brevecmb" format="2">
  <unicode hex="0306"/>
  <anchor x="-405" y="999" name="_t.ringcmb_1"/>
  <outline>
    <contour>
      <point x="-405" y="1143" type="qcurve" smooth="yes"/>
      <point x="-721" y="1143"/>
      <point x="-721" y="1413" type="qcurve"/>
      <point x="-549" y="1413" type="line"/>
      <point x="-549" y="1347"/>
      <point x="-466" y="1286"/>
      <point x="-405" y="1286" type="qcurve" smooth="yes"/>
      <point x="-344" y="1286"/>
      <point x="-262" y="1349"/>
      <point x="-262" y="1413" type="qcurve"/>
      <point x="-90" y="1413" type="line"/>
      <point x="-90" y="1143"/>
    </contour>
  </outline>
</glyph>
<glyph name="dieresiscmb" format="2">
  <unicode hex="0308"/>
  <anchor x="-420" y="999" name="_t.ringcmb_1"/>
  <outline>
    <contour>
      <point x="-496" y="1188" type="line"/>
      <point x="-701" y="1188" type="line"/>
      <point x="-701" y="1413" type="line"/>
      <point x="-496" y="1413" type="line"/>
    </contour>
    <contour>
      <point x="-142" y="1188" type="line"/>
      <point x="-346" y="1188" type="line"/>
      <point x="-346" y="1413" type="line"/>
      <point x="-142" y="1413" type="line"/>
    </contour>
  </outline>
</glyph>
<glyph name="ringcmb" format="2">
  <unicode hex="030A"/>
  <anchor x="-316" y="999" name="_t.ringcmb_1"/>
  <outline>
    <contour>
      <point x="-318" y="1069" type="qcurve" smooth="yes"/>
      <point x="-386" y="1069"/>
      <point x="-489" y="1136"/>
      <point x="-547" y="1241"/>
      <point x="-547" y="1300" type="qcurve" smooth="yes"/>
      <point x="-547" y="1368"/>
      <point x="-482" y="1471"/>
      <point x="-378" y="1530"/>
      <point x="-318" y="1530" type="qcurve" smooth="yes"/>
      <point x="-218" y="1530"/>
      <point x="-86" y="1393"/>
      <point x="-86" y="1300" type="qcurve" smooth="yes"/>
      <point x="-86" y="1199"/>
      <point x="-225" y="1069"/>
    </contour>
    <contour>
      <point x="-318" y="1200" type="qcurve" smooth="yes"/>
      <point x="-271" y="1200"/>
      <point x="-217" y="1259"/>
      <point x="-217" y="1303" type="qcurve" smooth="yes"/>
      <point x="-217" y="1343"/>
      <point x="-269" y="1399"/>
      <point x="-318" y="1399" type="qcurve" smooth="yes"/>
      <point x="-364" y="1399"/>
      <point x="-416" y="1344"/>
      <point x="-416" y="1303" type="qcurve" smooth="yes"/>
      <point x="-416" y="1257"/>
      <point x="-359" y="1200"/>
    </contour>
  </outline>
</glyph>
<glyph name="hungarumlautcmb" format="2">
  <unicode hex="030B"/>
  <anchor x="-547" y="999" name="_t.ringcmb_1"/>
  <outline>
    <contour>
      <point x="-670" y="1083" type="line"/>
      <point x="-848" y="1083" type="line"/>
      <point x="-623" y="1413" type="line"/>
      <point x="-404" y="1413" type="line"/>
    </contour>
    <contour>
      <point x="-322" y="1083" type="line"/>
      <point x="-500" y="1083" type="line"/>
      <point x="-275" y="1413" type="line"/>
      <point x="-15" y="1413" type="line"/>
    </contour>
  </outline>
</glyph>
<glyph name="commaturnedabovecmb" format="2">
  <unicode hex="0312"/>
  <anchor x="-291" y="999" name="_t.ringcmb_1"/>
  <outline>
    <contour>
      <point x="-213" y="1119" type="line"/>
      <point x="-467" y="1119" type="line"/>
      <point x="-219" y="1434" type="line"/>
      <point x="-78" y="1434" type="line"/>
    </contour>
  </outline>
</glyph>
<glyph name="cedillacmb" format="2">
  <unicode hex="0327"/>
  <anchor x="-262" y="0" name="_b.uni0326"/>
  <anchor x="-262" y="0" name="_b.uni0326_2"/>
  <anchor x="-285" y="-500" name="b.uni0326_2"/>
  <outline>
    <contour>
      <point x="-305" y="-522" type="qcurve" smooth="yes"/>
      <point x="-370" y="-522"/>
      <point x="-477" y="-449"/>
      <point x="-502" y="-393" type="qcurve"/>
      <point x="-366" y="-336" type="line"/>
      <point x="-358" y="-356"/>
      <point x="-323" y="-383"/>
      <point x="-299" y="-383" type="qcurve" smooth="yes"/>
      <point x="-264" y="-383"/>
      <point x="-219" y="-339"/>
      <point x="-219" y="-305" type="qcurve" smooth="yes"/>
      <point x="-219" y="-256"/>
      <point x="-314" y="-195"/>
      <point x="-387" y="-195" type="qcurve" smooth="yes"/>
      <point x="-457" y="-195" type="line"/>
      <point x="-334" y="-2" type="line"/>
      <point x="-190" y="-2" type="line"/>
      <point x="-266" y="-100" type="line"/>
      <point x="-170" y="-114"/>
      <point x="-76" y="-219"/>
      <point x="-76" y="-297" type="qcurve" smooth="yes"/>
      <point x="-76" y="-398"/>
      <point x="-212" y="-522"/>
    </contour>
  </outline>
</glyph>
<glyph name="pi" format="2">
  <advance width="1004"/>
  <unicode hex="03C0"/>
  <outline>
    <contour>
      <point x="834" y="-20" type="qcurve" smooth="yes"/>
      <point x="720" y="-20"/>
      <point x="600" y="125"/>
      <point x="600" y="238" type="qcurve" smooth="yes"/>
      <point x="600" y="795" type="line"/>
      <point x="373" y="795" type="line"/>
      <point x="373" y="0" type="line"/>
      <point x="168" y="0" type="line"/>
      <point x="168" y="795" type="line"/>
      <point x="86" y="795" type="line"/>
      <point x="86" y="999" type="line"/>
      <point x="887" y="999" type="line"/>
      <point x="887" y="795" type="line"/>
      <point x="805" y="795" type="line"/>
      <point x="805" y="270" type="line" smooth="yes"/>
      <point x="805" y="160"/>
      <point x="850" y="160" type="qcurve" smooth="yes"/>
      <point x="871" y="160"/>
      <point x="891" y="174" type="qcurve"/>
      <point x="956" y="14" type="line"/>
      <point x="905" y="-20"/>
    </contour>
  </outline>
</glyph>
<glyph name="afii10055" format="2">
  <advance width="618"/>
  <unicode hex="0406"/>
  <outline>
    <contour>
      <point x="436" y="0" type="line"/>
      <point x="182" y="0" type="line"/>
      <point x="182" y="1411" type="line"/>
      <point x="436" y="1411" type="line"/>
    </contour>
  </outline>
</glyph>
<glyph name="afii10058" format="2">
  <advance width="1935"/>
  <unicode hex="0409"/>
  <outline>
    <contour>
      <point x="217" y="-20" type="qcurve" smooth="yes"/>
      <point x="156" y="-20"/>
      <point x="58" y="9"/>
      <point x="6" y="41" type="qcurve"/>
      <point x="76" y="227" type="line"/>
      <point x="142" y="205"/>
      <point x="195" y="205" type="qcurve" smooth="yes"/>
      <point x="247" y="205"/>
      <point x="287" y="637"/>
      <point x="287" y="893" type="qcurve" smooth="yes"/>
      <point x="287" y="1411" type="line"/>
      <point x="1202" y="1411" type="line"/>
      <point x="1202" y="825" type="line"/>
      <point x="1393" y="825" type="line" smooth="yes"/>
      <point x="1534" y="825"/>
      <point x="1760" y="732"/>
      <point x="1892" y="550"/>
      <point x="1892" y="416" type="qcurve" smooth="yes"/>
      <point x="1892" y="283"/>
      <point x="1761" y="97"/>
      <point x="1536" y="0"/>
      <point x="1393" y="0" type="qcurve" smooth="yes"/>
      <point x="950" y="0" type="line"/>
      <point x="950" y="1178" type="line"/>
      <point x="541" y="1178" type="line"/>
      <point x="541" y="895" type="line" smooth="yes"/>
      <point x="541" y="635"/>
      <point x="505" y="257"/>
      <point x="362" y="-20"/>
    </contour>
    <contour>
      <point x="1393" y="238" type="line" smooth="yes"/>
      <point x="1640" y="238"/>
      <point x="1640" y="416" type="qcurve" smooth="yes"/>
      <point x="1640" y="506"/>
      <point x="1515" y="588"/>
      <point x="1393" y="588" type="qcurve" smooth="yes"/>
      <point x="1202" y="588" type="line"/>
      <point x="1202" y="238" type="line"/>
    </contour>
  </outline>
</glyph>
<glyph name="afii10059" format="2">
  <advance width="2040"/>
  <unicode hex="040A"/>
  <outline>
    <contour>
      <point x="1497" y="0" type="qcurve" smooth="yes"/>
      <point x="1055" y="0" type="line"/>
      <point x="1055" y="590" type="line"/>
      <point x="436" y="590" type="line"/>
      <point x="436" y="0" type="line"/>
      <point x="182" y="0" type="line"/>
      <point x="182" y="1411" type="line"/>
      <point x="436" y="1411" type="line"/>
      <point x="436" y="823" type="line"/>
      <point x="1055" y="823" type="line"/>
      <point x="1055" y="1411" type="line"/>
      <point x="1309" y="1411" type="line"/>
      <point x="1309" y="825" type="line"/>
      <point x="1497" y="825" type="line" smooth="yes"/>
      <point x="1639" y="825"/>
      <point x="1865" y="732"/>
      <point x="1997" y="550"/>
      <point x="1997" y="416" type="qcurve" smooth="yes"/>
      <point x="1997" y="282"/>
      <point x="1866" y="97"/>
      <point x="1639" y="0"/>
    </contour>
    <contour>
      <point x="1497" y="238" type="line" smooth="yes"/>
      <point x="1745" y="238"/>
      <point x="1745" y="416" type="qcurve" smooth="yes"/>
      <point x="1745" y="505"/>
      <point x="1620" y="588"/>
      <point x="1497" y="588" type="qcurve" smooth="yes"/>
      <point x="1309" y="588" type="line"/>
      <point x="1309" y="238" type="line"/>
    </contour>
  </outline>
</glyph>
<glyph name="afii10060" format="2">
  <advance width="1632"/>
  <unicode hex="040B"/>
  <outline>
    <contour>
      <point x="1544" y="0" type="line"/>
      <point x="1290" y="0" type="line"/>
      <point x="1290" y="401" type="line" smooth="yes"/>
      <point x="1290" y="527"/>
      <point x="1237" y="679"/>
      <point x="1178" y="716" type="qcurve" smooth="yes"/>
      <point x="1115" y="756"/>
      <point x="1004" y="756" type="qcurve" smooth="yes"/>
      <point x="821" y="756"/>
      <point x="717" y="637" type="qcurve"/>
      <point x="717" y="0" type="line"/>
      <point x="463" y="0" type="line"/>
      <point x="463" y="1184" type="line"/>
      <point x="20" y="1184" type="line"/>
      <point x="20" y="1411" type="line"/>
      <point x="1159" y="1411" type="line"/>
      <point x="1159" y="1184" type="line"/>
      <point x="717" y="1184" type="line"/>
      <point x="717" y="930" type="line"/>
      <point x="859" y="1001"/>
      <point x="1004" y="1001" type="qcurve" smooth="yes"/>
      <point x="1278" y="1001"/>
      <point x="1544" y="700"/>
      <point x="1544" y="430" type="qcurve" smooth="yes"/>
    </contour>
  </outline>
</glyph>
<glyph name="uni040D" format="2">
  <advance width="1491"/>
  <unicode hex="040D"/>
  <outline>
    <contour>
      <point x="870" y="1516" type="line"/>
      <point x="692" y="1516" type="line"/>
      <point x="385" y="1825" type="line"/>
      <point x="645" y="1825" type="line"/>
    </contour>
    <contour>
      <point x="1309" y="0" type="line"/>
      <point x="1055" y="0" type="line"/>
      <point x="1055" y="1076" type="line"/>
      <point x="477" y="0" type="line"/>
      <point x="182" y="0" type="line"/>
      <point x="182" y="1411" type="line"/>
      <point x="436" y="1411" type="line"/>
      <point x="436" y="335" type="line"/>
      <point x="1014" y="1411" type="line"/>
      <point x="1309" y="1411" type="line"/>
    </contour>
  </outline>
</glyph>
<glyph name="afii10021" format="2">
  <advance width="1477"/>
  <unicode hex="0414"/>
  <outline>
    <contour>
      <point x="1456" y="-307" type="line"/>
      <point x="1202" y="-307" type="line"/>
      <point x="1202" y="0" type="line"/>
      <point x="274" y="0" type="line"/>
      <point x="274" y="-307" type="line"/>
      <point x="20" y="-307" type="line"/>
      <point x="20" y="223" type="line"/>
      <point x="170" y="223" type="line"/>
      <point x="641" y="1413" type="line"/>
      <point x="831" y="1413" type="line"/>
      <point x="1305" y="223" type="line"/>
      <point x="1456" y="223" type="line"/>
    </contour>
    <contour>
      <point x="1026" y="223" type="line"/>
      <point x="735" y="1001" type="line"/>
      <point x="444" y="223" type="line"/>
    </contour>
  </outline>
</glyph>
<glyph name="afii10025" format="2">
  <advance width="1114"/>
  <unicode hex="0417"/>
  <outline>
    <contour>
      <point x="506" y="-20" type="qcurve" smooth="yes"/>
      <point x="364" y="-20"/>
      <point x="116" y="84"/>
      <point x="45" y="193" type="qcurve"/>
      <point x="248" y="328" type="line"/>
      <point x="280" y="264"/>
      <point x="411" y="207"/>
      <point x="506" y="207" type="qcurve" smooth="yes"/>
      <point x="579" y="207"/>
      <point x="703" y="256"/>
      <point x="778" y="353"/>
      <point x="778" y="426" type="qcurve" smooth="yes"/>
      <point x="778" y="498"/>
      <point x="706" y="593"/>
      <point x="583" y="641"/>
      <point x="506" y="641" type="qcurve" smooth="yes"/>
      <point x="375" y="641" type="line"/>
      <point x="373" y="858" type="line"/>
      <point x="512" y="858" type="line" smooth="yes"/>
      <point x="598" y="858"/>
      <point x="717" y="948"/>
      <point x="717" y="1028" type="qcurve" smooth="yes"/>
      <point x="717" y="1113"/>
      <point x="598" y="1202"/>
      <point x="510" y="1202" type="qcurve" smooth="yes"/>
      <point x="436" y="1202"/>
      <point x="323" y="1139"/>
      <point x="309" y="1075" type="qcurve"/>
      <point x="57" y="1075" type="line"/>
      <point x="75" y="1249"/>
      <point x="338" y="1434"/>
      <point x="508" y="1434" type="qcurve" smooth="yes"/>
      <point x="622" y="1434"/>
      <point x="828" y="1346"/>
      <point x="896" y="1255" type="qcurve"/>
      <point x="958" y="1167"/>
      <point x="958" y="1049" type="qcurve" smooth="yes"/>
      <point x="958" y="846"/>
      <point x="797" y="764" type="qcurve"/>
      <point x="860" y="745"/>
      <point x="965" y="655"/>
      <point x="1030" y="511"/>
      <point x="1030" y="410" type="qcurve" smooth="yes"/>
      <point x="1030" y="302"/>
      <point x="945" y="140"/>
      <point x="798" y="33"/>
      <point x="609" y="-20"/>
    </contour>
  </outline>
</glyph>
<glyph name="afii10026" format="2">
  <advance width="1454"/>
  <unicode hex="0418"/>
  <outline>
    <contour>
      <point x="1272" y="0" type="line"/>
      <point x="1028" y="0" type="line"/>
      <point x="1028" y="991" type="line"/>
      <point x="436" y="0" type="line"/>
      <point x="182" y="0" type="line"/>
      <point x="182" y="1413" type="line"/>
      <point x="426" y="1413" type="line"/>
      <point x="426" y="424" type="line"/>
      <point x="1020" y="1413" type="line"/>
      <point x="1272" y="1413" type="line"/>
    </contour>
  </outline>
</glyph>
<glyph name="afii10027" format="2">
  <advance width="1491"/>
  <unicode hex="0419"/>
  <outline>
    <contour>
      <point x="765" y="1554" type="qcurve" smooth="yes"/>
      <point x="758" y="1554" type="line" smooth="yes"/>
      <point x="442" y="1554"/>
      <point x="442" y="1825" type="qcurve"/>
      <point x="614" y="1825" type="line"/>
      <point x="614" y="1759"/>
      <point x="697" y="1698"/>
      <point x="758" y="1698" type="qcurve" smooth="yes"/>
      <point x="820" y="1698"/>
      <point x="901" y="1761"/>
      <point x="901" y="1825" type="qcurve"/>
      <point x="1073" y="1825" type="line"/>
      <point x="1073" y="1554"/>
    </contour>
    <contour>
      <point x="1309" y="0" type="line"/>
      <point x="1055" y="0" type="line"/>
      <point x="1055" y="1076" type="line"/>
      <point x="477" y="0" type="line"/>
      <point x="182" y="0" type="line"/>
      <point x="182" y="1411" type="line"/>
      <point x="436" y="1411" type="line"/>
      <point x="436" y="335" type="line"/>
      <point x="1014" y="1411" type="line"/>
      <point x="1309" y="1411" type="line"/>
    </contour>
  </outline>
</glyph>
<glyph name="afii10029" format="2">
  <advance width="1343"/>
  <unicode hex="041B"/>
  <outline>
    <contour>
      <point x="1331" y="0" type="line"/>
      <point x="1051" y="0" type="line"/>
      <point x="670" y="1001" type="line"/>
      <point x="291" y="0" type="line"/>
      <point x="12" y="0" type="line"/>
      <point x="575" y="1413" type="line"/>
      <point x="766" y="1413" type="line"/>
    </contour>
  </outline>
</glyph>
<glyph name="afii10034" format="2">
  <advance width="1167"/>
  <unicode hex="0420"/>
  <outline>
    <contour>
      <point x="434" y="0" type="line"/>
      <point x="182" y="0" type="line"/>
      <point x="182" y="1411" type="line"/>
      <point x="625" y="1411" type="line" smooth="yes"/>
      <point x="764" y="1411"/>
      <point x="990" y="1317"/>
      <point x="1124" y="1132"/>
      <point x="1124" y="995" type="qcurve" smooth="yes"/>
      <point x="1124" y="863"/>
      <point x="994" y="680"/>
      <point x="768" y="586"/>
      <point x="625" y="586" type="qcurve" smooth="yes"/>
      <point x="434" y="586" type="line"/>
    </contour>
    <contour>
      <point x="625" y="823" type="line" smooth="yes"/>
      <point x="747" y="823"/>
      <point x="872" y="905"/>
      <point x="872" y="995" type="qcurve" smooth="yes"/>
      <point x="872" y="1174"/>
      <point x="625" y="1174" type="qcurve" smooth="yes"/>
      <point x="434" y="1174" type="line"/>
      <point x="434" y="823" type="line"/>
    </contour>
  </outline>
</glyph>
<glyph name="afii10036" format="2">
  <advance width="1180"/>
  <unicode hex="0422"/>
  <outline>
    <contour>
      <point x="717" y="0" type="line"/>
      <point x="463" y="0" type="line"/>
      <point x="463" y="1184" type="line"/>
      <point x="20" y="1184" type="line"/>
      <point x="20" y="1411" type="line"/>
      <point x="1159" y="1411" type="line"/>
      <point x="1159" y="1184" type="line"/>
      <point x="717" y="1184" type="line"/>
    </contour>
  </outline>
</glyph>
<glyph name="afii10038" format="2">
  <advance width="1782"/>
  <unicode hex="0424"/>
  <outline>
    <contour>
      <point x="1018" y="0" type="line"/>
      <point x="764" y="0" type="line"/>
      <point x="764" y="102" type="line"/>
      <point x="610" y="102"/>
      <point x="375" y="175"/>
      <point x="209" y="305"/>
      <point x="160" y="392" type="qcurve" smooth="yes"/>
      <point x="82" y="528"/>
      <point x="82" y="705" type="qcurve" smooth="yes"/>
      <point x="82" y="873"/>
      <point x="230" y="1150"/>
      <point x="391" y="1234" type="qcurve"/>
      <point x="544" y="1311"/>
      <point x="764" y="1311" type="qcurve"/>
      <point x="764" y="1411" type="line"/>
      <point x="1018" y="1411" type="line"/>
      <point x="1018" y="1311" type="line"/>
      <point x="1171" y="1311"/>
      <point x="1406" y="1237"/>
      <point x="1573" y="1106"/>
      <point x="1622" y="1019" type="qcurve" smooth="yes"/>
      <point x="1700" y="882"/>
      <point x="1700" y="705" type="qcurve" smooth="yes"/>
      <point x="1700" y="537"/>
      <point x="1551" y="262"/>
      <point x="1391" y="179" type="qcurve"/>
      <point x="1237" y="102"/>
      <point x="1018" y="102" type="qcurve"/>
    </contour>
    <contour>
      <point x="764" y="328" type="qcurve"/>
      <point x="764" y="1085" type="line"/>
      <point x="629" y="1085"/>
      <point x="445" y="988"/>
      <point x="350" y="816"/>
      <point x="350" y="705" type="qcurve" smooth="yes"/>
      <point x="350" y="596"/>
      <point x="442" y="426"/>
      <point x="626" y="328"/>
    </contour>
    <contour>
      <point x="1018" y="328" type="line"/>
      <point x="1153" y="328"/>
      <point x="1338" y="424"/>
      <point x="1432" y="594"/>
      <point x="1432" y="705" type="qcurve" smooth="yes"/>
      <point x="1432" y="814"/>
      <point x="1339" y="986"/>
      <point x="1155" y="1085"/>
      <point x="1018" y="1085" type="qcurve"/>
    </contour>
  </outline>
</glyph>
<glyph name="afii10040" format="2">
  <advance width="1528"/>
  <unicode hex="0426"/>
  <outline>
    <contour>
      <point x="1460" y="-307" type="line"/>
      <point x="1206" y="-307" type="line"/>
      <point x="1206" y="0" type="line"/>
      <point x="182" y="0" type="line"/>
      <point x="182" y="1411" type="line"/>
      <point x="436" y="1411" type="line"/>
      <point x="436" y="233" type="line"/>
      <point x="1055" y="233" type="line"/>
      <point x="1055" y="1411" type="line"/>
      <point x="1309" y="1411" type="line"/>
      <point x="1309" y="233" type="line"/>
      <point x="1460" y="233" type="line"/>
    </contour>
  </outline>
</glyph>
<glyph name="afii10041" format="2">
  <advance width="1352"/>
  <unicode hex="0427"/>
  <outline>
    <contour>
      <point x="1169" y="0" type="line"/>
      <point x="915" y="0" type="line"/>
      <point x="915" y="481" type="line"/>
      <point x="775" y="410"/>
      <point x="629" y="410" type="qcurve" smooth="yes"/>
      <point x="354" y="410"/>
      <point x="88" y="711"/>
      <point x="88" y="981" type="qcurve" smooth="yes"/>
      <point x="88" y="1411" type="line"/>
      <point x="342" y="1411" type="line"/>
      <point x="342" y="1010" type="line" smooth="yes"/>
      <point x="342" y="883"/>
      <point x="395" y="732"/>
      <point x="455" y="695" type="qcurve" smooth="yes"/>
      <point x="518" y="655"/>
      <point x="629" y="655" type="qcurve" smooth="yes"/>
      <point x="811" y="655"/>
      <point x="915" y="774" type="qcurve"/>
      <point x="915" y="1411" type="line"/>
      <point x="1169" y="1411" type="line"/>
    </contour>
  </outline>
</glyph>
<glyph name="afii10044" format="2">
  <advance width="1405"/>
  <unicode hex="042A"/>
  <outline>
    <contour>
      <point x="862" y="0" type="qcurve" smooth="yes"/>
      <point x="420" y="0" type="line"/>
      <point x="420" y="1184" type="line"/>
      <point x="20" y="1184" type="line"/>
      <point x="20" y="1411" type="line"/>
      <point x="672" y="1411" type="line"/>
      <point x="672" y="825" type="line"/>
      <point x="862" y="825" type="line" smooth="yes"/>
      <point x="1004" y="825"/>
      <point x="1230" y="732"/>
      <point x="1362" y="550"/>
      <point x="1362" y="416" type="qcurve" smooth="yes"/>
      <point x="1362" y="282"/>
      <point x="1231" y="97"/>
      <point x="1004" y="0"/>
    </contour>
    <contour>
      <point x="862" y="238" type="line" smooth="yes"/>
      <point x="1110" y="238"/>
      <point x="1110" y="416" type="qcurve" smooth="yes"/>
      <point x="1110" y="505"/>
      <point x="985" y="588"/>
      <point x="862" y="588" type="qcurve" smooth="yes"/>
      <point x="672" y="588" type="line"/>
      <point x="672" y="238" type="line"/>
    </contour>
  </outline>
</glyph>
<glyph name="afii10047" format="2">
  <advance width="1432"/>
  <unicode hex="042D"/>
  <outline>
    <contour>
      <point x="666" y="-20" type="qcurve" smooth="yes"/>
      <point x="464" y="-20"/>
      <point x="137" y="181"/>
      <point x="47" y="387" type="qcurve"/>
      <point x="283" y="483" type="line"/>
      <point x="335" y="350"/>
      <point x="520" y="221"/>
      <point x="666" y="221" type="qcurve" smooth="yes"/>
      <point x="850" y="221"/>
      <point x="1060" y="419"/>
      <point x="1087" y="590" type="qcurve"/>
      <point x="522" y="590" type="line"/>
      <point x="522" y="823" type="line"/>
      <point x="1090" y="823" type="line"/>
      <point x="1065" y="991"/>
      <point x="855" y="1194"/>
      <point x="670" y="1194" type="qcurve" smooth="yes"/>
      <point x="363" y="1194"/>
      <point x="287" y="936" type="qcurve"/>
      <point x="49" y="1030" type="line"/>
      <point x="141" y="1236"/>
      <point x="466" y="1436"/>
      <point x="668" y="1436" type="qcurve" smooth="yes"/>
      <point x="891" y="1436"/>
      <point x="1045" y="1337" type="qcurve" smooth="yes"/>
      <point x="1152" y="1267"/>
      <point x="1287" y="1070"/>
      <point x="1350" y="834"/>
      <point x="1350" y="707" type="qcurve" smooth="yes"/>
      <point x="1350" y="517"/>
      <point x="1204" y="184"/>
      <point x="1043" y="79" type="qcurve" smooth="yes"/>
      <point x="889" y="-20"/>
    </contour>
  </outline>
</glyph>
<glyph name="afii10049" format="2">
  <advance width="1268"/>
  <unicode hex="042F"/>
  <outline>
    <contour>
      <point x="1086" y="-2" type="line"/>
      <point x="832" y="-2" type="line"/>
      <point x="832" y="604" type="line"/>
      <point x="662" y="604" type="line"/>
      <point x="314" y="-2" type="line"/>
      <point x="23" y="-2" type="line"/>
      <point x="416" y="629" type="line"/>
      <point x="338" y="656"/>
      <point x="213" y="759"/>
      <point x="140" y="905"/>
      <point x="140" y="997" type="qcurve" smooth="yes"/>
      <point x="140" y="1130"/>
      <point x="275" y="1316"/>
      <point x="498" y="1413"/>
      <point x="629" y="1413" type="qcurve" smooth="yes"/>
      <point x="1086" y="1413" type="line"/>
    </contour>
    <contour>
      <point x="830" y="811" type="line"/>
      <point x="830" y="1186" type="line"/>
      <point x="627" y="1186" type="line" smooth="yes"/>
      <point x="519" y="1186"/>
      <point x="391" y="1082"/>
      <point x="391" y="993" type="qcurve" smooth="yes"/>
      <point x="391" y="915"/>
      <point x="501" y="816"/>
      <point x="606" y="811" type="qcurve"/>
    </contour>
  </outline>
</glyph>
<glyph name="afii10067" format="2">
  <advance width="1192"/>
  <unicode hex="0432"/>
  <outline>
    <contour>
      <point x="629" y="-20" type="qcurve" smooth="yes"/>
      <point x="496" y="-20"/>
      <point x="258" y="72"/>
      <point x="181" y="174" type="qcurve" smooth="yes"/>
      <point x="109" y="271"/>
      <point x="109" y="410" type="qcurve" smooth="yes"/>
      <point x="109" y="967" type="line" smooth="yes"/>
      <point x="109" y="1237"/>
      <point x="409" y="1434"/>
      <point x="631" y="1434" type="qcurve" smooth="yes"/>
      <point x="743" y="1434"/>
      <point x="940" y="1346"/>
      <point x="1061" y="1175"/>
      <point x="1061" y="1049" type="qcurve" smooth="yes"/>
      <point x="1061" y="964"/>
      <point x="990" y="816"/>
      <point x="928" y="764" type="qcurve"/>
      <point x="1112" y="656"/>
      <point x="1112" y="410" type="qcurve" smooth="yes"/>
      <point x="1112" y="265"/>
      <point x="985" y="75"/>
      <point x="767" y="-20"/>
    </contour>
    <contour>
      <point x="629" y="207" type="qcurve" smooth="yes"/>
      <point x="736" y="207"/>
      <point x="860" y="314"/>
      <point x="860" y="426" type="qcurve" smooth="yes"/>
      <point x="860" y="530"/>
      <point x="747" y="643"/>
      <point x="629" y="643" type="qcurve" smooth="yes"/>
      <point x="580" y="643"/>
      <point x="509" y="623"/>
      <point x="463" y="598" type="qcurve"/>
      <point x="463" y="817" type="line"/>
      <point x="520" y="858"/>
      <point x="635" y="858" type="qcurve" smooth="yes"/>
      <point x="727" y="858"/>
      <point x="819" y="953"/>
      <point x="819" y="1028" type="qcurve" smooth="yes"/>
      <point x="819" y="1110"/>
      <point x="723" y="1202"/>
      <point x="633" y="1202" type="qcurve" smooth="yes"/>
      <point x="557" y="1202"/>
      <point x="442" y="1167"/>
      <point x="356" y="1033"/>
      <point x="356" y="897" type="qcurve" smooth="yes"/>
      <point x="356" y="426" type="line" smooth="yes"/>
      <point x="356" y="354"/>
      <point x="431" y="257"/>
      <point x="555" y="207"/>
    </contour>
  </outline>
</glyph>
<glyph name="afii10073" format="2">
  <advance width="1018"/>
  <unicode hex="0437"/>
  <outline>
    <contour>
      <point x="426" y="-442" type="qcurve" smooth="yes"/>
      <point x="346" y="-442"/>
      <point x="175" y="-390"/>
      <point x="33" y="-283"/>
      <point x="-10" y="-201" type="qcurve"/>
      <point x="201" y="-49" type="line"/>
      <point x="223" y="-131"/>
      <point x="361" y="-215"/>
      <point x="426" y="-215" type="qcurve" smooth="yes"/>
      <point x="499" y="-215"/>
      <point x="623" y="-166"/>
      <point x="698" y="-69"/>
      <point x="698" y="4" type="qcurve" smooth="yes"/>
      <point x="698" y="66"/>
      <point x="659" y="164"/>
      <point x="575" y="221"/>
      <point x="508" y="221" type="qcurve" smooth="yes"/>
      <point x="322" y="221" type="line"/>
      <point x="322" y="436" type="line"/>
      <point x="514" y="436" type="line" smooth="yes"/>
      <point x="678" y="436"/>
      <point x="678" y="606" type="qcurve" smooth="yes"/>
      <point x="678" y="691"/>
      <point x="559" y="780"/>
      <point x="471" y="780" type="qcurve" smooth="yes"/>
      <point x="390" y="780"/>
      <point x="269" y="688"/>
      <point x="219" y="592" type="qcurve"/>
      <point x="-16" y="702" type="line"/>
      <point x="50" y="862"/>
      <point x="282" y="1012"/>
      <point x="469" y="1012" type="qcurve" smooth="yes"/>
      <point x="583" y="1012"/>
      <point x="790" y="924"/>
      <point x="858" y="833" type="qcurve"/>
      <point x="920" y="745"/>
      <point x="920" y="627" type="qcurve" smooth="yes"/>
      <point x="920" y="540"/>
      <point x="837" y="391"/>
      <point x="745" y="342" type="qcurve"/>
      <point x="861" y="289"/>
      <point x="950" y="114"/>
      <point x="950" y="-12" type="qcurve" smooth="yes"/>
      <point x="950" y="-120"/>
      <point x="865" y="-282"/>
      <point x="718" y="-389"/>
      <point x="529" y="-442"/>
    </contour>
  </outline>
</glyph>
<glyph name="afii10077" format="2">
  <advance width="999"/>
  <unicode hex="043B"/>
  <outline>
    <contour>
      <point x="1008" y="0" type="line"/>
      <point x="741" y="0" type="line"/>
      <point x="500" y="684" type="line"/>
      <point x="256" y="0" type="line"/>
      <point x="-8" y="0" type="line"/>
      <point x="399" y="999" type="line"/>
      <point x="600" y="999" type="line"/>
    </contour>
  </outline>
</glyph>
<glyph name="afii10078" format="2">
  <advance width="1470"/>
  <unicode hex="043C"/>
  <outline>
    <contour>
      <point x="1325" y="0" type="line"/>
      <point x="1102" y="0" type="line"/>
      <point x="1102" y="686" type="line"/>
      <point x="825" y="0" type="line"/>
      <point x="647" y="0" type="line"/>
      <point x="369" y="684" type="line"/>
      <point x="369" y="0" type="line"/>
      <point x="145" y="0" type="line"/>
      <point x="145" y="999" type="line"/>
      <point x="451" y="999" type="line"/>
      <point x="737" y="291" type="line"/>
      <point x="1018" y="1001" type="line"/>
      <point x="1325" y="1001" type="line"/>
    </contour>
  </outline>
</glyph>
<glyph name="afii10079" format="2">
  <advance width="1198"/>
  <unicode hex="043D"/>
  <outline>
    <contour>
      <point x="1053" y="0" type="line"/>
      <point x="805" y="0" type="line"/>
      <point x="805" y="463" type="line"/>
      <point x="393" y="463" type="line"/>
      <point x="393" y="0" type="line"/>
      <point x="145" y="0" type="line"/>
      <point x="145" y="999" type="line"/>
      <point x="393" y="999" type="line"/>
      <point x="393" y="645" type="line"/>
      <point x="805" y="645" type="line"/>
      <point x="805" y="999" type="line"/>
      <point x="1053" y="999" type="line"/>
    </contour>
  </outline>
</glyph>
<glyph name="afii10082" format="2">
  <advance width="1159"/>
  <unicode hex="0440"/>
  <outline>
    <contour>
      <point x="393" y="-438" type="line"/>
      <point x="145" y="-438" type="line"/>
      <point x="145" y="999" type="line"/>
      <point x="393" y="999" type="line"/>
      <point x="393" y="899" type="line"/>
      <point x="493" y="1020"/>
      <point x="680" y="1020" type="qcurve" smooth="yes"/>
      <point x="783" y="1020"/>
      <point x="942" y="935"/>
      <point x="1050" y="790"/>
      <point x="1106" y="603"/>
      <point x="1106" y="500" type="qcurve" smooth="yes"/>
      <point x="1106" y="365"/>
      <point x="1009" y="127"/>
      <point x="908" y="51" type="qcurve"/>
      <point x="811" y="-20"/>
      <point x="680" y="-20" type="qcurve" smooth="yes"/>
      <point x="597" y="-20"/>
      <point x="446" y="36"/>
      <point x="393" y="100" type="qcurve"/>
    </contour>
    <contour>
      <point x="618" y="205" type="qcurve" smooth="yes"/>
      <point x="700" y="205"/>
      <point x="806" y="283"/>
      <point x="858" y="416"/>
      <point x="858" y="500" type="qcurve" smooth="yes"/>
      <point x="858" y="583"/>
      <point x="806" y="719"/>
      <point x="700" y="801"/>
      <point x="618" y="801" type="qcurve" smooth="yes"/>
      <point x="501" y="801"/>
      <point x="381" y="633"/>
      <point x="381" y="500" type="qcurve" smooth="yes"/>
      <point x="381" y="415"/>
      <point x="431" y="282"/>
      <point x="536" y="205"/>
    </contour>
  </outline>
</glyph>
<glyph name="afii10086" format="2">
  <advance width="1497"/>
  <unicode hex="0444"/>
  <outline>
    <contour>
      <point x="870" y="-430" type="line"/>
      <point x="627" y="-430" type="line"/>
      <point x="627" y="-16" type="line"/>
      <point x="593" y="-20"/>
      <point x="573" y="-20" type="qcurve" smooth="yes"/>
      <point x="414" y="-20"/>
      <point x="180" y="123"/>
      <point x="51" y="358"/>
      <point x="51" y="496" type="qcurve" smooth="yes"/>
      <point x="51" y="640"/>
      <point x="185" y="874"/>
      <point x="421" y="1012"/>
      <point x="573" y="1012" type="qcurve"/>
      <point x="627" y="1008" type="line"/>
      <point x="627" y="1411" type="line"/>
      <point x="870" y="1411" type="line"/>
      <point x="870" y="1008" type="line"/>
      <point x="904" y="1012"/>
      <point x="924" y="1012" type="qcurve" smooth="yes"/>
      <point x="1083" y="1012"/>
      <point x="1317" y="869"/>
      <point x="1446" y="634"/>
      <point x="1446" y="496" type="qcurve" smooth="yes"/>
      <point x="1446" y="352"/>
      <point x="1312" y="118"/>
      <point x="1076" y="-20"/>
      <point x="924" y="-20" type="qcurve" smooth="yes"/>
      <point x="904" y="-20"/>
      <point x="870" y="-16" type="qcurve"/>
    </contour>
    <contour>
      <point x="573" y="190" type="qcurve" smooth="yes"/>
      <point x="610" y="190"/>
      <point x="627" y="195" type="qcurve"/>
      <point x="627" y="797" type="line"/>
      <point x="593" y="801"/>
      <point x="573" y="801" type="qcurve" smooth="yes"/>
      <point x="483" y="801"/>
      <point x="369" y="719"/>
      <point x="315" y="580"/>
      <point x="315" y="496" type="qcurve" smooth="yes"/>
      <point x="315" y="362"/>
      <point x="443" y="190"/>
    </contour>
    <contour>
      <point x="924" y="190" type="qcurve" smooth="yes"/>
      <point x="1054" y="190"/>
      <point x="1182" y="362"/>
      <point x="1182" y="496" type="qcurve" smooth="yes"/>
      <point x="1182" y="577"/>
      <point x="1130" y="716"/>
      <point x="1016" y="801"/>
      <point x="924" y="801" type="qcurve" smooth="yes"/>
      <point x="904" y="801"/>
      <point x="870" y="797" type="qcurve"/>
      <point x="870" y="195" type="line"/>
      <point x="887" y="190"/>
    </contour>
  </outline>
</glyph>
<glyph name="afii10090" format="2">
  <advance width="1772"/>
  <unicode hex="0448"/>
  <outline>
    <contour>
      <point x="1133" y="-18" type="qcurve" smooth="yes"/>
      <point x="947" y="-18"/>
      <point x="846" y="135" type="qcurve"/>
      <point x="785" y="58"/>
      <point x="610" y="-16"/>
      <point x="516" y="-16" type="qcurve" smooth="yes"/>
      <point x="389" y="-16"/>
      <point x="225" y="101"/>
      <point x="145" y="290"/>
      <point x="145" y="399" type="qcurve" smooth="yes"/>
      <point x="145" y="999" type="line"/>
      <point x="393" y="999" type="line"/>
      <point x="393" y="430" type="line" smooth="yes"/>
      <point x="393" y="327"/>
      <point x="466" y="209"/>
      <point x="555" y="209" type="qcurve" smooth="yes"/>
      <point x="622" y="209"/>
      <point x="715" y="275"/>
      <point x="764" y="384"/>
      <point x="764" y="451" type="qcurve" smooth="yes"/>
      <point x="764" y="999" type="line"/>
      <point x="1012" y="999" type="line"/>
      <point x="1012" y="426" type="line" smooth="yes"/>
      <point x="1012" y="324"/>
      <point x="1082" y="209"/>
      <point x="1171" y="209" type="qcurve" smooth="yes"/>
      <point x="1238" y="209"/>
      <point x="1331" y="275"/>
      <point x="1380" y="384"/>
      <point x="1380" y="451" type="qcurve" smooth="yes"/>
      <point x="1380" y="999" type="line"/>
      <point x="1626" y="999" type="line"/>
      <point x="1626" y="0" type="line"/>
      <point x="1380" y="0" type="line"/>
      <point x="1380" y="104" type="line"/>
      <point x="1331" y="39"/>
      <point x="1201" y="-18"/>
    </contour>
  </outline>
</glyph>
<glyph name="afii10091" format="2">
  <advance width="1772"/>
  <unicode hex="0449"/>
  <outline>
    <contour>
      <point x="1706" y="-307" type="line"/>
      <point x="1499" y="-307" type="line"/>
      <point x="1499" y="-23" type="line"/>
      <point x="1453" y="-23"/>
      <point x="1365" y="52"/>
      <point x="1348" y="117" type="qcurve"/>
      <point x="1297" y="48"/>
      <point x="1166" y="-18"/>
      <point x="1102" y="-18" type="qcurve" smooth="yes"/>
      <point x="918" y="-18"/>
      <point x="815" y="135" type="qcurve"/>
      <point x="754" y="58"/>
      <point x="579" y="-16"/>
      <point x="485" y="-16" type="qcurve" smooth="yes"/>
      <point x="358" y="-16"/>
      <point x="195" y="101"/>
      <point x="115" y="290"/>
      <point x="115" y="399" type="qcurve" smooth="yes"/>
      <point x="115" y="999" type="line"/>
      <point x="362" y="999" type="line"/>
      <point x="362" y="430" type="line" smooth="yes"/>
      <point x="362" y="327"/>
      <point x="435" y="209"/>
      <point x="524" y="209" type="qcurve" smooth="yes"/>
      <point x="591" y="209"/>
      <point x="684" y="275"/>
      <point x="733" y="384"/>
      <point x="733" y="451" type="qcurve" smooth="yes"/>
      <point x="733" y="999" type="line"/>
      <point x="981" y="999" type="line"/>
      <point x="981" y="426" type="line" smooth="yes"/>
      <point x="981" y="325"/>
      <point x="1052" y="209"/>
      <point x="1141" y="209" type="qcurve" smooth="yes"/>
      <point x="1208" y="209"/>
      <point x="1301" y="275"/>
      <point x="1350" y="384"/>
      <point x="1350" y="451" type="qcurve" smooth="yes"/>
      <point x="1350" y="999" type="line"/>
      <point x="1595" y="999" type="line"/>
      <point x="1595" y="244" type="line" smooth="yes"/>
      <point x="1595" y="172"/>
      <point x="1683" y="98"/>
      <point x="1747" y="98" type="qcurve"/>
    </contour>
  </outline>
</glyph>
<glyph name="afii10092" format="2">
  <advance width="1223"/>
  <unicode hex="044A"/>
  <outline>
    <contour>
      <point x="688" y="-20" type="qcurve" smooth="yes"/>
      <point x="469" y="-20"/>
      <point x="246" y="229"/>
      <point x="246" y="446" type="qcurve" smooth="yes"/>
      <point x="246" y="815" type="line"/>
      <point x="-4" y="815" type="line"/>
      <point x="-4" y="999" type="line"/>
      <point x="471" y="999" type="line"/>
      <point x="471" y="739" type="line"/>
      <point x="533" y="785"/>
      <point x="652" y="827"/>
      <point x="721" y="827" type="qcurve" smooth="yes"/>
      <point x="873" y="827"/>
      <point x="1072" y="717"/>
      <point x="1169" y="526"/>
      <point x="1169" y="403" type="qcurve" smooth="yes"/>
      <point x="1169" y="286"/>
      <point x="1061" y="94"/>
      <point x="847" y="-20"/>
    </contour>
    <contour>
      <point x="688" y="190" type="qcurve" smooth="yes"/>
      <point x="761" y="190"/>
      <point x="857" y="246"/>
      <point x="905" y="343"/>
      <point x="905" y="403" type="qcurve" smooth="yes"/>
      <point x="905" y="456"/>
      <point x="855" y="554"/>
      <point x="758" y="616"/>
      <point x="688" y="616" type="qcurve" smooth="yes"/>
      <point x="583" y="616"/>
      <point x="471" y="500"/>
      <point x="471" y="416" type="qcurve" smooth="yes"/>
      <point x="471" y="362"/>
      <point x="495" y="283"/>
      <point x="528" y="249" type="qcurve" smooth="yes"/>
      <point x="584" y="190"/>
    </contour>
  </outline>
</glyph>
<glyph name="afii10095" format="2">
  <advance width="999"/>
  <unicode hex="044D"/>
  <outline>
    <contour>
      <point x="463" y="-20" type="qcurve" smooth="yes"/>
      <point x="313" y="-20"/>
      <point x="94" y="135"/>
      <point x="43" y="276" type="qcurve"/>
      <point x="264" y="360" type="line"/>
      <point x="284" y="291"/>
      <point x="389" y="209"/>
      <point x="465" y="209" type="qcurve" smooth="yes"/>
      <point x="564" y="209"/>
      <point x="671" y="316"/>
      <point x="688" y="401" type="qcurve"/>
      <point x="340" y="401" type="line"/>
      <point x="340" y="584" type="line"/>
      <point x="690" y="584" type="line"/>
      <point x="680" y="642"/>
      <point x="625" y="733"/>
      <point x="532" y="786"/>
      <point x="465" y="786" type="qcurve" smooth="yes"/>
      <point x="393" y="786"/>
      <point x="286" y="710"/>
      <point x="264" y="635" type="qcurve"/>
      <point x="33" y="725" type="line"/>
      <point x="89" y="856"/>
      <point x="311" y="1016"/>
      <point x="465" y="1016" type="qcurve" smooth="yes"/>
      <point x="586" y="1016"/>
      <point x="766" y="930"/>
      <point x="886" y="784"/>
      <point x="946" y="598"/>
      <point x="946" y="498" type="qcurve" smooth="yes"/>
      <point x="946" y="367"/>
      <point x="842" y="130"/>
      <point x="728" y="52" type="qcurve"/>
      <point x="619" y="-20"/>
    </contour>
  </outline>
</glyph>
<glyph name="afii10096" format="2">
  <advance width="1602"/>
  <unicode hex="044E"/>
  <outline>
    <contour>
      <point x="1026" y="-20" type="qcurve" smooth="yes"/>
      <point x="873" y="-20"/>
      <point x="644" y="113"/>
      <point x="513" y="331"/>
      <point x="504" y="463" type="qcurve"/>
      <point x="393" y="463" type="line"/>
      <point x="393" y="0" type="line"/>
      <point x="145" y="0" type="line"/>
      <point x="145" y="1413" type="line"/>
      <point x="393" y="1413" type="line"/>
      <point x="393" y="645" type="line"/>
      <point x="524" y="645" type="line"/>
      <point x="554" y="750"/>
      <point x="692" y="915"/>
      <point x="896" y="1012"/>
      <point x="1026" y="1012" type="qcurve" smooth="yes"/>
      <point x="1185" y="1012"/>
      <point x="1419" y="869"/>
      <point x="1548" y="634"/>
      <point x="1548" y="496" type="qcurve" smooth="yes"/>
      <point x="1548" y="352"/>
      <point x="1414" y="118"/>
      <point x="1178" y="-20"/>
    </contour>
    <contour>
      <point x="1026" y="190" type="qcurve" smooth="yes"/>
      <point x="1156" y="190"/>
      <point x="1284" y="362"/>
      <point x="1284" y="496" type="qcurve" smooth="yes"/>
      <point x="1284" y="577"/>
      <point x="1232" y="716"/>
      <point x="1118" y="801"/>
      <point x="1026" y="801" type="qcurve" smooth="yes"/>
      <point x="936" y="801"/>
      <point x="822" y="719"/>
      <point x="768" y="580"/>
      <point x="768" y="496" type="qcurve" smooth="yes"/>
      <point x="768" y="362"/>
      <point x="896" y="190"/>
    </contour>
  </outline>
</glyph>
<glyph name="afii10099" format="2">
  <advance width="1165"/>
  <unicode hex="0452"/>
  <outline>
    <contour>
      <point x="610" y="-438" type="qcurve" smooth="yes"/>
      <point x="480" y="-438"/>
      <point x="360" y="-371" type="qcurve"/>
      <point x="467" y="-172" type="line"/>
      <point x="501" y="-191"/>
      <point x="576" y="-207"/>
      <point x="606" y="-207" type="qcurve" smooth="yes"/>
      <point x="674" y="-207"/>
      <point x="760" y="-139"/>
      <point x="801" y="-22"/>
      <point x="801" y="51" type="qcurve" smooth="yes"/>
      <point x="801" y="573" type="line" smooth="yes"/>
      <point x="801" y="673"/>
      <point x="730" y="782"/>
      <point x="641" y="782" type="qcurve" smooth="yes"/>
      <point x="579" y="782"/>
      <point x="468" y="726"/>
      <point x="397" y="610"/>
      <point x="397" y="520" type="qcurve" smooth="yes"/>
      <point x="397" y="0" type="line"/>
      <point x="147" y="0" type="line"/>
      <point x="147" y="1128" type="line"/>
      <point x="0" y="1128" type="line"/>
      <point x="0" y="1292" type="line"/>
      <point x="147" y="1292" type="line"/>
      <point x="147" y="1413" type="line"/>
      <point x="397" y="1413" type="line"/>
      <point x="397" y="1292" type="line"/>
      <point x="635" y="1292" type="line"/>
      <point x="635" y="1128" type="line"/>
      <point x="397" y="1128" type="line"/>
      <point x="397" y="893" type="line"/>
      <point x="499" y="1022"/>
      <point x="659" y="1022" type="qcurve" smooth="yes"/>
      <point x="794" y="1022"/>
      <point x="882" y="961" type="qcurve"/>
      <point x="971" y="895"/>
      <point x="1049" y="698"/>
      <point x="1049" y="586" type="qcurve" smooth="yes"/>
      <point x="1049" y="135" type="line" smooth="yes"/>
      <point x="1049" y="-165"/>
      <point x="835" y="-438"/>
    </contour>
  </outline>
</glyph>
<glyph name="afii10100" format="2">
  <advance width="795"/>
  <unicode hex="0453"/>
  <outline>
    <contour>
      <point x="498" y="1124" type="line"/>
      <point x="319" y="1124" type="line"/>
      <point x="545" y="1413" type="line"/>
      <point x="805" y="1413" type="line"/>
    </contour>
    <contour>
      <point x="387" y="0" type="line"/>
      <point x="139" y="0" type="line"/>
      <point x="139" y="999" type="line"/>
      <point x="799" y="999" type="line"/>
      <point x="799" y="817" type="line"/>
      <point x="387" y="817" type="line"/>
    </contour>
  </outline>
</glyph>
<glyph name="afii10104" format="2">
  <advance width="516"/>
  <unicode hex="0457"/>
  <outline>
    <contour>
      <point x="182" y="1155" type="line"/>
      <point x="-23" y="1155" type="line"/>
      <point x="-23" y="1350" type="line"/>
      <point x="182" y="1350" type="line"/>
    </contour>
    <contour>
      <point x="537" y="1155" type="line"/>
      <point x="332" y="1155" type="line"/>
      <point x="332" y="1350" type="line"/>
      <point x="537" y="1350" type="line"/>
    </contour>
    <contour>
      <point x="371" y="0" type="line"/>
      <point x="145" y="0" type="line"/>
      <point x="145" y="999" type="line"/>
      <point x="371" y="999" type="line"/>
    </contour>
  </outline>
</glyph>
<glyph name="afii10105" format="2">
  <advance width="543"/>
  <unicode hex="0458"/>
  <outline>
    <contour>
      <point x="406" y="1165" type="line"/>
      <point x="150" y="1165" type="line"/>
      <point x="150" y="1411" type="line"/>
      <point x="406" y="1411" type="line"/>
    </contour>
    <contour>
      <point x="100" y="-438" type="qcurve" smooth="yes"/>
      <point x="43" y="-438"/>
      <point x="-58" y="-412"/>
      <point x="-70" y="-406" type="qcurve"/>
      <point x="-8" y="-195" type="line"/>
      <point x="-7" y="-195" type="line"/>
      <point x="49" y="-209"/>
      <point x="92" y="-209" type="qcurve" smooth="yes"/>
      <point x="126" y="-209"/>
      <point x="150" y="-173"/>
      <point x="150" y="-123" type="qcurve" smooth="yes"/>
      <point x="150" y="999" type="line"/>
      <point x="395" y="999" type="line"/>
      <point x="395" y="-104" type="line" smooth="yes"/>
      <point x="395" y="-198"/>
      <point x="333" y="-349"/>
      <point x="203" y="-438"/>
    </contour>
  </outline>
</glyph>
<glyph name="afii10109" format="2">
  <advance width="1032"/>
  <unicode hex="045C"/>
  <outline>
    <contour>
      <point x="594" y="1124" type="line"/>
      <point x="416" y="1124" type="line"/>
      <point x="641" y="1413" type="line"/>
      <point x="901" y="1413" type="line"/>
    </contour>
    <contour>
      <point x="1022" y="0" type="line"/>
      <point x="733" y="0" type="line"/>
      <point x="612" y="352" type="line"/>
      <point x="575" y="463"/>
      <point x="481" y="463" type="qcurve" smooth="yes"/>
      <point x="389" y="463" type="line"/>
      <point x="389" y="0" type="line"/>
      <point x="145" y="0" type="line"/>
      <point x="145" y="999" type="line"/>
      <point x="389" y="999" type="line"/>
      <point x="389" y="643" type="line"/>
      <point x="455" y="643" type="line"/>
      <point x="688" y="999" type="line"/>
      <point x="971" y="999" type="line"/>
      <point x="678" y="612" type="line"/>
      <point x="729" y="612"/>
      <point x="819" y="513"/>
      <point x="846" y="455" type="qcurve"/>
    </contour>
  </outline>
</glyph>
<glyph name="afii10193" format="2">
  <advance width="1198"/>
  <unicode hex="045F"/>
  <outline>
    <contour>
      <point x="723" y="-307" type="line"/>
      <point x="475" y="-307" type="line"/>
      <point x="475" y="0" type="line"/>
      <point x="145" y="0" type="line"/>
      <point x="145" y="999" type="line"/>
      <point x="393" y="999" type="line"/>
      <point x="393" y="182" type="line"/>
      <point x="805" y="182" type="line"/>
      <point x="805" y="999" type="line"/>
      <point x="1053" y="999" type="line"/>
      <point x="1053" y="0" type="line"/>
      <point x="723" y="0" type="line"/>
    </contour>
  </outline>
</glyph>
<glyph name="afii10146" format="2">
  <advance width="1233"/>
  <unicode hex="0462"/>
  <outline>
    <contour>
      <point x="690" y="0" type="qcurve" smooth="yes"/>
      <point x="248" y="0" type="line"/>
      <point x="248" y="1055" type="line"/>
      <point x="35" y="1055" type="line"/>
      <point x="35" y="1288" type="line"/>
      <point x="248" y="1288" type="line"/>
      <point x="248" y="1411" type="line"/>
      <point x="500" y="1411" type="line"/>
      <point x="500" y="1288" type="line"/>
      <point x="793" y="1288" type="line"/>
      <point x="793" y="1055" type="line"/>
      <point x="500" y="1055" type="line"/>
      <point x="500" y="825" type="line"/>
      <point x="690" y="825" type="line" smooth="yes"/>
      <point x="832" y="825"/>
      <point x="1058" y="732"/>
      <point x="1190" y="550"/>
      <point x="1190" y="416" type="qcurve" smooth="yes"/>
      <point x="1190" y="282"/>
      <point x="1059" y="97"/>
      <point x="832" y="0"/>
    </contour>
    <contour>
      <point x="690" y="238" type="line" smooth="yes"/>
      <point x="938" y="238"/>
      <point x="938" y="416" type="qcurve" smooth="yes"/>
      <point x="938" y="505"/>
      <point x="813" y="588"/>
      <point x="690" y="588" type="qcurve" smooth="yes"/>
      <point x="500" y="588" type="line"/>
      <point x="500" y="238" type="line"/>
    </contour>
  </outline>
</glyph>
<glyph name="afii10194" format="2">
  <advance width="1059"/>
  <unicode hex="0463"/>
  <outline>
    <contour>
      <point x="545" y="0" type="qcurve" smooth="yes"/>
      <point x="147" y="0" type="line"/>
      <point x="147" y="1128" type="line"/>
      <point x="-37" y="1128" type="line"/>
      <point x="-37" y="1292" type="line"/>
      <point x="147" y="1292" type="line"/>
      <point x="147" y="1411" type="line"/>
      <point x="395" y="1411" type="line"/>
      <point x="395" y="1292" type="line"/>
      <point x="678" y="1292" type="line"/>
      <point x="678" y="1128" type="line"/>
      <point x="395" y="1128" type="line"/>
      <point x="395" y="705" type="line"/>
      <point x="543" y="705" type="line" smooth="yes"/>
      <point x="784" y="705"/>
      <point x="995" y="536"/>
      <point x="995" y="362" type="qcurve" smooth="yes"/>
      <point x="995" y="173"/>
      <point x="766" y="0"/>
    </contour>
    <contour>
      <point x="543" y="211" type="line" smooth="yes"/>
      <point x="629" y="211"/>
      <point x="727" y="277"/>
      <point x="727" y="362" type="qcurve" smooth="yes"/>
      <point x="727" y="434"/>
      <point x="628" y="494"/>
      <point x="543" y="494" type="qcurve" smooth="yes"/>
      <point x="395" y="494" type="line"/>
      <point x="395" y="211" type="line"/>
    </contour>
  </outline>
</glyph>
<glyph name="Eiotifiedcyrillic" format="2">
  <advance width="1937"/>
  <unicode hex="0464"/>
  <outline>
    <contour>
      <point x="1272" y="-20" type="qcurve" smooth="yes"/>
      <point x="1066" y="-20"/>
      <point x="778" y="142"/>
      <point x="614" y="417"/>
      <point x="594" y="590" type="qcurve"/>
      <point x="436" y="590" type="line"/>
      <point x="436" y="0" type="line"/>
      <point x="182" y="0" type="line"/>
      <point x="182" y="1411" type="line"/>
      <point x="436" y="1411" type="line"/>
      <point x="436" y="823" type="line"/>
      <point x="594" y="823" type="line"/>
      <point x="612" y="991"/>
      <point x="772" y="1268"/>
      <point x="924" y="1355" type="qcurve"/>
      <point x="1069" y="1436"/>
      <point x="1270" y="1436" type="qcurve" smooth="yes"/>
      <point x="1471" y="1436"/>
      <point x="1796" y="1236"/>
      <point x="1888" y="1030" type="qcurve"/>
      <point x="1651" y="936" type="line"/>
      <point x="1573" y="1194"/>
      <point x="1268" y="1194" type="qcurve" smooth="yes"/>
      <point x="1083" y="1194"/>
      <point x="873" y="991"/>
      <point x="848" y="823" type="qcurve"/>
      <point x="1415" y="823" type="line"/>
      <point x="1415" y="590" type="line"/>
      <point x="850" y="590" type="line"/>
      <point x="878" y="419"/>
      <point x="1088" y="221"/>
      <point x="1272" y="221" type="qcurve" smooth="yes"/>
      <point x="1417" y="221"/>
      <point x="1602" y="350"/>
      <point x="1655" y="483" type="qcurve"/>
      <point x="1890" y="387" type="line"/>
      <point x="1801" y="181"/>
      <point x="1474" y="-20"/>
    </contour>
  </outline>
</glyph>
<glyph name="Yuslittlecyrillic" format="2">
  <advance width="1343"/>
  <unicode hex="0466"/>
  <outline>
    <contour>
      <point x="1331" y="0" type="line"/>
      <point x="1057" y="0" type="line"/>
      <point x="948" y="307" type="line"/>
      <point x="801" y="307" type="line"/>
      <point x="801" y="0" type="line"/>
      <point x="547" y="0" type="line"/>
      <point x="547" y="307" type="line"/>
      <point x="399" y="307" type="line"/>
      <point x="289" y="0" type="line"/>
      <point x="12" y="0" type="line"/>
      <point x="578" y="1411" type="line"/>
      <point x="768" y="1411" type="line"/>
    </contour>
    <contour>
      <point x="862" y="524" type="line"/>
      <point x="674" y="1038" type="line"/>
      <point x="485" y="524" type="line"/>
    </contour>
  </outline>
</glyph>
<glyph name="Yuslittleiotifiedcyrillic" format="2">
  <advance width="1839"/>
  <unicode hex="0468"/>
  <outline>
    <contour>
      <point x="1827" y="0" type="line"/>
      <point x="1552" y="0" type="line"/>
      <point x="1444" y="307" type="line"/>
      <point x="1296" y="307" type="line"/>
      <point x="1296" y="0" type="line"/>
      <point x="1042" y="0" type="line"/>
      <point x="1042" y="307" type="line"/>
      <point x="895" y="307" type="line"/>
      <point x="784" y="0" type="line"/>
      <point x="508" y="0" type="line"/>
      <point x="743" y="590" type="line"/>
      <point x="436" y="590" type="line"/>
      <point x="436" y="0" type="line"/>
      <point x="182" y="0" type="line"/>
      <point x="182" y="1411" type="line"/>
      <point x="436" y="1411" type="line"/>
      <point x="436" y="823" type="line"/>
      <point x="838" y="823" type="line"/>
      <point x="1073" y="1411" type="line"/>
      <point x="1264" y="1411" type="line"/>
    </contour>
    <contour>
      <point x="1358" y="524" type="line"/>
      <point x="1169" y="1038" type="line"/>
      <point x="981" y="524" type="line"/>
    </contour>
  </outline>
</glyph>
<glyph name="Yusbigcyrillic" format="2">
  <advance width="1581"/>
  <unicode hex="046A"/>
  <outline>
    <contour>
      <point x="1556" y="0" type="line"/>
      <point x="1272" y="0" type="line"/>
      <point x="1106" y="473" type="line" smooth="yes"/>
      <point x="1080" y="547"/>
      <point x="987" y="664"/>
      <point x="918" y="664" type="qcurve" smooth="yes"/>
      <point x="903" y="664" type="line"/>
      <point x="903" y="0" type="line"/>
      <point x="649" y="0" type="line"/>
      <point x="649" y="664" type="line"/>
      <point x="607" y="664"/>
      <point x="546" y="641"/>
      <point x="519" y="606" type="qcurve" smooth="yes"/>
      <point x="472" y="547"/>
      <point x="446" y="473" type="qcurve" smooth="yes"/>
      <point x="281" y="0" type="line"/>
      <point x="27" y="0" type="line"/>
      <point x="227" y="588" type="line" smooth="yes"/>
      <point x="245" y="641"/>
      <point x="313" y="753"/>
      <point x="405" y="834"/>
      <point x="459" y="834" type="qcurve"/>
      <point x="207" y="1178" type="line"/>
      <point x="207" y="1411" type="line"/>
      <point x="1343" y="1411" type="line"/>
      <point x="1343" y="1178" type="line"/>
      <point x="1094" y="834" type="line"/>
      <point x="1166" y="834"/>
      <point x="1289" y="677"/>
      <point x="1325" y="588" type="qcurve"/>
    </contour>
    <contour>
      <point x="778" y="838" type="line"/>
      <point x="1022" y="1178" type="line"/>
      <point x="528" y="1178" type="line"/>
    </contour>
  </outline>
</glyph>
<glyph name="yusbigcyrillic" format="2">
  <advance width="1282"/>
  <unicode hex="046B"/>
  <outline>
    <contour>
      <point x="1270" y="0" type="line"/>
      <point x="981" y="0" type="line"/>
      <point x="860" y="352" type="line"/>
      <point x="833" y="436"/>
      <point x="748" y="446" type="qcurve"/>
      <point x="748" y="0" type="line"/>
      <point x="535" y="0" type="line"/>
      <point x="535" y="446" type="line"/>
      <point x="449" y="436"/>
      <point x="422" y="352" type="qcurve"/>
      <point x="301" y="0" type="line"/>
      <point x="12" y="0" type="line"/>
      <point x="188" y="455" type="line"/>
      <point x="218" y="523"/>
      <point x="287" y="612"/>
      <point x="336" y="612" type="qcurve"/>
      <point x="170" y="817" type="line"/>
      <point x="170" y="999" type="line"/>
      <point x="1110" y="999" type="line"/>
      <point x="1110" y="817" type="line"/>
      <point x="946" y="612" type="line"/>
      <point x="982" y="612"/>
      <point x="1038" y="562"/>
      <point x="1073" y="500"/>
      <point x="1094" y="455" type="qcurve"/>
    </contour>
    <contour>
      <point x="639" y="624" type="line"/>
      <point x="805" y="817" type="line"/>
      <point x="485" y="817" type="line"/>
    </contour>
  </outline>
</glyph>
<glyph name="Yusbigiotifiedcyrillic" format="2">
  <advance width="2081"/>
  <unicode hex="046C"/>
  <outline>
    <contour>
      <point x="2056" y="0" type="line"/>
      <point x="1772" y="0" type="line"/>
      <point x="1606" y="473" type="line" smooth="yes"/>
      <point x="1580" y="547"/>
      <point x="1534" y="606" type="qcurve" smooth="yes"/>
      <point x="1506" y="641"/>
      <point x="1445" y="664"/>
      <point x="1403" y="664" type="qcurve"/>
      <point x="1403" y="0" type="line"/>
      <point x="1149" y="0" type="line"/>
      <point x="1149" y="664" type="line"/>
      <point x="1107" y="664"/>
      <point x="1046" y="641"/>
      <point x="1019" y="606" type="qcurve" smooth="yes"/>
      <point x="972" y="547"/>
      <point x="946" y="473" type="qcurve" smooth="yes"/>
      <point x="780" y="0" type="line"/>
      <point x="526" y="0" type="line"/>
      <point x="727" y="590" type="line"/>
      <point x="436" y="590" type="line"/>
      <point x="436" y="0" type="line"/>
      <point x="182" y="0" type="line"/>
      <point x="182" y="1411" type="line"/>
      <point x="436" y="1411" type="line"/>
      <point x="436" y="823" type="line"/>
      <point x="967" y="823" type="line"/>
      <point x="707" y="1178" type="line"/>
      <point x="707" y="1411" type="line"/>
      <point x="1843" y="1411" type="line"/>
      <point x="1843" y="1178" type="line"/>
      <point x="1593" y="834" type="line"/>
      <point x="1665" y="834"/>
      <point x="1789" y="678"/>
      <point x="1825" y="588" type="qcurve" smooth="yes"/>
    </contour>
    <contour>
      <point x="1278" y="838" type="line"/>
      <point x="1522" y="1178" type="line"/>
      <point x="1028" y="1178" type="line"/>
    </contour>
  </outline>
</glyph>
<glyph name="yusbigiotifiedcyrillic" format="2">
  <advance width="1722"/>
  <unicode hex="046D"/>
  <outline>
    <contour>
      <point x="1710" y="0" type="line"/>
      <point x="1421" y="0" type="line"/>
      <point x="1300" y="352" type="line" smooth="yes"/>
      <point x="1282" y="404"/>
      <point x="1231" y="446"/>
      <point x="1194" y="446" type="qcurve" smooth="yes"/>
      <point x="1188" y="446" type="line"/>
      <point x="1188" y="0" type="line"/>
      <point x="975" y="0" type="line"/>
      <point x="975" y="446" type="line"/>
      <point x="932" y="446"/>
      <point x="873" y="388"/>
      <point x="862" y="352" type="qcurve"/>
      <point x="741" y="0" type="line"/>
      <point x="453" y="0" type="line"/>
      <point x="567" y="292"/>
      <point x="608" y="401" type="qcurve"/>
      <point x="393" y="401" type="line"/>
      <point x="393" y="0" type="line"/>
      <point x="145" y="0" type="line"/>
      <point x="145" y="999" type="line"/>
      <point x="393" y="999" type="line"/>
      <point x="393" y="584" type="line"/>
      <point x="799" y="584" type="line"/>
      <point x="610" y="817" type="line"/>
      <point x="610" y="999" type="line"/>
      <point x="1550" y="999" type="line"/>
      <point x="1550" y="817" type="line"/>
      <point x="1386" y="612" type="line"/>
      <point x="1421" y="612"/>
      <point x="1477" y="562"/>
      <point x="1513" y="500"/>
      <point x="1534" y="455" type="qcurve"/>
    </contour>
    <contour>
      <point x="1080" y="624" type="line"/>
      <point x="1245" y="817" type="line"/>
      <point x="926" y="817" type="line"/>
    </contour>
  </outline>
</glyph>
<glyph name="titlocyrilliccmb" format="2">
  <unicode hex="0483"/>
  <outline>
    <contour>
      <point x="-732" y="1577" type="line"/>
      <point x="-975" y="1577" type="line"/>
      <point x="-975" y="1931" type="line"/>
      <point x="-371" y="1931" type="line"/>
      <point x="-371" y="2056" type="line"/>
      <point x="-121" y="2056" type="line"/>
      <point x="-121" y="1700" type="line"/>
      <point x="-732" y="1700" type="line"/>
    </contour>
  </outline>
</glyph>
<glyph name="Zhedescendercyrillic" format="2">
  <advance width="2093"/>
  <unicode hex="0496"/>
  <outline>
    <contour>
      <point x="2173" y="-238" type="line"/>
      <point x="1931" y="-238" type="line"/>
      <point x="1931" y="0" type="line"/>
      <point x="1753" y="0" type="line"/>
      <point x="1587" y="473" type="line"/>
      <point x="1563" y="546"/>
      <point x="1468" y="664"/>
      <point x="1399" y="664" type="qcurve" smooth="yes"/>
      <point x="1174" y="664" type="line"/>
      <point x="1174" y="0" type="line"/>
      <point x="920" y="0" type="line"/>
      <point x="920" y="664" type="line"/>
      <point x="694" y="664" type="line" smooth="yes"/>
      <point x="625" y="664"/>
      <point x="530" y="546"/>
      <point x="506" y="473" type="qcurve"/>
      <point x="340" y="0" type="line"/>
      <point x="25" y="0" type="line"/>
      <point x="287" y="588" type="line" smooth="yes"/>
      <point x="397" y="834"/>
      <point x="518" y="834" type="qcurve"/>
      <point x="96" y="1411" type="line"/>
      <point x="436" y="1411" type="line"/>
      <point x="770" y="901" type="line"/>
      <point x="920" y="901" type="line"/>
      <point x="920" y="1411" type="line"/>
      <point x="1174" y="1411" type="line"/>
      <point x="1174" y="901" type="line"/>
      <point x="1323" y="901" type="line"/>
      <point x="1657" y="1411" type="line"/>
      <point x="1997" y="1411" type="line"/>
      <point x="1575" y="834" type="line"/>
      <point x="1696" y="834"/>
      <point x="1806" y="588" type="qcurve" smooth="yes"/>
      <point x="1993" y="168" type="line"/>
      <point x="2173" y="168" type="line"/>
    </contour>
  </outline>
</glyph>
<glyph name="endescendercyrillic" format="2">
  <advance width="1198"/>
  <unicode hex="04A3"/>
  <outline>
    <contour>
      <point x="1278" y="-238" type="line"/>
      <point x="1036" y="-238" type="line"/>
      <point x="1036" y="0" type="line"/>
      <point x="805" y="0" type="line"/>
      <point x="805" y="463" type="line"/>
      <point x="393" y="463" type="line"/>
      <point x="393" y="0" type="line"/>
      <point x="145" y="0" type="line"/>
      <point x="145" y="999" type="line"/>
      <point x="393" y="999" type="line"/>
      <point x="393" y="645" type="line"/>
      <point x="805" y="645" type="line"/>
      <point x="805" y="999" type="line"/>
      <point x="1053" y="999" type="line"/>
      <point x="1053" y="168" type="line"/>
      <point x="1278" y="168" type="line"/>
    </contour>
  </outline>
</glyph>
<glyph name="ustraightcyrillic" format="2">
  <advance width="1012"/>
  <unicode hex="04AF"/>
  <outline>
    <contour>
      <point x="627" y="0" type="line"/>
      <point x="385" y="0" type="line"/>
      <point x="385" y="428" type="line"/>
      <point x="-2" y="999" type="line"/>
      <point x="283" y="999" type="line"/>
      <point x="506" y="647" type="line"/>
      <point x="729" y="999" type="line"/>
      <point x="1014" y="999" type="line"/>
      <point x="627" y="428" type="line"/>
    </contour>
  </outline>
</glyph>
<glyph name="Schwacyrillic" format="2">
  <advance width="1528"/>
  <unicode hex="04D8"/>
  <outline>
    <contour>
      <point x="764" y="-20" type="qcurve" smooth="yes"/>
      <point x="540" y="-20"/>
      <point x="387" y="79" type="qcurve" smooth="yes"/>
      <point x="279" y="148"/>
      <point x="145" y="344"/>
      <point x="82" y="580"/>
      <point x="82" y="707" type="qcurve" smooth="yes"/>
      <point x="82" y="758"/>
      <point x="86" y="801" type="qcurve"/>
      <point x="1171" y="801" type="line"/>
      <point x="1151" y="984"/>
      <point x="952" y="1208"/>
      <point x="764" y="1208" type="qcurve" smooth="yes"/>
      <point x="534" y="1208"/>
      <point x="428" y="1034" type="qcurve"/>
      <point x="205" y="1157" type="line"/>
      <point x="288" y="1284"/>
      <point x="566" y="1434"/>
      <point x="764" y="1434" type="qcurve" smooth="yes"/>
      <point x="988" y="1434"/>
      <point x="1142" y="1336" type="qcurve"/>
      <point x="1249" y="1266"/>
      <point x="1383" y="1070"/>
      <point x="1446" y="834"/>
      <point x="1446" y="707" type="qcurve" smooth="yes"/>
      <point x="1446" y="580"/>
      <point x="1383" y="344"/>
      <point x="1249" y="148"/>
      <point x="1142" y="79" type="qcurve" smooth="yes"/>
      <point x="988" y="-20"/>
    </contour>
    <contour>
      <point x="764" y="205" type="qcurve" smooth="yes"/>
      <point x="954" y="205"/>
      <point x="1154" y="431"/>
      <point x="1174" y="616" type="qcurve"/>
      <point x="354" y="616" type="line"/>
      <point x="373" y="432"/>
      <point x="574" y="205"/>
    </contour>
  </outline>
</glyph>
<glyph name="afii10846" format="2">
  <advance width="1067"/>
  <unicode hex="04D9"/>
  <outline>
    <contour>
      <point x="530" y="-13" type="qcurve" smooth="yes"/>
      <point x="358" y="-13"/>
      <point x="148" y="131"/>
      <point x="59" y="362"/>
      <point x="59" y="503" type="qcurve" smooth="yes"/>
      <point x="59" y="554"/>
      <point x="68" y="579" type="qcurve"/>
      <point x="754" y="579" type="line"/>
      <point x="742" y="672"/>
      <point x="625" y="784"/>
      <point x="514" y="784" type="qcurve" smooth="yes"/>
      <point x="425" y="784"/>
      <point x="312" y="742"/>
      <point x="264" y="692" type="qcurve"/>
      <point x="96" y="839" type="line"/>
      <point x="177" y="926"/>
      <point x="380" y="1011"/>
      <point x="512" y="1011" type="qcurve" smooth="yes"/>
      <point x="636" y="1011"/>
      <point x="824" y="930"/>
      <point x="949" y="789"/>
      <point x="1012" y="606"/>
      <point x="1012" y="505" type="qcurve" smooth="yes"/>
      <point x="1012" y="375"/>
      <point x="908" y="138"/>
      <point x="795" y="60" type="qcurve"/>
      <point x="686" y="-13"/>
    </contour>
    <contour>
      <point x="530" y="192" type="qcurve" smooth="yes"/>
      <point x="631" y="192"/>
      <point x="738" y="308"/>
      <point x="754" y="403" type="qcurve"/>
      <point x="299" y="403" type="line"/>
      <point x="325" y="192"/>
    </contour>
  </outline>
</glyph>
<glyph name="afii00208" format="2">
  <advance width="1542"/>
  <unicode hex="2015"/>
  <outline>
    <contour>
      <point x="1401" y="508" type="line"/>
      <point x="141" y="508" type="line"/>
      <point x="141" y="692" type="line"/>
      <point x="1401" y="692" type="line"/>
    </contour>
  </outline>
</glyph>
<glyph name="quoteleft" format="2">
  <advance width="573"/>
  <unicode hex="2018"/>
  <outline>
    <contour>
      <point x="469" y="856" type="line"/>
      <point x="307" y="856" type="line"/>
      <point x="55" y="1413" type="line"/>
      <point x="332" y="1413" type="line"/>
    </contour>
  </outline>
</glyph>
<glyph name="quoteright" format="2">
  <advance width="573"/>
  <unicode hex="2019"/>
  <outline>
    <contour>
      <point x="266" y="856" type="line"/>
      <point x="104" y="856" type="line"/>
      <point x="242" y="1413" type="line"/>
      <point x="518" y="1413" type="line"/>
    </contour>
  </outline>
</glyph>
<glyph name="quotesinglbase" format="2">
  <advance width="553"/>
  <unicode hex="201A"/>
  <outline>
    <contour>
      <point x="248" y="-225" type="line"/>
      <point x="106" y="-225" type="line"/>
      <point x="240" y="264" type="line"/>
      <point x="494" y="264" type="line"/>
    </contour>
  </outline>
</glyph>
<glyph name="quotedblleft" format="2">
  <advance width="963"/>
  <unicode hex="201C"/>
  <outline>
    <contour>
      <point x="469" y="856" type="line"/>
      <point x="307" y="856" type="line"/>
      <point x="55" y="1413" type="line"/>
      <point x="332" y="1413" type="line"/>
    </contour>
    <contour>
      <point x="858" y="856" type="line"/>
      <point x="696" y="856" type="line"/>
      <point x="444" y="1413" type="line"/>
      <point x="721" y="1413" type="line"/>
    </contour>
  </outline>
</glyph>
<glyph name="dagger" format="2">
  <advance width="778"/>
  <unicode hex="2020"/>
  <outline>
    <contour>
      <point x="500" y="-205" type="line"/>
      <point x="279" y="-205" type="line"/>
      <point x="279" y="809" type="line"/>
      <point x="57" y="809" type="line"/>
      <point x="57" y="1030" type="line"/>
      <point x="279" y="1030" type="line"/>
      <point x="279" y="1413" type="line"/>
      <point x="500" y="1413" type="line"/>
      <point x="500" y="1030" type="line"/>
      <point x="721" y="1030" type="line"/>
      <point x="721" y="809" type="line"/>
      <point x="500" y="809" type="line"/>
    </contour>
  </outline>
</glyph>
<glyph name="daggerdbl" format="2">
  <advance width="893"/>
  <unicode hex="2021"/>
  <outline>
    <contour>
      <point x="557" y="-205" type="line"/>
      <point x="336" y="-205" type="line"/>
      <point x="336" y="178" type="line"/>
      <point x="115" y="178" type="line"/>
      <point x="115" y="399" type="line"/>
      <point x="336" y="399" type="line"/>
      <point x="336" y="809" type="line"/>
      <point x="115" y="809" type="line"/>
      <point x="115" y="1030" type="line"/>
      <point x="336" y="1030" type="line"/>
      <point x="336" y="1413" type="line"/>
      <point x="557" y="1413" type="line"/>
      <point x="557" y="1030" type="line"/>
      <point x="778" y="1030" type="line"/>
      <point x="778" y="809" type="line"/>
      <point x="557" y="809" type="line"/>
      <point x="557" y="399" type="line"/>
      <point x="778" y="399" type="line"/>
      <point x="778" y="178" type="line"/>
      <point x="557" y="178" type="line"/>
    </contour>
  </outline>
</glyph>
<glyph name="bullet" format="2">
  <advance width="758"/>
  <unicode hex="2022"/>
  <outline>
    <contour>
      <point x="379" y="244" type="qcurve" smooth="yes"/>
      <point x="281" y="244"/>
      <point x="141" y="383"/>
      <point x="141" y="481" type="qcurve" smooth="yes"/>
      <point x="141" y="580"/>
      <point x="281" y="719"/>
      <point x="379" y="719" type="qcurve" smooth="yes"/>
      <point x="480" y="719"/>
      <point x="616" y="576"/>
      <point x="616" y="481" type="qcurve" smooth="yes"/>
      <point x="616" y="412"/>
      <point x="549" y="305"/>
      <point x="441" y="244"/>
    </contour>
  </outline>
</glyph>
<glyph name="uni2023" format="2">
  <advance width="915"/>
  <unicode hex="2023"/>
  <outline>
    <contour>
      <point x="205" y="143" type="line"/>
      <point x="205" y="922" type="line"/>
      <point x="870" y="532" type="line"/>
    </contour>
  </outline>
</glyph>
<glyph name="perthousand" format="2">
  <advance width="2179"/>
  <unicode hex="2030"/>
  <outline>
    <contour>
      <point x="473" y="-20" type="line"/>
      <point x="262" y="-20" type="line"/>
      <point x="1053" y="1454" type="line"/>
      <point x="1264" y="1454" type="line"/>
    </contour>
    <contour>
      <point x="360" y="768" type="qcurve" smooth="yes"/>
      <point x="257" y="768"/>
      <point x="130" y="874"/>
      <point x="76" y="1027"/>
      <point x="76" y="1102" type="qcurve" smooth="yes"/>
      <point x="76" y="1177"/>
      <point x="129" y="1330"/>
      <point x="253" y="1436"/>
      <point x="354" y="1436" type="qcurve" smooth="yes"/>
      <point x="450" y="1436"/>
      <point x="575" y="1335"/>
      <point x="637" y="1181"/>
      <point x="637" y="1100" type="qcurve" smooth="yes"/>
      <point x="637" y="1042"/>
      <point x="604" y="924"/>
      <point x="537" y="827"/>
      <point x="432" y="768"/>
    </contour>
    <contour>
      <point x="356" y="940" type="qcurve" smooth="yes"/>
      <point x="403" y="940"/>
      <point x="457" y="1037"/>
      <point x="457" y="1102" type="qcurve" smooth="yes"/>
      <point x="457" y="1168"/>
      <point x="403" y="1262"/>
      <point x="354" y="1262" type="qcurve" smooth="yes"/>
      <point x="305" y="1262"/>
      <point x="252" y="1168"/>
      <point x="252" y="1102" type="qcurve" smooth="yes"/>
      <point x="252" y="1035"/>
      <point x="306" y="940"/>
    </contour>
    <contour>
      <point x="1188" y="-10" type="qcurve" smooth="yes"/>
      <point x="1086" y="-10"/>
      <point x="958" y="98"/>
      <point x="903" y="253"/>
      <point x="903" y="328" type="qcurve" smooth="yes"/>
      <point x="903" y="404"/>
      <point x="956" y="560"/>
      <point x="1081" y="668"/>
      <point x="1182" y="668" type="qcurve" smooth="yes"/>
      <point x="1278" y="668"/>
      <point x="1403" y="566"/>
      <point x="1464" y="410"/>
      <point x="1464" y="328" type="qcurve" smooth="yes"/>
      <point x="1464" y="269"/>
      <point x="1431" y="149"/>
      <point x="1364" y="50"/>
      <point x="1259" y="-10"/>
    </contour>
    <contour>
      <point x="1827" y="-10" type="qcurve" smooth="yes"/>
      <point x="1725" y="-10"/>
      <point x="1597" y="98"/>
      <point x="1542" y="253"/>
      <point x="1542" y="328" type="qcurve" smooth="yes"/>
      <point x="1542" y="404"/>
      <point x="1595" y="560"/>
      <point x="1720" y="668"/>
      <point x="1821" y="668" type="qcurve" smooth="yes"/>
      <point x="1916" y="668"/>
      <point x="2042" y="566"/>
      <point x="2103" y="410"/>
      <point x="2103" y="328" type="qcurve" smooth="yes"/>
      <point x="2103" y="269"/>
      <point x="2070" y="149"/>
      <point x="2003" y="50"/>
      <point x="1898" y="-10"/>
    </contour>
    <contour>
      <point x="1186" y="162" type="qcurve" smooth="yes"/>
      <point x="1231" y="162"/>
      <point x="1284" y="263"/>
      <point x="1284" y="330" type="qcurve" smooth="yes"/>
      <point x="1284" y="398"/>
      <point x="1230" y="494"/>
      <point x="1182" y="494" type="qcurve" smooth="yes"/>
      <point x="1133" y="494"/>
      <point x="1079" y="397"/>
      <point x="1079" y="328" type="qcurve" smooth="yes"/>
      <point x="1079" y="259"/>
      <point x="1134" y="162"/>
    </contour>
    <contour>
      <point x="1823" y="162" type="qcurve" smooth="yes"/>
      <point x="1869" y="162"/>
      <point x="1923" y="262"/>
      <point x="1923" y="330" type="qcurve" smooth="yes"/>
      <point x="1923" y="398"/>
      <point x="1869" y="494"/>
      <point x="1821" y="494" type="qcurve" smooth="yes"/>
      <point x="1771" y="494"/>
      <point x="1718" y="397"/>
      <point x="1718" y="328" type="qcurve" smooth="yes"/>
      <point x="1718" y="259"/>
      <point x="1772" y="162"/>
    </contour>
  </outline>
</glyph>
<glyph name="guilsinglleft" format="2">
  <advance width="592"/>
  <unicode hex="2039"/>
  <outline>
    <contour>
      <point x="444" y="156" type="line"/>
      <point x="16" y="510" type="line"/>
      <point x="444" y="866" type="line"/>
      <point x="444" y="655" type="line"/>
      <point x="264" y="510" type="line"/>
      <point x="444" y="367" type="line"/>
    </contour>
  </outline>
</glyph>
<glyph name="zerosuperior" format="2">
  <advance width="835"/>
  <unicode hex="2070"/>
  <outline>
    <contour>
      <point x="424" y="462" type="qcurve" smooth="yes"/>
      <point x="280" y="462"/>
      <point x="99" y="616"/>
      <point x="20" y="842"/>
      <point x="20" y="957" type="qcurve" smooth="yes"/>
      <point x="20" y="1073"/>
      <point x="97" y="1300"/>
      <point x="273" y="1454"/>
      <point x="414" y="1454" type="qcurve" smooth="yes"/>
      <point x="544" y="1454"/>
      <point x="635" y="1382" type="qcurve" smooth="yes"/>
      <point x="730" y="1305"/>
      <point x="817" y="1077"/>
      <point x="817" y="956" type="qcurve" smooth="yes"/>
      <point x="817" y="836"/>
      <point x="733" y="609"/>
      <point x="640" y="533" type="qcurve" smooth="yes"/>
      <point x="551" y="462"/>
    </contour>
    <contour>
      <point x="419" y="642" type="qcurve" smooth="yes"/>
      <point x="489" y="642"/>
      <point x="577" y="737"/>
      <point x="620" y="882"/>
      <point x="620" y="958" type="qcurve" smooth="yes"/>
      <point x="620" y="1036"/>
      <point x="577" y="1179"/>
      <point x="486" y="1270"/>
      <point x="414" y="1270" type="qcurve" smooth="yes"/>
      <point x="343" y="1270"/>
      <point x="252" y="1178"/>
      <point x="208" y="1035"/>
      <point x="208" y="957" type="qcurve" smooth="yes"/>
      <point x="208" y="883"/>
      <point x="250" y="737"/>
      <point x="343" y="642"/>
    </contour>
  </outline>
</glyph>
<glyph name="Euro" format="2">
  <advance width="1266"/>
  <unicode hex="20AC"/>
  <outline>
    <contour>
      <point x="788" y="-20" type="qcurve" smooth="yes"/>
      <point x="581" y="-20"/>
      <point x="319" y="238"/>
      <point x="270" y="453" type="qcurve"/>
      <point x="96" y="453" type="line"/>
      <point x="174" y="633" type="line"/>
      <point x="246" y="633" type="line"/>
      <point x="244" y="659"/>
      <point x="244" y="707" type="qcurve"/>
      <point x="246" y="793" type="line"/>
      <point x="96" y="793" type="line"/>
      <point x="174" y="979" type="line"/>
      <point x="272" y="979" type="line"/>
      <point x="324" y="1189"/>
      <point x="582" y="1436"/>
      <point x="786" y="1436" type="qcurve" smooth="yes"/>
      <point x="912" y="1436"/>
      <point x="1112" y="1327"/>
      <point x="1182" y="1231" type="qcurve"/>
      <point x="1026" y="1108" type="line"/>
      <point x="941" y="1217"/>
      <point x="786" y="1217" type="qcurve" smooth="yes"/>
      <point x="560" y="1217"/>
      <point x="477" y="979" type="qcurve"/>
      <point x="1008" y="979" type="line"/>
      <point x="930" y="797" type="line"/>
      <point x="444" y="797" type="line"/>
      <point x="440" y="743"/>
      <point x="440" y="723" type="qcurve" smooth="yes"/>
      <point x="440" y="691"/>
      <point x="444" y="641" type="qcurve"/>
      <point x="1008" y="641" type="line"/>
      <point x="930" y="461" type="line"/>
      <point x="477" y="461" type="line"/>
      <point x="559" y="199"/>
      <point x="788" y="199" type="qcurve" smooth="yes"/>
      <point x="868" y="199"/>
      <point x="982" y="255"/>
      <point x="1022" y="311" type="qcurve"/>
      <point x="1169" y="166" type="line"/>
      <point x="1095" y="73"/>
      <point x="899" y="-20"/>
    </contour>
  </outline>
</glyph>
<glyph name="uni20B3" format="2">
  <advance width="1343"/>
  <unicode hex="20B3"/>
  <anchor x="672" y="0" name="b.uni0326"/>
  <anchor x="672" y="1411" name="t.ringcmb_1"/>
  <anchor x="1331" y="0" name="b.ogonekcmb_2"/>
  <anchor x="0" y="0" name="m.horncmb_3"/>
  <outline>
    <contour>
      <point x="1331" y="0" type="line"/>
      <point x="1057" y="0" type="line"/>
      <point x="948" y="307" type="line"/>
      <point x="399" y="307" type="line"/>
      <point x="289" y="0" type="line"/>
      <point x="12" y="0" type="line"/>
      <point x="135" y="307" type="line"/>
      <point x="33" y="307" type="line"/>
      <point x="33" y="463" type="line"/>
      <point x="197" y="463" type="line"/>
      <point x="279" y="666" type="line"/>
      <point x="33" y="666" type="line"/>
      <point x="33" y="821" type="line"/>
      <point x="341" y="821" type="line"/>
      <point x="578" y="1413" type="line"/>
      <point x="768" y="1413" type="line"/>
      <point x="1004" y="821" type="line"/>
      <point x="1311" y="821" type="line"/>
      <point x="1311" y="666" type="line"/>
      <point x="1066" y="666" type="line"/>
      <point x="1147" y="463" type="line"/>
      <point x="1311" y="463" type="line"/>
      <point x="1311" y="307" type="line"/>
      <point x="1209" y="307" type="line"/>
    </contour>
    <contour>
      <point x="773" y="821" type="line"/>
      <point x="672" y="1102" type="line"/>
      <point x="574" y="821" type="line"/>
    </contour>
    <contour>
      <point x="901" y="463" type="line"/>
      <point x="828" y="666" type="line"/>
      <point x="520" y="666" type="line"/>
      <point x="449" y="463" type="line"/>
    </contour>
  </outline>
</glyph>
<glyph name="uni20B4" format="2">
  <advance width="1257"/>
  <unicode hex="20B4"/>
  <anchor x="634" y="0" name="b.uni0326"/>
  <anchor x="634" y="1411" name="t.ringcmb_1"/>
  <anchor x="1" y="0" name="b.ogonekcmb_2"/>
  <anchor x="1" y="0" name="m.horncmb_3"/>
  <outline>
    <contour>
      <point x="612" y="-16" type="qcurve" smooth="yes"/>
      <point x="482" y="-16"/>
      <point x="257" y="83"/>
      <point x="187" y="185" type="qcurve" smooth="yes"/>
      <point x="121" y="282"/>
      <point x="121" y="414" type="qcurve" smooth="yes"/>
      <point x="121" y="541"/>
      <point x="240" y="706"/>
      <point x="324" y="752" type="qcurve" smooth="yes"/>
      <point x="416" y="802"/>
      <point x="569" y="860" type="qcurve"/>
      <point x="246" y="860" type="line"/>
      <point x="246" y="999" type="line"/>
      <point x="786" y="999" type="line"/>
      <point x="801" y="1026"/>
      <point x="801" y="1059" type="qcurve" smooth="yes"/>
      <point x="801" y="1126"/>
      <point x="698" y="1208"/>
      <point x="625" y="1208" type="qcurve" smooth="yes"/>
      <point x="557" y="1208"/>
      <point x="438" y="1131"/>
      <point x="399" y="1057" type="qcurve"/>
      <point x="188" y="1186" type="line"/>
      <point x="263" y="1316"/>
      <point x="489" y="1434"/>
      <point x="618" y="1434" type="qcurve" smooth="yes"/>
      <point x="733" y="1434"/>
      <point x="936" y="1346"/>
      <point x="1000" y="1254" type="qcurve"/>
      <point x="1059" y="1165"/>
      <point x="1059" y="1044" type="qcurve" smooth="yes"/>
      <point x="1059" y="929"/>
      <point x="955" y="792"/>
      <point x="882" y="760" type="qcurve" smooth="yes"/>
      <point x="835" y="739"/>
      <point x="735" y="707"/>
      <point x="659" y="686" type="qcurve"/>
      <point x="1030" y="686" type="line"/>
      <point x="1030" y="547" type="line"/>
      <point x="406" y="547" type="line"/>
      <point x="379" y="501"/>
      <point x="379" y="440" type="qcurve" smooth="yes"/>
      <point x="379" y="327"/>
      <point x="502" y="219"/>
      <point x="608" y="219" type="qcurve" smooth="yes"/>
      <point x="721" y="219"/>
      <point x="885" y="338"/>
      <point x="901" y="463" type="qcurve"/>
      <point x="1153" y="399" type="line"/>
      <point x="1129" y="261"/>
      <point x="970" y="76"/>
      <point x="739" y="-16"/>
    </contour>
  </outline>
</glyph>
<glyph name="Delta" format="2">
  <advance width="1288"/>
  <unicode hex="2206"/>
  <outline>
    <contour>
      <point x="1243" y="0" type="line"/>
      <point x="45" y="0" type="line"/>
      <point x="643" y="1491" type="line"/>
    </contour>
    <contour>
      <point x="944" y="205" type="line"/>
      <point x="643" y="993" type="line"/>
      <point x="344" y="205" type="line"/>
    </contour>
  </outline>
</glyph>
<glyph name="product" format="2">
  <advance width="1343"/>
  <unicode hex="220F"/>
  <outline>
    <contour>
      <point x="1108" y="0" type="line"/>
      <point x="903" y="0" type="line"/>
      <point x="903" y="1208" type="line"/>
      <point x="440" y="1208" type="line"/>
      <point x="440" y="0" type="line"/>
      <point x="236" y="0" type="line"/>
      <point x="236" y="1208" type="line"/>
      <point x="154" y="1208" type="line"/>
      <point x="154" y="1413" type="line"/>
      <point x="1190" y="1413" type="line"/>
      <point x="1190" y="1208" type="line"/>
      <point x="1108" y="1208" type="line"/>
    </contour>
  </outline>
</glyph>
<glyph name="summation" format="2">
  <advance width="1268"/>
  <unicode hex="2211"/>
  <outline>
    <contour>
      <point x="1161" y="0" type="line"/>
      <point x="80" y="0" type="line"/>
      <point x="80" y="106" type="line"/>
      <point x="647" y="707" type="line"/>
      <point x="80" y="1307" type="line"/>
      <point x="80" y="1413" type="line"/>
      <point x="1161" y="1413" type="line"/>
      <point x="1161" y="1208" type="line"/>
      <point x="442" y="1208" type="line"/>
      <point x="938" y="707" type="line"/>
      <point x="442" y="205" type="line"/>
      <point x="1161" y="205" type="line"/>
    </contour>
  </outline>
</glyph>
<glyph name="minus" format="2">
  <advance width="1528"/>
  <unicode hex="2212"/>
  <outline>
    <contour>
      <point x="1313" y="537" type="line"/>
      <point x="215" y="537" type="line"/>
      <point x="215" y="721" type="line"/>
      <point x="1313" y="721" type="line"/>
    </contour>
  </outline>
</glyph>
<glyph name="integral" format="2">
  <advance width="899"/>
  <unicode hex="222B"/>
  <outline>
    <contour>
      <point x="41" y="-457" type="qcurve"/>
      <point x="41" y="-252" type="line"/>
      <point x="156" y="-252"/>
      <point x="290" y="-197"/>
      <point x="348" y="-77"/>
      <point x="348" y="20" type="qcurve" smooth="yes"/>
      <point x="348" y="1137" type="line" smooth="yes"/>
      <point x="348" y="1230"/>
      <point x="432" y="1370"/>
      <point x="569" y="1448"/>
      <point x="649" y="1448" type="qcurve" smooth="yes"/>
      <point x="707" y="1448"/>
      <point x="822" y="1405"/>
      <point x="872" y="1362" type="qcurve"/>
      <point x="741" y="1206" type="line"/>
      <point x="698" y="1243"/>
      <point x="649" y="1243" type="qcurve" smooth="yes"/>
      <point x="610" y="1243"/>
      <point x="553" y="1190"/>
      <point x="553" y="1128" type="qcurve" smooth="yes"/>
      <point x="553" y="14" type="line" smooth="yes"/>
      <point x="553" y="-141"/>
      <point x="424" y="-351"/>
      <point x="194" y="-457"/>
    </contour>
  </outline>
</glyph>
<glyph name="approxequal" format="2">
  <advance width="1165"/>
  <unicode hex="2248"/>
  <outline>
    <contour>
      <point x="739" y="735" type="qcurve" smooth="yes"/>
      <point x="667" y="735"/>
      <point x="560" y="770"/>
      <point x="501" y="803" type="qcurve" smooth="yes"/>
      <point x="467" y="821"/>
      <point x="426" y="838"/>
      <point x="406" y="838" type="qcurve" smooth="yes"/>
      <point x="369" y="838"/>
      <point x="346" y="809"/>
      <point x="346" y="762" type="qcurve"/>
      <point x="176" y="762" type="line"/>
      <point x="176" y="891"/>
      <point x="299" y="1008"/>
      <point x="403" y="1008" type="qcurve" smooth="yes"/>
      <point x="488" y="1008"/>
      <point x="604" y="972"/>
      <point x="661" y="940" type="qcurve" smooth="yes"/>
      <point x="691" y="924"/>
      <point x="727" y="909"/>
      <point x="745" y="909" type="qcurve" smooth="yes"/>
      <point x="786" y="909"/>
      <point x="811" y="946"/>
      <point x="811" y="1001" type="qcurve"/>
      <point x="989" y="1001" type="line"/>
      <point x="989" y="735"/>
    </contour>
    <contour>
      <point x="739" y="387" type="qcurve" smooth="yes"/>
      <point x="667" y="387"/>
      <point x="561" y="421"/>
      <point x="501" y="454" type="qcurve" smooth="yes"/>
      <point x="467" y="472"/>
      <point x="426" y="489"/>
      <point x="406" y="489" type="qcurve" smooth="yes"/>
      <point x="367" y="489"/>
      <point x="346" y="458"/>
      <point x="346" y="414" type="qcurve"/>
      <point x="176" y="414" type="line"/>
      <point x="176" y="543"/>
      <point x="299" y="659"/>
      <point x="403" y="659" type="qcurve" smooth="yes"/>
      <point x="488" y="659"/>
      <point x="603" y="624"/>
      <point x="661" y="592" type="qcurve" smooth="yes"/>
      <point x="691" y="576"/>
      <point x="727" y="561"/>
      <point x="745" y="561" type="qcurve" smooth="yes"/>
      <point x="786" y="561"/>
      <point x="811" y="598"/>
      <point x="811" y="653" type="qcurve"/>
      <point x="989" y="653" type="line"/>
      <point x="989" y="387"/>
    </contour>
  </outline>
</glyph>
<glyph name="lessequal" format="2">
  <advance width="1317"/>
  <unicode hex="2264"/>
  <outline>
    <contour>
      <point x="1087" y="154" type="line"/>
      <point x="102" y="702" type="line"/>
      <point x="1087" y="1251" type="line"/>
      <point x="1190" y="1073" type="line"/>
      <point x="500" y="702" type="line"/>
      <point x="1190" y="332" type="line"/>
    </contour>
    <contour>
      <point x="1196" y="-184" type="line"/>
      <point x="72" y="-184" type="line"/>
      <point x="72" y="0" type="line"/>
      <point x="1196" y="0" type="line"/>
    </contour>
  </outline>
</glyph>
<glyph name="greaterequal" format="2">
  <advance width="1315"/>
  <unicode hex="2265"/>
  <outline>
    <contour>
      <point x="227" y="154" type="line"/>
      <point x="125" y="332" type="line"/>
      <point x="815" y="702" type="line"/>
      <point x="125" y="1073" type="line"/>
      <point x="227" y="1251" type="line"/>
      <point x="1212" y="702" type="line"/>
    </contour>
    <contour>
      <point x="1243" y="-184" type="line"/>
      <point x="119" y="-184" type="line"/>
      <point x="119" y="0" type="line"/>
      <point x="1243" y="0" type="line"/>
    </contour>
  </outline>
</glyph>
<glyph name="apple" format="2">
  <advance width="1712"/>
  <unicode hex="F8FF"/>
  <outline>
    <contour>
      <point x="856" y="-61" type="qcurve" smooth="yes"/>
      <point x="709" y="-61"/>
      <point x="453" y="38"/>
      <point x="253" y="211"/>
      <point x="186" y="325" type="qcurve" smooth="yes"/>
      <point x="82" y="502"/>
      <point x="82" y="713" type="qcurve" smooth="yes"/>
      <point x="82" y="860"/>
      <point x="181" y="1116"/>
      <point x="354" y="1316"/>
      <point x="468" y="1383" type="qcurve" smooth="yes"/>
      <point x="645" y="1487"/>
      <point x="856" y="1487" type="qcurve" smooth="yes"/>
      <point x="1003" y="1487"/>
      <point x="1259" y="1388"/>
      <point x="1459" y="1215"/>
      <point x="1526" y="1102" type="qcurve" smooth="yes"/>
      <point x="1630" y="924"/>
      <point x="1630" y="713" type="qcurve" smooth="yes"/>
      <point x="1630" y="566"/>
      <point x="1531" y="310"/>
      <point x="1358" y="110"/>
      <point x="1245" y="43" type="qcurve" smooth="yes"/>
      <point x="1067" y="-61"/>
    </contour>
    <contour>
      <point x="856" y="10" type="qcurve" smooth="yes"/>
      <point x="989" y="10"/>
      <point x="1221" y="100"/>
      <point x="1404" y="257"/>
      <point x="1465" y="361" type="qcurve" smooth="yes"/>
      <point x="1559" y="522"/>
      <point x="1559" y="713" type="qcurve" smooth="yes"/>
      <point x="1559" y="846"/>
      <point x="1469" y="1078"/>
      <point x="1312" y="1261"/>
      <point x="1209" y="1321" type="qcurve" smooth="yes"/>
      <point x="1047" y="1415"/>
      <point x="856" y="1415" type="qcurve" smooth="yes"/>
      <point x="723" y="1415"/>
      <point x="491" y="1326"/>
      <point x="308" y="1169"/>
      <point x="248" y="1066" type="qcurve" smooth="yes"/>
      <point x="154" y="904"/>
      <point x="154" y="713" type="qcurve" smooth="yes"/>
      <point x="154" y="580"/>
      <point x="243" y="348"/>
      <point x="400" y="165"/>
      <point x="504" y="105" type="qcurve"/>
      <point x="665" y="10"/>
    </contour>
    <contour>
      <point x="453" y="410" type="qcurve" smooth="yes"/>
      <point x="438" y="410"/>
      <point x="418" y="429"/>
      <point x="418" y="444" type="qcurve" smooth="yes"/>
      <point x="418" y="981" type="line" smooth="yes"/>
      <point x="418" y="996"/>
      <point x="439" y="1018"/>
      <point x="453" y="1018" type="qcurve" smooth="yes"/>
      <point x="468" y="1018"/>
      <point x="489" y="996"/>
      <point x="489" y="981" type="qcurve" smooth="yes"/>
      <point x="489" y="444" type="line" smooth="yes"/>
      <point x="489" y="429"/>
      <point x="468" y="410"/>
    </contour>
    <contour>
      <point x="856" y="410" type="qcurve"/>
      <point x="841" y="410"/>
      <point x="821" y="429"/>
      <point x="821" y="444" type="qcurve" smooth="yes"/>
      <point x="821" y="981" type="line" smooth="yes"/>
      <point x="821" y="996"/>
      <point x="841" y="1018"/>
      <point x="856" y="1018" type="qcurve" smooth="yes"/>
      <point x="871" y="1018"/>
      <point x="891" y="996"/>
      <point x="891" y="981" type="qcurve" smooth="yes"/>
      <point x="891" y="444" type="line" smooth="yes"/>
      <point x="891" y="415"/>
    </contour>
    <contour>
      <point x="1257" y="410" type="qcurve" smooth="yes"/>
      <point x="1243" y="410"/>
      <point x="1235" y="420" type="qcurve"/>
      <point x="965" y="688" type="line"/>
      <point x="956" y="698"/>
      <point x="956" y="713" type="qcurve" smooth="yes"/>
      <point x="956" y="729"/>
      <point x="965" y="737" type="qcurve" smooth="yes"/>
      <point x="1235" y="1006" type="line"/>
      <point x="1244" y="1018"/>
      <point x="1257" y="1018" type="qcurve" smooth="yes"/>
      <point x="1271" y="1018"/>
      <point x="1294" y="995"/>
      <point x="1294" y="981" type="qcurve" smooth="yes"/>
      <point x="1294" y="967"/>
      <point x="1284" y="956" type="qcurve"/>
      <point x="1040" y="713" type="line"/>
      <point x="1284" y="469" type="line" smooth="yes"/>
      <point x="1294" y="459"/>
      <point x="1294" y="444" type="qcurve" smooth="yes"/>
      <point x="1294" y="431"/>
      <point x="1271" y="410"/>
    </contour>
    <contour>
      <point x="721" y="678" type="qcurve" smooth="yes"/>
      <point x="588" y="678" type="line" smooth="yes"/>
      <point x="556" y="678"/>
      <point x="553" y="713" type="qcurve"/>
      <point x="553" y="728"/>
      <point x="572" y="748"/>
      <point x="588" y="748" type="qcurve" smooth="yes"/>
      <point x="721" y="748" type="line" smooth="yes"/>
      <point x="736" y="748"/>
      <point x="758" y="728"/>
      <point x="758" y="713" type="qcurve" smooth="yes"/>
      <point x="758" y="698"/>
      <point x="736" y="678"/>
    </contour>
  </outline>
</glyph>
